<svg version="1.2" xmlns="http://www.w3.org/2000/svg" viewBox="0 0 2000 1569" width="2000" height="1569">
	<title>8879-ai</title>
	<style>
		.s0 { fill: #e6a748 } 
		.s1 { fill: #c9edf9 } 
		.s2 { fill: #55769f } 
		.s3 { fill: #eefbff } 
		.s4 { fill: #65cefe } 
		.s5 { fill: #ffcb83 } 
		.s6 { fill: #ff6e53 } 
		.s7 { fill: #e74a60 } 
		.s8 { fill: #daeef7 } 
		.s9 { fill: #063e70 } 
		.s10 { fill: #064c91 } 
		.s11 { fill: #6577ff } 
		.s12 { fill: #4054e7 } 
		.s13 { fill: #ff5b7e } 
		.s14 { fill: #ffc0bb } 
		.s15 { fill: #fc8d84 } 
		.s16 { fill: #c7202e } 
		.s17 { fill: #06bfad } 
		.s18 { fill: #581953 } 
		.s19 { fill: #031322 } 
		.s20 { fill: #f99893 } 
		.s21 { fill: #333333 } 
	</style>
	<g id="Слой 2">
		<g id="&lt;Group&gt;">
			<g id="&lt;Group&gt;">
				<g id="&lt;Group&gt;">
				</g>
			</g>
			<g id="&lt;Group&gt;">
			</g>
			<g id="&lt;Group&gt;">
				<g id="&lt;Group&gt;">
				</g>
				<g id="&lt;Group&gt;">
				</g>
			</g>
			<g id="&lt;Group&gt;">
				<g id="&lt;Group&gt;">
				</g>
				<g id="&lt;Group&gt;">
				</g>
				<g id="&lt;Group&gt;">
					<g id="&lt;Group&gt;">
						<g id="&lt;Group&gt;">
							<g id="&lt;Group&gt;">
							</g>
						</g>
					</g>
				</g>
			</g>
		</g>
	</g>
	<g id="Layer 1">
		<g id="&lt;Group&gt;">
			<g id="&lt;Group&gt;">
				<g id="&lt;Group&gt;">
					<path id="&lt;Path&gt;" class="s0" d="m1027.7 1257l186.9 75 231.3-576-157.9-63.4c-16-6.5-34.2 1.3-40.6 17.3z"/>
				</g>
				<g id="&lt;Group&gt;">
					<g id="&lt;Group&gt;">
						<path id="&lt;Path&gt;" class="s1" d="m1005.7 1235.5l357.8 63.5 89.2-503.1-357.8-63.5z"/>
					</g>
					<g id="&lt;Group&gt;">
						<path id="&lt;Path&gt;" class="s2" d="m1184.6 803.5l159.8 28.4 0.7-3.6-159.8-28.3z"/>
					</g>
					<g id="&lt;Group&gt;">
						<path id="&lt;Path&gt;" class="s2" d="m1152.7 788.5l226.9 40.2 0.7-3.6-227-40.2z"/>
					</g>
					<g id="&lt;Group&gt;">
						<path id="&lt;Path&gt;" class="s2" d="m1120.2 831l275.3 48.8 0.7-3.6-275.4-48.8z"/>
					</g>
					<g id="&lt;Group&gt;">
						<path id="&lt;Path&gt;" class="s2" d="m1117.1 848.2l275.4 48.8 0.6-3.6-275.3-48.8z"/>
					</g>
					<g id="&lt;Group&gt;">
						<path id="&lt;Path&gt;" class="s2" d="m1111 882.7l275.4 48.8 0.6-3.5-275.3-48.9z"/>
					</g>
					<g id="&lt;Group&gt;">
						<path id="&lt;Path&gt;" class="s2" d="m1108 900l275.3 48.8 0.6-3.6-275.3-48.8z"/>
					</g>
					<g id="&lt;Group&gt;">
						<path id="&lt;Path&gt;" class="s2" d="m1104.9 917.2l275.3 48.9 0.7-3.6-275.4-48.8z"/>
					</g>
					<g id="&lt;Group&gt;">
						<path id="&lt;Path&gt;" class="s2" d="m1091.5 993.1l275.3 48.8 0.6-3.5-275.3-48.9z"/>
					</g>
					<g id="&lt;Group&gt;">
						<path id="&lt;Path&gt;" class="s2" d="m1088.3 1011l275.3 48.8 0.6-3.6-275.3-48.8z"/>
					</g>
					<g id="&lt;Group&gt;">
						<path id="&lt;Path&gt;" class="s2" d="m1085.1 1028.9l275.3 48.8 0.7-3.6-275.3-48.8z"/>
					</g>
					<g id="&lt;Group&gt;">
						<path id="&lt;Path&gt;" class="s2" d="m1081.9 1046.8l275.4 48.8 0.6-3.6-275.3-48.8z"/>
					</g>
					<g id="&lt;Group&gt;">
						<path id="&lt;Path&gt;" class="s2" d="m1078.8 1064.7l275.3 48.8 0.6-3.6-275.3-48.8z"/>
					</g>
					<g id="&lt;Group&gt;">
						<path id="&lt;Path&gt;" class="s2" d="m1075.6 1082.6l275.3 48.8 0.7-3.6-275.4-48.8z"/>
					</g>
					<g id="&lt;Group&gt;">
						<path id="&lt;Path&gt;" class="s2" d="m1072.4 1100.5l275.4 48.8 0.6-3.6-275.3-48.8z"/>
					</g>
				</g>
				<g id="&lt;Group&gt;">
					<g id="&lt;Group&gt;">
						<path id="&lt;Path&gt;" class="s3" d="m1016.4 1214l351.5 92.5 130-494.1-351.4-92.5z"/>
					</g>
					<g id="&lt;Group&gt;">
						<path id="&lt;Path&gt;" class="s4" d="m1230.1 798.1l156.9 41.3 1-3.5-157-41.3z"/>
					</g>
					<g id="&lt;Group&gt;">
						<path id="&lt;Path&gt;" class="s4" d="m1199.5 780.5l222.9 58.6 0.9-3.5-222.9-58.7z"/>
					</g>
					<g id="&lt;Group&gt;">
						<path id="&lt;Path&gt;" class="s4" d="m1163.6 820.1l270.4 71.2 1-3.5-270.4-71.2z"/>
					</g>
					<g id="&lt;Group&gt;">
						<path id="&lt;Path&gt;" class="s4" d="m1159.2 837.1l270.4 71.2 0.9-3.6-270.4-71.1z"/>
					</g>
					<g id="&lt;Group&gt;">
						<path id="&lt;Path&gt;" class="s4" d="m1150.3 871l270.4 71.2 0.9-3.6-270.4-71.1z"/>
					</g>
					<g id="&lt;Group&gt;">
						<path id="&lt;Path&gt;" class="s4" d="m1145.8 887.9l270.4 71.2 0.9-3.5-270.4-71.2z"/>
					</g>
					<g id="&lt;Group&gt;">
						<path id="&lt;Path&gt;" class="s4" d="m1141.3 904.9l270.4 71.1 1-3.5-270.4-71.1z"/>
					</g>
					<g id="&lt;Group&gt;">
						<path id="&lt;Path&gt;" class="s4" d="m1121.7 979.4l270.4 71.2 1-3.5-270.5-71.2z"/>
					</g>
					<g id="&lt;Group&gt;">
						<path id="&lt;Path&gt;" class="s4" d="m1117.1 997l270.4 71.2 0.9-3.6-270.4-71.1z"/>
					</g>
					<g id="&lt;Group&gt;">
						<path id="&lt;Path&gt;" class="s4" d="m1112.5 1014.6l270.4 71.1 0.9-3.5-270.4-71.2z"/>
					</g>
					<g id="&lt;Group&gt;">
						<path id="&lt;Path&gt;" class="s4" d="m1107.8 1032.1l270.5 71.2 0.9-3.5-270.4-71.2z"/>
					</g>
					<g id="&lt;Group&gt;">
						<path id="&lt;Path&gt;" class="s2" d="m1103.2 1049.7l270.4 71.2 1-3.6-270.5-71.1z"/>
					</g>
					<g id="&lt;Group&gt;">
						<path id="&lt;Path&gt;" class="s2" d="m1098.6 1067.3l270.4 71.1 0.9-3.5-270.4-71.1z"/>
					</g>
					<g id="&lt;Group&gt;">
						<path id="&lt;Path&gt;" class="s2" d="m1094 1084.9l270.4 71.1 0.9-3.5-270.4-71.2z"/>
					</g>
				</g>
				<g id="&lt;Group&gt;">
					<path id="&lt;Path&gt;" class="s5" d="m1098.6 1285.5l376.3 151.1 219.4-546.4-316.2-195.1c-17.7-10.9-41.1-3.3-48.9 16.1z"/>
				</g>
			</g>
			<g id="&lt;Group&gt;">
				<g id="&lt;Group&gt;">
					<path id="&lt;Path&gt;" class="s6" d="m1551.5 1228.1l68.1-19.9c12-49.7 19.2-91.9 19.2-91.9-82.2 3.3-145.5 28.5-194.2 64.3l-10.1 81-21.7-54.3c-115 109.6-128.4 278.8-128.4 278.8 0 0 231.3-90.5 275.4-127.8 17.1-14.4 32.7-53.8 45.5-96.7-23-12.4-53.8-33.5-53.8-33.5z"/>
				</g>
				<g id="&lt;Group&gt;">
					<path id="&lt;Path&gt;" class="s7" d="m1638.8 1116.3c0 0-270.7 212.4-354.4 369.8 0 0 231.3-90.5 275.4-127.8 17.1-14.4 32.7-53.8 45.5-96.7-23-12.4-53.8-33.5-53.8-33.5l68.1-19.9c12-49.7 19.2-91.9 19.2-91.9z"/>
				</g>
				<g id="&lt;Group&gt;">
					<path id="&lt;Path&gt;" class="s6" d="m1685.3 1324.7c-48-13.8-93.3-15.9-134.9-10.2-7.8 17.9-17.6 39-17.6 39l-10.9-33.9c-156.2 35.2-255.8 173.5-255.8 173.5 104.7 31.9 185.2 26.6 246.3 4.5 0.4-13 0.7-32.4 0.7-32.4l18.6 24.6c28.7-12.9 52.5-29.4 72.2-47.1-9.7-12.7-20.3-27.4-20.3-27.4l38.4 9.8c46.4-49.3 63.3-100.4 63.3-100.4z"/>
				</g>
				<g id="&lt;Group&gt;">
					<path id="&lt;Path&gt;" class="s7" d="m1512.4 1497.6c0.4-13 0.7-32.4 0.7-32.4l18.6 24.6c28.7-12.9 52.5-29.4 72.2-47.1-9.7-12.7-20.3-27.4-20.3-27.4l38.4 9.8c46.4-49.3 63.3-100.4 63.3-100.4-185.5 28.4-419.2 168.4-419.2 168.4 104.7 31.9 185.2 26.6 246.3 4.5z"/>
				</g>
			</g>
			<g id="&lt;Group&gt;">
				<g id="&lt;Group&gt;">
					<path id="&lt;Path&gt;" class="s6" d="m503.3 910.3h-25.7c4.2-2.9 9.4-4.6 15.2-4.6h644.5c33.8 0 61.1 24.3 61.1 54.1v34.4c0 29.9-27.3 54.2-61.1 54.2l-637.3-0.2z"/>
				</g>
				<g id="&lt;Group&gt;">
					<path id="&lt;Path&gt;" class="s5" d="m1144.3 994.2v-34.4c0-29.8-27.3-54.1-61-54.1h13.8c33.7 0 61.1 24.3 61.1 54.1v34.4c0 29.9-27.4 54.2-61.1 54.2h-13.7c33.7-0.1 60.9-24.3 60.9-54.2z"/>
				</g>
				<g id="&lt;Group&gt;">
					<path id="&lt;Path&gt;" class="s5" d="m993.4 994.2v-34.4c0-29.8-27.4-54.1-61.1-54.1h13.8c33.8 0 61.1 24.3 61.1 54.1v34.4c0 29.9-27.3 54.2-61.1 54.2h-13.6c33.6-0.1 60.9-24.3 60.9-54.2z"/>
				</g>
				<g id="&lt;Group&gt;">
					<path id="&lt;Path&gt;" class="s7" d="m869.2 905.9c32.3 0 58.4 23.1 58.4 51.7v38.9c0 28.6-26.1 51.7-58.4 51.7h-401.2v-8.7h1.6l102-8.5 20.7-71.7c0 0-39.8-39.6-42.4-40.7-2.6-1-80.3-4.1-80.3-4.1h-1.6v-8.6z"/>
				</g>
				<g id="&lt;Group&gt;">
					<path id="&lt;Path&gt;" class="s3" d="m494 976.8c0-41.9-24.4-62.3-24.4-62.3h391.4c29.6 0 53.6 21.3 53.6 47.6v29.9c0 26.3-24 47.5-53.6 47.5h-391.4c0 0 24.4-9.9 24.4-62.7z"/>
				</g>
				<g id="&lt;Group&gt;" style="mix-blend-mode: multiply">
					<path id="&lt;Path&gt;" class="s8" d="m914.6 962.1v29.9c0 3.9-0.5 7.7-1.5 11.4-13.2-28.6-38.5-56.2-86.7-65.1-112.5-20.7-356.8-23.8-356.8-23.8h391.4c29.6 0 53.6 21.3 53.6 47.6z"/>
				</g>
			</g>
			<g id="&lt;Group&gt;">
				<g id="&lt;Group&gt;">
					<path id="&lt;Path&gt;" class="s9" d="m513.9 1195.4h-29.1c4.7-3.6 10.7-5.7 17.2-5.7h729.5c38.2 0 69.1 30.3 69.1 67.7v43c0 37.5-30.9 67.8-69.1 67.8l-721.3-0.2z"/>
				</g>
				<g id="&lt;Group&gt;">
					<path id="&lt;Path&gt;" class="s10" d="m928.1 1189.8c36.5 0 66.1 29 66.1 64.8v48.6c0 35.8-29.6 64.8-66.1 64.8h-454.2v-10.8h1.9l115.5-10.8 23.3-89.7c0 0-45-49.6-48-50.9-2.9-1.3-90.8-5.1-90.8-5.1l-1.9-0.1v-10.8z"/>
				</g>
				<g id="&lt;Group&gt;">
					<path id="&lt;Path&gt;" class="s3" d="m503.4 1278.6c0-52.5-27.7-77.9-27.7-77.9h443.1c33.5 0 60.7 26.6 60.7 59.5v37.4c0 32.9-27.2 59.6-60.7 59.6h-443.1c0 0 27.7-12.5 27.7-78.6z"/>
				</g>
				<g id="&lt;Group&gt;" style="mix-blend-mode: multiply">
					<path id="&lt;Path&gt;" class="s8" d="m979.5 1260.2v37.4c0 5-0.6 9.7-1.8 14.3-14.9-35.8-43.6-70.3-98.1-81.4-127.3-26-403.9-29.8-403.9-29.8h443.1c33.5 0 60.7 26.6 60.7 59.5z"/>
				</g>
			</g>
			<g id="&lt;Group&gt;">
				<g id="&lt;Group&gt;">
					<path id="&lt;Path&gt;" class="s11" d="m1324.7 1052.6h29.1c-4.8-2.9-10.7-4.6-17.2-4.6h-729.8c-38.2 0-69.2 24.1-69.2 53.8v34.1c0 29.7 31 53.8 69.2 53.8l721.6-0.2z"/>
				</g>
				<g id="&lt;Group&gt;">
					<path id="&lt;Path&gt;" class="s12" d="m910.3 1048.1c-36.5 0-66.1 23-66.1 51.4v38.6c0 28.4 29.6 51.4 66.1 51.4h454.4v-8.6h-1.9l-115.5-8.5-23.4-71.2c0 0 45.1-39.4 48-40.4 3-1 90.9-4.1 90.9-4.1h1.9v-8.6z"/>
				</g>
				<g id="&lt;Group&gt;">
					<path id="&lt;Path&gt;" class="s3" d="m1335.2 1118.6c0-41.7 27.7-61.8 27.7-61.8h-443.3c-33.5 0-60.7 21.1-60.7 47.2v29.7c0 26.1 27.2 47.2 60.7 47.2h443.3c0 0-27.7-9.9-27.7-62.3z"/>
				</g>
				<g id="&lt;Group&gt;" style="mix-blend-mode: multiply">
					<path id="&lt;Path&gt;" class="s8" d="m858.9 1104v29.7c0 3.9 0.6 7.7 1.8 11.3 14.9-28.4 43.6-55.8 98.1-64.6 127.4-20.6 404.1-23.6 404.1-23.6h-443.3c-33.5 0-60.7 21.1-60.7 47.2z"/>
				</g>
				<g id="&lt;Group&gt;" style="opacity: .5">
					<path id="&lt;Path&gt;" class="s12" d="m671.3 1135.9v-34.1c0-29.7 31-53.8 69.2-53.8h-69.3c-38.2 0-69.2 24.1-69.2 53.8v34.1c0 29.7 31 53.8 69.2 53.8l68.4-0.1c-37.8-0.3-68.3-24.3-68.3-53.7z"/>
				</g>
			</g>
			<g id="&lt;Group&gt;">
				<path id="&lt;Path&gt;" class="s5" d="m1372.7 1373.7h36.6c-6-3.2-13.5-5.1-21.6-5.1h-915c-47.8 0-86.6 26.9-86.6 60v38.2c0 33.1 38.8 60 86.6 60l904.7-0.2z"/>
			</g>
			<g id="&lt;Group&gt;">
				<path id="&lt;Path&gt;" class="s0" d="m853.3 1368.7c-45.8 0-82.9 25.7-82.9 57.4v43.2c0 31.7 37.1 57.4 82.9 57.4h569.6v-9.6h-2.4l-144.8-9.6-29.2-79.5c0 0 56.5-44 60.1-45.1 3.7-1.2 113.9-4.6 113.9-4.6h2.4v-9.6z"/>
			</g>
			<g id="&lt;Group&gt;">
				<path id="&lt;Path&gt;" class="s3" d="m1385.9 1447.4c0-46.5 34.7-69.1 34.7-69.1h-555.6c-42.1 0-76.2 23.7-76.2 52.8v33.2c0 29.1 34.1 52.8 76.2 52.8h555.6c0 0-34.7-11.1-34.7-69.7z"/>
			</g>
			<g id="&lt;Group&gt;" style="mix-blend-mode: multiply">
				<path id="&lt;Path&gt;" class="s8" d="m788.8 1431.1v33.2c0 4.4 0.8 8.6 2.3 12.6 18.7-31.7 54.6-62.3 123-72.2 159.6-23 506.5-26.4 506.5-26.4h-555.6c-42.1 0-76.2 23.7-76.2 52.8z"/>
			</g>
			<g id="&lt;Group&gt;">
				<path id="&lt;Path&gt;" class="s4" d="m285.3 1546.2h1325.4c4.3 0 7.8-3.5 7.8-7.8v-1.8c0-4.3-3.5-7.9-7.8-7.9h-1325.4c-4.4 0-7.9 3.6-7.9 7.9v1.8c0 4.3 3.5 7.8 7.9 7.8z"/>
			</g>
			<g id="&lt;Group&gt;">
				<path id="&lt;Path&gt;" class="s0" d="m1627.6 950.5l-256.1-146.5-34.6 68.5 262.1 138.7z"/>
			</g>
			<g id="&lt;Group&gt;">
				<path id="&lt;Path&gt;" class="s4" d="m1417.1 420.9c0 0 2.1 19.9 17.8 21.3-15.7 1.4-17.8 21.3-17.8 21.3 0 0-2-19.9-17.7-21.3 15.7-1.4 17.7-21.3 17.7-21.3z"/>
			</g>
			<g id="&lt;Group&gt;">
				<path id="&lt;Path&gt;" class="s6" d="m1694.3 1001.7c0 0 3 29.9 26.6 31.9-23.6 2.1-26.6 32-26.6 32 0 0-3-29.9-26.6-32 23.6-2 26.6-31.9 26.6-31.9z"/>
			</g>
			<g id="&lt;Group&gt;">
				<path id="&lt;Path&gt;" class="s5" d="m1620.4 258c0 0 2.7 26.5 23.6 28.4-20.9 1.8-23.6 28.3-23.6 28.3 0 0-2.7-26.5-23.7-28.3 21-1.9 23.7-28.4 23.7-28.4z"/>
			</g>
			<g id="&lt;Group&gt;">
				<path id="&lt;Path&gt;" class="s5" d="m373.9 1119.4c0 0 1.8 17.8 15.9 19-14.1 1.3-15.9 19.1-15.9 19.1 0 0-1.8-17.8-15.9-19.1 14.1-1.2 15.9-19 15.9-19z"/>
			</g>
			<g id="&lt;Group&gt;">
				<path id="&lt;Path&gt;" class="s6" d="m1526.3 617.4c0 0 1.8 17.9 15.8 19.1-14 1.2-15.8 19-15.8 19 0 0-1.8-17.8-15.9-19 14.1-1.2 15.9-19.1 15.9-19.1z"/>
			</g>
			<g id="&lt;Group&gt;">
				<path id="&lt;Path&gt;" class="s6" d="m1281.5 149.7c0 0 1.8 17.8 15.8 19.1-14 1.2-15.8 19-15.8 19 0 0-1.8-17.8-15.9-19 14.1-1.3 15.9-19.1 15.9-19.1z"/>
			</g>
			<g id="&lt;Group&gt;">
				<path id="&lt;Path&gt;" class="s6" d="m544.4 376.5c0 0 2.3 23.4 20.7 25-18.4 1.6-20.7 24.9-20.7 24.9 0 0-2.4-23.3-20.8-24.9 18.4-1.6 20.8-25 20.8-25z"/>
			</g>
			<g id="&lt;Group&gt;">
				<path id="&lt;Path&gt;" class="s13" d="m386.1 780.4c0 0 3.4 34.2 30.4 36.6-27 2.3-30.4 36.5-30.4 36.5 0 0-3.5-34.2-30.5-36.5 27-2.4 30.5-36.6 30.5-36.6z"/>
			</g>
			<g id="&lt;Group&gt;">
				<path id="&lt;Path&gt;" class="s6" d="m1210.4 470.1c0 0 2.7 26.5 23.6 28.3-20.9 1.9-23.6 28.4-23.6 28.4 0 0-2.7-26.5-23.6-28.4 20.9-1.8 23.6-28.3 23.6-28.3z"/>
			</g>
			<g id="&lt;Group&gt;">
				<path id="&lt;Path&gt;" class="s4" d="m1717.9 756.5c0 0 2.7 26.6 23.7 28.4-21 1.8-23.7 28.4-23.7 28.4 0 0-2.7-26.6-23.6-28.4 20.9-1.8 23.6-28.4 23.6-28.4z"/>
			</g>
			<g id="&lt;Group&gt;">
				<path id="&lt;Path&gt;" class="s4" d="m402.9 212c0 0 1.9 18.9 16.8 20.2-14.9 1.3-16.8 20.2-16.8 20.2 0 0-1.9-18.9-16.8-20.2 14.9-1.3 16.8-20.2 16.8-20.2z"/>
			</g>
			<g id="&lt;Group&gt;">
				<path id="&lt;Path&gt;" class="s4" d="m602 679.3c0 0 3.1 30.3 27 32.4-23.9 2.1-27 32.3-27 32.3 0 0-3-30.2-26.9-32.3 23.9-2.1 26.9-32.4 26.9-32.4z"/>
			</g>
			<g id="&lt;Group&gt;">
				<path id="&lt;Path&gt;" class="s5" d="m337 482.2c0 0 2.1 24 18.4 25.7-16.3 1.6-18.4 25.6-18.4 25.6 0 0-2.1-24-18.4-25.6 16.3-1.7 18.4-25.7 18.4-25.7z"/>
			</g>
			<g id="&lt;Group&gt;">
				<path id="&lt;Path&gt;" class="s5" d="m727.6 98.2c0 0 2.1 24.1 18.5 25.8-16.4 1.6-18.5 25.7-18.5 25.7 0 0-2.1-24.1-18.5-25.7 16.4-1.7 18.5-25.8 18.5-25.8z"/>
			</g>
			<g id="&lt;Group&gt;">
				<g id="&lt;Group&gt;">
					<g id="&lt;Group&gt;">
						<path id="&lt;Path&gt;" class="s9" d="m1010 889.1v14.6c0 1.2 0.9 2.2 2.1 2.2h34.1c2.4 0 3.4-3.3 1.3-4.6l-19.1-12.2c0 0-7.5 5.5-18.4 0z"/>
					</g>
					<path id="&lt;Path&gt;" class="s14" d="m943.2 271.5c-0.5 0.2-1-0.2-0.9-0.7 0.8-4.1 3.4-16.8 2.5-17.3-1.2-0.5-3.8 10.8-5 10.9-1.2 0.2 1.6-10.8 0.3-11.2-1.3-0.4-3.6 9.8-4.2 9.8-0.6 0 0.5-9.9-0.2-10.6-0.6-0.7-3.1 9.8-3.8 10-0.8 0.3-1.5-7.5-2.1-7.5-0.7 0-1.1-0.1-4.6 17.8 0 0-0.2 6.6-1.4 8.1l2.6 5.3 8.1 0.3c0 0 17.4-15.8 17.2-16.8-0.1-0.9-0.9-1.1-8.5 1.9z"/>
					<path id="&lt;Path&gt;" class="s14" d="m1025.8 275.5c0.3 0.4 1 0.2 1.1-0.3 1.1-4 4.6-16.5 5.7-16.5 1.3 0.1-1.6 11.4-0.6 12 1 0.7 3.5-10.4 4.9-10.1 1.3 0.3-1.3 10.3-0.8 10.6 0.6 0.3 4.1-9 5-9.3 0.9-0.3-1.6 10.1-1.1 10.7 0.5 0.5 4.7-6.1 5.3-5.8 0.6 0.3 1.1 0.4-4.1 17.9 0 0-2.8 6-2.4 7.9l-4.7 3.5-7.3-3.4c0 0-8.3-22-7.8-22.8 0.6-0.7 1.3-0.6 6.8 5.6z"/>
					<g id="&lt;Group&gt;">
						<path id="&lt;Path&gt;" class="s14" d="m962 419.1l0.1 30.7-29.8-4.6 5-34.5z"/>
					</g>
					<g id="&lt;Group&gt;" style="opacity: .6">
						<path id="&lt;Path&gt;" class="s15" d="m935 426.6l2.3-15.9 24.7 11.4 0.1 6c-6 1.5-17.2 2.8-27.1-1.5z"/>
					</g>
					<g id="&lt;Group&gt;">
						<path id="&lt;Path&gt;" class="s9" d="m908.2 887.5v16c0 1.3-1.1 2.4-2.4 2.4h-37.4c-2.7 0-3.8-3.6-1.5-5l21-13.4c0 0 8.2 6 20.3 0z"/>
					</g>
					<g id="&lt;Group&gt;">
						<g id="&lt;Group&gt;">
							<g id="&lt;Group&gt;">
								<path id="&lt;Path&gt;" class="s16" d="m874 616c0.1-3.4-8.8 6.6-8.7 3.9 3.5-56.7 114.4-9.2 114.4-9.2l27.1 19.9 30.5 263c0 0-16.6 4.8-27.5 0.9l-67.6-225.4-8.4-3.2c0 0-37-25.8-59.8-49.9z"/>
							</g>
						</g>
					</g>
					<g id="&lt;Group&gt;">
						<g id="&lt;Group&gt;">
							<g id="&lt;Group&gt;">
								<path id="&lt;Path&gt;" class="s17" d="m865.2 622.2q0 1-0.1 2.1 0.1-1.1 0.1-2.1z"/>
							</g>
							<g id="&lt;Group&gt;">
								<path id="&lt;Path&gt;" class="s17" d="m865.1 624.3q0 1.1 0 2.2 0-1.1 0-2.2z"/>
							</g>
							<g id="&lt;Group&gt;">
								<path id="&lt;Path&gt;" class="s17" d="m865 626.8q0 1.1 0 2.3 0-1.2 0-2.3z"/>
							</g>
							<g id="&lt;Group&gt;">
								<path id="&lt;Path&gt;" class="s17" d="m865.3 619.9q0 0.9-0.1 1.9 0.1-1 0.1-1.9z"/>
							</g>
							<g id="&lt;Group&gt;">
								<path id="&lt;Path&gt;" class="s16" d="m865.4 607c22.8 24.1 68.4 58.9 68.4 58.9l8.4 3.2-8.4-3.2-25.7 227.7c0 0-18.3 3.5-28.8-2.2 0 0-15.4-216.7-13.9-284.4z"/>
							</g>
							<g id="&lt;Group&gt;">
								<path id="&lt;Path&gt;" class="s17" d="m1037.3 893.6c0 0-7.1 2.1-15.1 2.4 8-0.3 15.1-2.4 15.1-2.4z"/>
							</g>
							<g id="&lt;Group&gt;">
								<path id="&lt;Path&gt;" class="s17" d="m1013 895.4q1.1 0.2 2.3 0.3-1.2-0.1-2.3-0.3z"/>
							</g>
							<g id="&lt;Group&gt;">
								<path id="&lt;Path&gt;" class="s17" d="m1022.2 896c-1.9 0-3.9 0-5.8-0.2 1.9 0.2 3.9 0.2 5.8 0.2z"/>
							</g>
						</g>
					</g>
					<g id="&lt;Group&gt;">
						<path id="&lt;Path&gt;" class="s16" d="m1006.8 630.6l4.3 37.5c-11.5 4.5-39.6 9.3-60.8-37.1-6.7-14.6-8.4-25.1-7.2-32.7 20.3 5.4 36.6 12.4 36.6 12.4z"/>
					</g>
					<g id="&lt;Group&gt;">
						<path id="&lt;Path&gt;" class="s3" d="m905 477.4c1.3 0 20.5-43.5 20.5-43.5 16.5 11.5 38.8 3.5 38.8 3.5 0 0 89.7 164.2 29.5 189.8-60.2 25.6-116.9-5.6-116.9-5.6 0 0-12.8-33.3-12.8-34.5 0-1.3 39.7-109.7 40.9-109.7z"/>
					</g>
					<g id="&lt;Group&gt;">
						<path id="&lt;Path&gt;" class="s18" d="m1022 293c0 0 3.9 77.9-3.4 92.2-24.3 47.4-54.3 52.2-54.3 52.2 0 0-10.4 165.7-1.9 205.4 0 0 28.4 8.7 70.2-10.9 0 0-32-128.5-30.3-144.7 0 0 51.2-45.7 53-99.4 1.7-53.8-12.4-101.6-12.4-101.6z"/>
					</g>
					<g id="&lt;Group&gt;">
						<path id="&lt;Path&gt;" class="s18" d="m883.9 636.8c0 0 3.2-61.7 17.3-120.1 14.1-58.5 24.3-82.8 24.3-82.8-18.9-20.8-15.7-39.6-14.1-64 2-28.2 29.5-84.5 29.5-84.5l-18.6-12.2c-88.9 106.9-39.7 192-39.7 192 0 0-33.2 117.8-37.7 153.7 0 0 17.7 10.2 39 17.9z"/>
					</g>
					<path id="&lt;Path&gt;" class="s10" d="m1001.5 487c-1.1-0.7-2.4-1.9-3.6-3.4-3.8-4.5-5.7-9.6-7.1-15.4 0.8 2.5 3 9.6 7.6 15 2.1 2.3 3.2 3.1 4.2 3.8q-0.3 0.2-0.3 0.2 0 0.2 0 0.3c-1.2 0.3-3.3 0.4-6.8-1.5-2.1-1.2-3.8-2.6-5.6-4.1 1.1 0.8 3.6 2.6 5.9 3.6 1.6 0.8 3.9 1.7 5.7 1.5z"/>
					<path id="&lt;Path&gt;" class="s10" d="m883.3 464.8c1.5-0.9 2.9-2.3 4.1-3.7 3.8-4.4 5.8-9.7 7.6-15-1.3 5.7-3.3 10.9-7.1 15.4-1.2 1.5-2.5 2.7-3.6 3.4 0.9 0.1 1.9-0.1 2.6-0.2q1.6-0.5 3.2-1.2c2.1-1 4.2-2.5 5.9-3.7-1.6 1.3-3.5 2.9-5.7 4.1q-1.6 0.8-3.3 1.3c-1.2 0.3-2.3 0.6-3.6 0.2l-0.7-0.2z"/>
					<path id="&lt;Path&gt;" class="s19" d="m919.3 356.6l-1.8 21 3.3 2.1 6.1-25.6z"/>
					<g id="&lt;Group&gt;">
						<path id="&lt;Path&gt;" class="s20" d="m923.7 375.4c1 4.8-1.4 9.3-5.2 10-3.8 0.7-7.7-2.5-8.6-7.3-0.9-4.8 1.5-9.2 5.3-10 3.8-0.7 7.6 2.6 8.5 7.3z"/>
					</g>
					<g id="&lt;Group&gt;">
						<path id="&lt;Path&gt;" class="s14" d="m918.3 394.9c-1-6.1-0.9-12.3-0.3-17.7q0.2-1.7 0.2-3.4c0.1-4.7 1.1-9.5 3.1-14.2 6.6-15.1 22.6-24.3 38.9-22.2 22.1 2.7 36.6 23.4 32.4 44.6 2.5-0.8 5.2-0.6 7.2 0.9 4 2.8 4.4 9.1 0.8 14.1-3.5 5-9.6 6.7-13.6 3.9q-0.8-0.6-1.4-1.4c-5.4 17.7-23 28.7-40.7 24.8-13.4-2.9-24.4-14-26.6-29.4z"/>
					</g>
					<path id="&lt;Path&gt;" class="s21" d="m959 378.1c-0.8 2.1 0.7 4.5 3.1 4.5 1.3 0 2.5-0.9 3-2.1 0.9-2.1-0.7-4.5-3.1-4.5-1.3 0-2.5 0.8-3 2.1z"/>
					<path id="&lt;Path&gt;" class="s21" d="m931.1 373.9c-0.9 2.2 0.7 4.5 3.1 4.5 1.3 0 2.5-0.8 3-2 0.9-2.2-0.7-4.6-3.1-4.6-1.3 0-2.5 0.9-3 2.1z"/>
					<path id="&lt;Path&gt;" class="s20" d="m954.7 401c-1.8 0.9-3.7 1.5-5.3 1.8-1.8 0.3-3.7 0.5-5.5 0.2-1.8-0.2-3.5-0.9-5.1-1.8-1.6-0.9-3-2.2-4.3-3.5 1.3 1.8 2.5 2.9 4 3.9 1.6 1.1 3.3 1.7 5.3 2.1 1.9 0.2 3.9 0.1 5.7-0.4 1.9-0.5 3.6-1.2 5.2-2.3z"/>
					<path id="&lt;Path&gt;" class="s19" d="m956.4 371.4c1.7-0.3 3.3-0.5 4.9-0.5q2.3-0.1 4.5 0.5c1.5 0.4 2.9 1 4.2 1.8 1.8 1.1 3.1 2.3 4 2.9-0.6-1.5-1.5-3.3-2.9-4.3-1.2-1.3-2.9-2.2-4.7-2.7-1.7-0.5-3.6-0.5-5.4-0.1-1.7 0.5-3.4 1.2-4.6 2.4z"/>
					<path id="&lt;Path&gt;" class="s19" d="m943.3 369.3c-0.8-1.6-2.1-2.8-3.6-3.8-1.5-0.9-3.3-1.5-5.2-1.6-1.8-0.1-3.7 0.2-5.3 1-1.6 0.5-3.1 1.9-4.1 3.2 1.2-0.3 2.6-1.1 4.7-1.5 1.5-0.4 3.1-0.4 4.6-0.4q2.2 0.2 4.5 1c1.4 0.5 2.9 1.2 4.4 2.1z"/>
					<path id="&lt;Path&gt;" class="s20" d="m949 373.4c-1.5 1.4-2.9 3-4.3 4.6-1.3 1.7-2.5 3.4-3.6 5.2-0.7 1.1-1.5 2.5-1.6 3.8-0.2 0.7-0.1 1.3 1.1 2.5 0.7 0.8 1.6 1.4 2.4 2q1.3 0.9 2.8 1.6c-1.6-1.4-3.2-2.7-4.5-4.3-0.2-0.2-0.6-0.8-0.7-1.1-0.1-0.2 0-0.8 0.2-1.2 0.4-0.9 0.8-1.8 1.4-2.7 1-1.7 2.2-3.4 3.3-5.2 1.2-1.7 2.4-3.4 3.5-5.2z"/>
					<path id="&lt;Path&gt;" class="s19" d="m923.2 334.1c0 0-11.1-2.1 2.5-8.8 13.7-6.7 47.1-10.6 64.5 4.4 0 0 5.9-7.6 11.2-4.3 5.2 3.4-5.5 7-5.5 7 0 0 7.3 1.4 8.8 5.5 1 3.1-3.5 2.2-5.9 1.5 4 1.6 15.8 12.8 0.5 43.1-2.7-1.2-20.2-26.2-20.2-26.2 0 0-35.2 11.6-28.8 2 0 0-41 10.3-31.1-8.3 0 0-15.1-2.3 4-15.9z"/>
					<path id="&lt;Path&gt;" class="s19" d="m999.3 382.5c0 0-2.7-2-6.7-0.5-4.1 1.5-6.7 10.6-6.7 10.6 0 0-13.3 10.9-6.8-36.5 6.4-46.6 15.2 7.8 15.2 7.8z"/>
				</g>
			</g>
			<g id="&lt;Group&gt;">
				<g id="&lt;Group&gt;">
					<path id="&lt;Path&gt;" class="s5" d="m1018.6 236.8l-60.7-4.3c-3.1-0.3-5.4-2.9-5.2-6 0.3-3.1 2.9-5.4 6-5.2l60.7 4.4c3.1 0.2 5.4 2.8 5.2 5.9-0.2 3.1-2.9 5.4-6 5.2z"/>
				</g>
				<g id="&lt;Group&gt;">
					<path id="&lt;Path&gt;" class="s5" d="m1001.2 53.9l21.2 52 54.9 12-43 36.3 5.6 55.9-47.8-29.6-51.4 22.5 13.4-54.5-37.4-42 56.1-4.1z"/>
				</g>
				<g id="&lt;Group&gt;">
					<path id="&lt;Path&gt;" class="s0" d="m1001.2 53.9l-5.5 76.3 26.7-24.3z"/>
					<path id="&lt;Path&gt;" class="s0" d="m1077.3 117.9l-81.6 12.3 38.6 24z"/>
					<path id="&lt;Path&gt;" class="s0" d="m995.7 130.2l-22.9-27.8-56.1 4.1z"/>
					<path id="&lt;Path&gt;" class="s0" d="m940.7 203l55-72.8-41.6 18.3z"/>
					<path id="&lt;Path&gt;" class="s0" d="m1039.9 210.1l-44.2-79.9-3.6 50.3z"/>
				</g>
				<path id="&lt;Path&gt;" class="s10" d="m1032 271.5l-92.2-6.6 2.3-32.4 92.2 6.6z"/>
				<path id="&lt;Path&gt;" class="s9" d="m940 261.4l-0.2 3.5 92.2 6.6 0.3-3.5z"/>
				<path id="&lt;Path&gt;" class="s9" d="m942.1 231.6l-0.2 3.5 92.2 6.6 0.3-3.5z"/>
				<path id="&lt;Path&gt;" class="s0" d="m1033.5 240.6l-90.9-6.4c-2.3-0.2-4-2.2-3.8-4.5 0.1-2.3 2.1-4 4.4-3.9l90.9 6.5c2.3 0.2 4.1 2.2 3.9 4.5-0.2 2.3-2.2 4-4.5 3.8z"/>
				<path id="&lt;Path&gt;" class="s10" d="m1033.2 279.1l-97-6.9c-0.6 0-1-0.6-1-1.2l0.4-6.1c0.1-0.6 0.6-1.1 1.2-1l97 6.9c0.6 0 1.1 0.6 1 1.2l-0.4 6.1c0 0.6-0.6 1.1-1.2 1z"/>
				<g id="&lt;Group&gt;">
					<path id="&lt;Path&gt;" class="s5" d="m1003.7 260.9l-35.1-2.5c-4.4-0.3-7.7-4.1-7.4-8.5 0.4-4.3 4.1-7.6 8.5-7.3l35.1 2.5c4.3 0.3 7.6 4.1 7.3 8.5-0.3 4.3-4.1 7.6-8.4 7.3z"/>
				</g>
				<path id="&lt;Path&gt;" class="s0" d="m968.8 255.8c-3.2-0.3-5.5-3.2-4.8-6.3 0.5-2.7 3-4.4 5.7-4.3l34.7 2.5c2.7 0.2 5 2.3 5.1 5 0.2 3.2-2.5 5.8-5.7 5.6z"/>
				<g id="&lt;Group&gt;">
					<path id="&lt;Path&gt;" class="s5" d="m998.6 227.6l-19.5-1.4 0.1-1.8c0.5-7.4 1.3-22.7 12.9-43.9 8.8 24.3 7.1 37.9 6.6 45.2z"/>
				</g>
			</g>
		</g>
	</g>
</svg>