<svg version="1.2" xmlns="http://www.w3.org/2000/svg" viewBox="0 0 1686 1620" width="1000" height="961">
	<title>45226-ai</title>
	<style>
		.s0 { fill: #8dcbed } 
		.s1 { fill: #526fb4 } 
		.s2 { fill: #88aad8 } 
		.s3 { fill: #4862a0 } 
		.s4 { fill: #4f6cae } 
		.s5 { fill: #ebb1b8 } 
		.s6 { fill: #c7202e } 
		.s7 { fill: #001c58 } 
		.s8 { fill: #310c2e } 
		.s9 { fill: #568cc9 } 
		.s10 { fill: #fefefe } 
		.s11 { fill: #581953 } 
		.s12 { fill: #4765a3 } 
		.s13 { fill: #e7968a } 
		.s14 { fill: #ec4f61 } 
		.s15 { fill: #cc4453 } 
		.s16 { fill: #e86b62 } 
		.s17 { fill: #3e0e3a } 
		.s18 { fill: #354c7e } 
		.s19 { fill: #f8a55b } 
		.s20 { fill: #fdc361 } 
		.s21 { fill: #fed585 } 
		.s22 { fill: #ffd965 } 
		.s23 { fill: #f9a954 } 
		.s24 { opacity: .4;fill: #fff4cd } 
	</style>
	<g id="_Artboards_">
	</g>
	<g id="Capa 1">
		<g id="&lt;Group&gt;">
		</g>
		<g id="&lt;Group&gt;" style="opacity: .6;mix-blend-mode: multiply">
			<g id="&lt;Group&gt;">
				<g id="&lt;Group&gt;">
					<path id="&lt;Path&gt;" class="s0" d="m188.7 159.2c-27.6 0-28.1-7-52.4-14.9-29-9.5-38.5-7.6-65.2 2-7.1 2.5-27.7 0.4-29.8 12.4-2.1 11.9 19.3 15.9 19.8 24.6 1.1 20.2-23.4 4.2-30.3 13.1-11.2 14.2 16.6 17.5 24.4 16.9 0.2 2.6 0.2 4.8-0.1 7.4-15.8 4.3-29.6 6.8-23.7 26.5 3.4 11.3 17.3 32.1 29.7 22.3 7.3 25.4-29.2 13.7-33.5 31.7 12.3-1.2 35.2-17.8 46.4-23.4 16.8-8.4 23.5-20.1 33.7-34.9 3.4 3.6 5.5 16.8 10 18.5 11.6 4.4 14.1-11.8 21.7-14.8 20.3-8 17.8 10 32.7 18.2 6.2 3.5 14.5-0.4 20.1 2.5 8.8 4.5 7.5 8.7 13.6 16.1 7.4 9.2 23.7 19.4 16.7 32.2 30.2 3.6 7.4 23.9 5.9 38.1-1 9.2 3.1 21 2.4 30.6-0.9 13.2-2.5 16.3 3.1 28.1 8.2 17.3 17.2 29.5 22.7 47.8 5.1 17.3 13.9 38.8 27.7 50.2 3.3-17.9-14.6-27.9-11.4-47.8 6.8 1.9 14.6 26 18.2 33.4 5.1 10.4 7.5 27.3 18.1 36.6 11.8 10.4 28.7 6 41.3 12.5 6.5 3.4 9 10.4 15 13.2 6.8 3.1 17.8-0.2 23.3 5 11.2 10.7 1.8 26.4 24.4 29.7 16.5 2.5 31.3-12.2 22.3 14.1-4.8 13.9-19.6 18.8-22.2 32.1-2.4 12.5 3.3 34.6 8.1 44.1 8.5 17 22 41.5 39.8 42.7 6.1 15.1-0.4 29.7-1.8 43.7-1.5 15.5 4.4 35.2-0.3 49.9-5.9 18.4-12.7 19.5-7.1 40.3 2 7.7 6.5 5.7 6.1 15-0.3 6-9 12.6-8.7 21.7 0.4 15.3 22.8 50.6 25.3 34.8 3.5-22.5 9.2-40.2 11.1-47.7 1.4-5.6 1-21.2 4.4-28.9 1.3-3.2 9.6-12.2 12-14.2 13.8-11 16.4-10.8 25.8-26.5 1-1.8 8.3-8.9 8.3-11.1 19.6-12.5 28-45.9 44.3-58.8 16.8-13.4 20.6-4.7 26.1-28.6 3.6-15.8 2.9-32 15.5-42.3 9.7-7.9 35.7-12.5 18.8-32.6-8.8-10.4-27.4-2.3-40.8-9.6-5.4-2.9-8.3-9.6-14-12-6.6-2.7-18.7 1.3-24.3-1.9-7.9-4.7-4.3-10.1-7.9-16.2-7.8-13.1 2.1-6.7-12.1-14.1-8.1-4.2-11.6 1.1-19.6-6.5-4.9-4.6-3.9-16.2-10.4-20.2-9.4-5.8-32 1.1-42.3 2.6-9.2 1.3-12.1-0.2-19.7 4.5-6.8 4.1 1.5 11.4-10.6 13.7-2.8 0.5-10.6-8.1-16-8.2-7.5 0-14 3.4-19.7 7.8-5.9-11.4 5.7-25.9-0.2-34.5-10-14.6-18 3.4-16.7-19.9 0.7-12.4 12.9-22.2-8.2-12.1-7.3 3.5-14.9 25.5-29.2 12.1-18.9-17.8 7.1-49.7 22.2-57.4 9.6-4.9 27.1-11 37.8-5 10 5.7 6.5 23.6 21.8 20.3 0.6-11.9-3.6-30.9 0.7-42 5.9-15.1 21-11.4 28.3-21.9 4.2-6.1 0.4-15 3.4-20.2 4.5-7.7 6.9-4.8 12.1-10.1 5.5-5.5 7.7-1.6 12.1-10 2.5-5 2-16 2.3-21.8 11.7-4.1 25-5 26.2 9.4 17.6-6.4 7.4-28.3 1.9-39.4 12.8-19 30.5-6.3 28.2 13.2 12 4.3 36.1 6.1 31.5-13.3-35.9-13.3-2.1-19.4-14.2-44.6-3.6-7.5-15.9-9.9-20.2-17.6-4.6-8.1-3.2-24.6-5.8-34.4-9.8 1.7-13.9 11.5-25.5 9.5-1.3-17.5-23.1-34.7-38.1-17.4-14.9 17.3 2.4 42.3 5.3 57.5-18.7 1.3-15.1 23-31.5 18.2-0.5-9.1-0.2-18.5-0.6-27.6-24.5-1.3-51.1-5.3-44-38.5 3.9-17.8 10.8-10.2 24.2-16 12.7-5.5 10.9-12.3 20.5-19.8 10.7-8.4 18.8 0.1 21.6-18.5 2.1-13.7-2-17.2-14.6-18.6-12.3-1.4-6.6 12.8-21.5-1.4-8.7-8.3-3.7-19.4-19.6-21.8-4.5 9.2-2.5 21.6-0.8 31.5-12.7 4.1-55.2-14.7-60.1-5.5-4.7 27.7-23 5.6-35.7-0.8-14.9-7.5-30.6-7.1-46.6-9.5-17.1-2.5-25.9-1-42.7 1.6-15.8 2.5-17-1.6-30.7 2z"/>
				</g>
				<g id="&lt;Group&gt;">
					<path id="&lt;Path&gt;" class="s0" d="m612.3 50.2c-10.1 6.3-19.5-6.2-31.8-3.6-2.3 0.5-5.3 8.2-10 10.1-4.9 1.9-12.4 2.3-18.2 1.9 1.7 4.2 1.2 11.4 3.4 15.4-4.6-1-10.9 1.6-15.5 0.6-0.5 17.3 3.9 19.9 15.8 25.9 13.3 6.7 19.1 0.8 24.1 18.1 1.8 6.2-1.9 13.9 0.4 20.1 1.9 5 9.7 7.8 11.2 12.5 4.2 12.8-1.3 20.8-3.5 33.7-2.7 15.8 4 75 34.2 56 10.5-6.7 1.8-26.8 8.4-35.5 8.1-10.4 23.5-6.1 35.4-6.8 6.8-21.8 26.8-15 46.2-16 2.6-5.8 3.4-13.3 2.1-19.5-2.3-0.6-5.1-0.6-7.4-0.6 1.3-11.3 32.3-17.2 12.5-35.9 21.7-5.2 26.5-14.3 27.4-34.1 0.6-14.4-5.3-8.2 3.9-20.2 6.5-8.5 20.7-3.3 15.9-19.8-10-0.6-24.3 5.6-34 1.8-12.1-4.7-11.2-18-20.1-23.8-16.8-10.8-45.1 7.6-63.9 8 1 19.3-11.1 16.1-20.3 12.4z"/>
				</g>
				<g id="&lt;Group&gt;">
					<path id="&lt;Path&gt;" class="s0" d="m1496.7 667.3c-10.3 2.6 0.6-19.9-6.3-25.8-23.6-4-22.1 12.6-39.9 20.3-6.5 2.8-22.1-1.7-24.1-0.7-11.8 6.6-3.2 16.2-8.1 26.3-9.3 19.4-29.7 8.2-30.6 37.8-0.5 19.1 12.4 34.4 6.8 54.2 32.3 15 49.8-45 83.6-13.1 4.7 4.4 4.4 13.3 9.1 17.2 6.6 5.5 15.5 3 21.2 6.8 15.8 10.8 10.1 23.8 32.2 11.1 17.9-10.3 45.2-46.3 46.6-65.7 1-15-8.5-26.5-18-36.7-13.3-14.3-20.9-23.6-29.7-41.7-8.4-17.5-10.5-16.4-13.8-5.9-4.7 10.9 0.2 8-3.2 19.6-14.7 8.7-14.1-12.5-20.6-6.5z"/>
				</g>
				<path id="&lt;Path&gt;" class="s0" d="m1663.6 162.8c-3-17.7-22.7-10.7-38.2-12.1-19.8-1.7-23.9-10.4-39.7-18.6-19.3-10-23.6 3.9-42.8 6.5-16.1 2.2-21-9.5-35.7-16.5-19.1-9.2-22.3 0.4-40.6 4.5-18.9 4.3-32.5-4.8-47.9-12.6-18.2-9.3-21.7-5.1-42.1-1-9.1 1.9-38.5 4.8-46.8 1.7-5.3-2-8-8.9-8.2-13.9-24.5-8.7-49.5 4-74.7 2.7-9.4-8-15.4-5.3-29.5-5.3-13.5 0-26.8-14.1-38.8-4.7-22.5 17.4-57.2-5-48 34.8-12.1 1.8-42.1 0.6-46.3-11.4-25.2-3.7-8.6 28.3-17.7 35.4-9.1 7.2-41.6 0.8-54.3 6-15.3 6.1-66.3 58-70.2 35.1 41.8-13.3-19.6-47.8-41.9-44.2-10.4 1.6-31.4 10.4-39.1 17.6-12 11.2-10.7 29.2-19.2 42.7-7.6 12.3-22.1 18.5-18.6 35.7 3.3 15.8 3.4 4.1 12.1 12.1 2.1 1.9 5.8-12.1 8.8-9 3.8 3.8 5.6 15.1 12.1 16.7 9.7 2.4 6-9.4 6.7-16.1 1.8-18.3 5.7-13.2 14.6-27.8 5.1-8.4 4.2-14.7 15.6-17.8 6.4 10.5-2.1 22.7 0.5 33.4 1 4.5 8.7 2.4 10.1 10.5 1.4 7.7-1.9 13.9-6.6 19.7-19.6 24.1-41.6-1.2-61.4 4.8-9.2 16.5-14.7 34.2-30.5 45.4-11.3 8-20.2 1.3-14.6 18.6 3.5 10.8 18.9 5.2 14.2 21.7-12.1 8.9-31.3 0.6-39.4 6.7-8 6-2.4 32.2 5.5 35.5 19.5 8.1 19-20.5 28.2-27.3 11.5-8.4 36.2 6.1 32.5-16.2 29.5-7.3 21.2 32.5 41.6 33.5 0.9-20-3-24.7-13.6-39.9 20 3.8 30.1 32.9 42.2 40.9 11 1.1 12.7-12.4 12.2-22.5 25.9 2.5 14.4-31.5 42.5-25 19.1 4.5 36.8 30.1 5.5 28.8-9.4-0.4-13.9-10.5-24.7-4.7-7.2 3.9-13.2 20.1-7.7 26.4 10.9 12.3 49.7-7.7 40 26.1-22.7 7.3-39 2.4-61.9 2.3-13.2 0-46.7 10.3-46.6-15.6-6.5-3.6-13-3.1-17.8 1.6l4.1-2c-26.1 24-69.7-12.3-81.9 24.7-1 3-3.3 18-4.5 19.6-6.2 8.1-10.2 3.1-17.7 8.4-9.7 6.9-17.2 21.3-19 33.3-1.7 10.9-1.6 37 2.9 48.2 4.8 12 21.8 21.7 29.3 32.6 10.2 15 9.1 21.8 32.6 15.6 15.8-4.1 26.3-15 42.7-6 13 7.1 11.2 20.3 31.7 12.8 7.4 14.9-7.6 27.6 0.4 43.4 3.9 7.9 11.7 9 13.6 18.7 1.8 9.3-3.7 15.5-4 24.1-0.6 20.5 9.8 26.4 17.6 42.6 6.8 13.9 1.9 30 11 43.3 14.9 21.8 51.8 2.5 68.3-11.4 9.2-7.7 16.9-26.9 19.8-35.8 1.9-5.8 1.7-14.8 4-20.7 3.6-9.1 4.8-5.4 12.5-13.5 28-29.7-26.4-43.6 7.5-72.4 15.1-12.7 26.8-19.2 30.2-40.7 3.5-22.5 1.6-33.5-21.8-32.5-16.3-29.7 68.3-35 59.7-71.7-10.4-2-61.7-18.4-33.9-30.4 16.9-7.3 49.2 14.8 64.3 21.6 16.9 7.7 17.8 17.1 30.1 28.7 8.1 7.6 17.8 6.2 24.3 15.9 5.4 8 4.6 22.2 10.3 31.8 5.1 8.7 15.9 21.5 24.3 27.9 6-13.2 0.3-30.7 5.9-43.1 6.9-15.3 31.2-10.3 28-30.3 32.9-8.8 37.8 51 57.7 53.7 0.2-7.1 0.4-14.5 0.6-21.5 18.3-4.9 17.2 22.9 33.5 15.4 15.9-7.4 0.6-30.8-2.1-39.3-13.2-41.5 42.2-13.8 55.3-46.8 5.9-14.8 2-36.3-5.2-47.8-5.7-9.1-25.9-19.1-25.6-30.5 0.5-21.8 24.5-12.5 32.3-2.1 7.9 10.8 3.9 32.7 21.7 31.8 5.4-13.7-7-25.4-3.7-35.8 4.5-14.3 26.8-15.1 33.7-30.2 5.6-12.2 1.9-26.3 3-38.6 1.5-18 5.2-17.9-12.5-25.7-12.4-5.4-28.9-3.7-16.1-24.1 7.2-11.5 24.9-13.1 36.2-17.6 16-6.3 23.3-7.2 39.8-6 8.4 0.6 5.1 7.4 15 2 6-3.3 10.2-18.1 11.9-24.3 18-4.5 20 25.4 15.2 35.5-8 16.4-16.6 15.1-17.6 36.5-0.8 16.3 5.1 39.1 15.6 14.1 3-7-2.8-17.6 0.9-24.1 5.3-9.6 16.7-6 23.7-11.5 14.2-11.2 11.5-25.2 31.7-31.2 18.2-5.3 32.6 3 36.7-21.6 1.3-8-9-14.9-0.5-20.7 7.7-5.4 11.6 4.3 18.1 6.6 7.4 2.6 7.3 9.1 17.1 4.2 4.8-2.5 12.3-23.4 11.5-28.3z"/>
			</g>
		</g>
		<g id="&lt;Group&gt;">
			<g id="&lt;Group&gt;">
				<path id="&lt;Path&gt;" class="s1" d="m1367 1520.4h-1113.4l158.6-157.3h796.1z"/>
				<path id="&lt;Path&gt;" class="s2" d="m1180.2 1388.2c-21.9 0-43.8-5.4-48.8-11.8-0.5-0.6-0.8-1.3-1-1.9h-640.6c-0.1 0.8-0.4 1.6-1.1 2.5-5 6.4-27 11.8-48.9 11.8q-2 0-3.9-0.1l-80.7 90.7c4.2-0.4 8.4-0.6 12.5-0.6 26.6 0 41.8 8.1 33.8 18.6-0.6 0.7-1.3 1.5-2.1 2.2h837.2c-1.3-1-2.5-2.1-3.4-3.2-8-10.1 5.9-18 30.9-18.5l-80-89.8q-1.9 0.1-3.9 0.1z"/>
				<path id="&lt;Path&gt;" class="s1" d="m969.7 1428.7c10.9 31.6-59.8 60.6-159.4 60.6-99.7 0-170.4-29-159.5-60.6 9.7-27.8 80.6-47.9 159.5-47.9 78.9 0 149.8 20.1 159.4 47.9z"/>
				<g id="&lt;Group&gt;">
					<path id="&lt;Compound Path&gt;" fill-rule="evenodd" class="s2" d="m803.1 1390.6h21.9l0.2 5.7c18 0.5 33.9 2.7 47.6 6.5l-24 10.1c-9.5-2.6-17.3-4.1-23.6-4.7l0.5 13.1c36.5 3.7 55.7 10.6 57.3 21.1 0.8 5.5-3.3 10.2-12.7 14.1q-14.2 6-43.5 7.9l0.4 10h-25.9l0.2-9.9h-4.2c-9.5 0-20.6-1-33.2-2.9q-18.6-2.9-28.4-7.3l27.8-11.6c10.7 4 23.5 6.6 38.2 7.6l0.3-17.2q-26.3-2.3-39.6-7.8c-8.6-3.6-12.6-7.7-12-12.3 0.7-4.7 5.4-8.6 14.2-11.8 8.6-3.1 21.4-4.7 38.4-5zm-0.8 28.3l0.2-11.1q-12.9 1.4-13.1 5.3-0.2 4.3 12.9 5.8zm23.9 17.1l0.4 13.4q15.5-1.4 15.1-6.8-0.3-4.8-15.5-6.6z"/>
				</g>
				<g id="&lt;Group&gt;">
					<path id="&lt;Path&gt;" class="s1" d="m1144.3 1428.7c6 8.2-9.1 15.1-33.9 15.1-24.7 0-48.4-6.9-52.8-15.1-4.3-7.9 11.2-14.1 34.4-14.1 23.2 0 46.6 6.2 52.3 14.1z"/>
					<path id="&lt;Path&gt;" class="s1" d="m563 1428.7c-4.4 8.2-28.1 15.1-52.9 15.1-24.7 0-39.8-6.9-33.9-15.1 5.8-7.9 29.1-14.1 52.3-14.1 23.3 0 38.7 6.2 34.5 14.1z"/>
				</g>
			</g>
			<g id="&lt;Group&gt;">
				<path id="&lt;Path&gt;" class="s3" d="m1367 1520.4h-1113.4l158.6-157.3h796.1z"/>
				<path id="&lt;Path&gt;" class="s2" d="m1180.2 1388.2c-21.9 0-43.8-5.4-48.8-11.8-0.5-0.6-0.8-1.3-1-1.9h-640.6c-0.1 0.8-0.4 1.6-1.1 2.5-5 6.4-27 11.8-48.9 11.8q-2 0-3.9-0.1l-80.7 90.7c4.2-0.4 8.4-0.6 12.5-0.6 26.6 0 41.8 8.1 33.8 18.6-0.6 0.7-1.3 1.5-2.1 2.2h837.2c-1.3-1-2.5-2.1-3.4-3.2-8-10.1 5.9-18 30.9-18.5l-80-89.8q-1.9 0.1-3.9 0.1z"/>
				<path id="&lt;Path&gt;" class="s1" d="m969.7 1428.7c10.9 31.6-59.8 60.6-159.4 60.6-99.7 0-170.4-29-159.5-60.6 9.7-27.8 80.6-47.9 159.5-47.9 78.9 0 149.8 20.1 159.4 47.9z"/>
				<g id="&lt;Group&gt;">
					<path id="&lt;Compound Path&gt;" fill-rule="evenodd" class="s2" d="m803.1 1390.6h21.9l0.2 5.7c18 0.5 33.9 2.7 47.6 6.5l-24 10.1c-9.5-2.6-17.3-4.1-23.6-4.7l0.5 13.1c36.5 3.7 55.7 10.6 57.3 21.1 0.8 5.5-3.3 10.2-12.7 14.1q-14.2 6-43.5 7.9l0.4 10h-25.9l0.2-9.9h-4.2c-9.5 0-20.6-1-33.2-2.9q-18.6-2.9-28.4-7.3l27.8-11.6c10.7 4 23.5 6.6 38.2 7.6l0.3-17.2q-26.3-2.3-39.6-7.8c-8.6-3.6-12.6-7.7-12-12.3 0.7-4.7 5.4-8.6 14.2-11.8 8.6-3.1 21.4-4.7 38.4-5zm-0.8 28.3l0.2-11.1q-12.9 1.4-13.1 5.3-0.2 4.3 12.9 5.8zm23.9 17.1l0.4 13.4q15.5-1.4 15.1-6.8-0.3-4.8-15.5-6.6z"/>
				</g>
				<g id="&lt;Group&gt;">
					<path id="&lt;Path&gt;" class="s1" d="m1144.3 1428.7c6 8.2-9.1 15.1-33.9 15.1-24.7 0-48.4-6.9-52.8-15.1-4.3-7.9 11.2-14.1 34.4-14.1 23.2 0 46.6 6.2 52.3 14.1z"/>
					<path id="&lt;Path&gt;" class="s1" d="m563 1428.7c-4.4 8.2-28.1 15.1-52.9 15.1-24.7 0-39.8-6.9-33.9-15.1 5.8-7.9 29.1-14.1 52.3-14.1 23.3 0 38.7 6.2 34.5 14.1z"/>
				</g>
			</g>
			<g id="&lt;Group&gt;">
				<path id="&lt;Path&gt;" class="s4" d="m1367 1490.3h-1113.4l158.6-157.3h796.1z"/>
				<path id="&lt;Path&gt;" class="s2" d="m1180.2 1358.1c-21.9 0-43.8-5.4-48.8-11.8-0.5-0.6-0.8-1.3-1-1.9h-640.6c-0.1 0.8-0.4 1.6-1.1 2.5-5 6.4-27 11.8-48.9 11.8q-2 0-3.9-0.1l-80.7 90.7c4.2-0.4 8.4-0.6 12.5-0.6 26.6 0 41.8 8.1 33.8 18.6q-0.9 1.1-2.1 2.2h837.2c-1.3-1-2.5-2.1-3.4-3.2-8-10.1 5.9-18 30.9-18.5l-80-89.8q-1.9 0.1-3.9 0.1z"/>
				<path id="&lt;Path&gt;" class="s1" d="m969.7 1398.6c10.9 31.6-59.8 60.6-159.4 60.6-99.7 0-170.4-29-159.5-60.6 9.7-27.8 80.6-47.9 159.5-47.9 78.9 0 149.8 20.1 159.4 47.9z"/>
				<g id="&lt;Group&gt;">
					<path id="&lt;Compound Path&gt;" fill-rule="evenodd" class="s2" d="m803.1 1360.5h21.9l0.2 5.7c18 0.5 33.9 2.7 47.6 6.5l-24 10.1c-9.5-2.6-17.3-4.1-23.6-4.7l0.5 13.1c36.5 3.7 55.7 10.6 57.3 21.1 0.8 5.5-3.3 10.2-12.7 14.1q-14.2 6-43.5 7.9l0.4 10h-25.9l0.2-9.9h-4.2c-9.5 0-20.6-1-33.2-2.9q-18.6-2.9-28.4-7.3l27.8-11.6c10.7 4 23.5 6.5 38.2 7.6l0.3-17.2q-26.3-2.3-39.6-7.8c-8.6-3.6-12.6-7.7-12-12.3 0.7-4.7 5.4-8.6 14.2-11.8 8.6-3.1 21.4-4.7 38.4-5zm-0.8 28.3l0.2-11.1q-12.9 1.4-13.1 5.3-0.2 4.3 12.9 5.8zm23.9 17.1l0.4 13.3q15.5-1.3 15.1-6.7-0.3-4.8-15.5-6.6z"/>
				</g>
				<g id="&lt;Group&gt;">
					<path id="&lt;Path&gt;" class="s1" d="m1144.3 1398.6c6 8.2-9.1 15.1-33.9 15.1-24.7 0-48.4-6.9-52.8-15.1-4.3-7.9 11.2-14.1 34.4-14.1 23.2 0 46.6 6.2 52.3 14.1z"/>
					<path id="&lt;Path&gt;" class="s1" d="m563 1398.6c-4.4 8.2-28.1 15.1-52.9 15.1-24.7 0-39.8-6.9-33.9-15.1 5.8-7.9 29.1-14.1 52.3-14.1 23.3 0 38.7 6.2 34.5 14.1z"/>
				</g>
			</g>
			<g id="&lt;Group&gt;">
				<path id="&lt;Path&gt;" class="s3" d="m1367 1460.2h-1113.4l158.6-157.3h796.1z"/>
				<path id="&lt;Path&gt;" class="s2" d="m1180.2 1328c-21.9 0-43.8-5.4-48.8-11.8-0.5-0.6-0.8-1.3-1-1.9h-640.6c-0.1 0.8-0.4 1.6-1.1 2.5-5 6.4-27 11.8-48.9 11.8q-2 0-3.9-0.1l-80.7 90.7c4.2-0.4 8.4-0.6 12.5-0.6 26.6 0 41.8 8.1 33.8 18.5-0.6 0.8-1.3 1.6-2.1 2.3h837.2c-1.3-1.1-2.5-2.1-3.4-3.2-8-10.1 5.9-18 30.9-18.5l-80-89.8q-1.9 0.1-3.9 0.1z"/>
				<path id="&lt;Path&gt;" class="s1" d="m969.7 1368.5c10.9 31.6-59.8 60.6-159.4 60.6-99.7 0-170.4-29-159.5-60.6 9.7-27.8 80.6-48 159.5-48 78.9 0 149.8 20.2 159.4 48z"/>
				<g id="&lt;Group&gt;">
					<path id="&lt;Compound Path&gt;" fill-rule="evenodd" class="s2" d="m803.1 1330.4h21.9l0.2 5.7c18 0.5 33.9 2.7 47.6 6.5l-24 10.1c-9.5-2.6-17.3-4.1-23.6-4.7l0.5 13.1c36.5 3.7 55.7 10.6 57.3 21.1 0.8 5.5-3.3 10.2-12.7 14.1q-14.2 5.9-43.5 7.9l0.4 9.9h-25.9l0.2-9.8h-4.2c-9.5 0-20.6-1-33.2-2.9q-18.6-2.9-28.4-7.3l27.8-11.6c10.7 4 23.5 6.5 38.2 7.6l0.3-17.2q-26.3-2.3-39.6-7.8c-8.6-3.6-12.6-7.7-12-12.3 0.7-4.7 5.4-8.6 14.2-11.8 8.6-3.1 21.4-4.7 38.4-5zm-0.8 28.3l0.2-11.1q-12.9 1.4-13.1 5.3-0.2 4.3 12.9 5.8zm23.9 17.1l0.4 13.3q15.5-1.3 15.1-6.7-0.3-4.8-15.5-6.6z"/>
				</g>
				<g id="&lt;Group&gt;">
					<path id="&lt;Path&gt;" class="s1" d="m1144.3 1368.5c6 8.2-9.1 15.1-33.9 15.1-24.7 0-48.4-6.9-52.8-15.1-4.3-7.9 11.2-14.1 34.4-14.1 23.2 0 46.6 6.2 52.3 14.1z"/>
					<path id="&lt;Path&gt;" class="s1" d="m563 1368.5c-4.4 8.2-28.1 15.1-52.9 15.1-24.7 0-39.8-6.9-33.9-15.1 5.8-7.9 29.1-14.1 52.3-14.1 23.3 0 38.7 6.2 34.5 14.1z"/>
				</g>
			</g>
			<g id="&lt;Group&gt;">
				<path id="&lt;Path&gt;" class="s1" d="m1367 1430.1h-1113.4l158.6-157.3h796.1z"/>
				<path id="&lt;Path&gt;" class="s2" d="m1180.2 1297.9c-21.9 0-43.8-5.4-48.8-11.8-0.5-0.6-0.8-1.3-1-1.9h-640.6c-0.1 0.8-0.4 1.6-1.1 2.5-5 6.4-27 11.8-48.9 11.8q-2 0-3.9-0.1l-80.7 90.7c4.2-0.4 8.4-0.6 12.5-0.6 26.6 0 41.8 8.1 33.8 18.5-0.6 0.8-1.3 1.6-2.1 2.3h837.2c-1.3-1.1-2.5-2.1-3.4-3.2-8-10.1 5.9-18 30.9-18.5l-80-89.8q-1.9 0.1-3.9 0.1z"/>
				<path id="&lt;Path&gt;" class="s1" d="m969.7 1338.4c10.9 31.6-59.8 60.6-159.4 60.6-99.7 0-170.4-29-159.5-60.6 9.7-27.8 80.6-48 159.5-48 78.9 0 149.8 20.2 159.4 48z"/>
				<g id="&lt;Group&gt;">
					<path id="&lt;Compound Path&gt;" fill-rule="evenodd" class="s2" d="m803.1 1300.3h21.9l0.2 5.7c18 0.5 33.9 2.7 47.6 6.5l-24 10c-9.5-2.5-17.3-4-23.6-4.6l0.5 13.1c36.5 3.7 55.7 10.6 57.3 21.1 0.8 5.5-3.3 10.2-12.7 14.1q-14.2 5.9-43.5 7.9l0.4 9.9h-25.9l0.2-9.8h-4.2c-9.5 0-20.6-1-33.2-2.9q-18.6-2.9-28.4-7.3l27.8-11.6c10.7 4 23.5 6.5 38.2 7.6l0.3-17.2q-26.3-2.3-39.6-7.8c-8.6-3.6-12.6-7.7-12-12.3 0.7-4.7 5.4-8.6 14.2-11.8 8.6-3.1 21.4-4.8 38.4-5zm-0.8 28.3l0.2-11.1q-12.9 1.4-13.1 5.3-0.2 4.3 12.9 5.8zm23.9 17.1l0.4 13.3q15.5-1.3 15.1-6.7-0.3-4.8-15.5-6.6z"/>
				</g>
				<g id="&lt;Group&gt;">
					<path id="&lt;Path&gt;" class="s1" d="m1144.3 1338.4c6 8.2-9.1 15-33.9 15-24.7 0-48.4-6.8-52.8-15-4.3-7.9 11.2-14.1 34.4-14.1 23.2 0 46.6 6.2 52.3 14.1z"/>
					<path id="&lt;Path&gt;" class="s1" d="m563 1338.4c-4.4 8.2-28.1 15-52.9 15-24.7 0-39.8-6.8-33.9-15 5.8-7.9 29.1-14.1 52.3-14.1 23.3 0 38.7 6.2 34.5 14.1z"/>
				</g>
			</g>
			<g id="&lt;Group&gt;">
				<path id="&lt;Path&gt;" class="s3" d="m1367 1400h-1113.4l158.6-157.3h796.1z"/>
				<path id="&lt;Path&gt;" class="s2" d="m1180.2 1267.8c-21.9 0-43.8-5.4-48.8-11.8-0.5-0.7-0.8-1.3-1-1.9h-640.6c-0.1 0.8-0.4 1.6-1.1 2.5-5 6.4-27 11.8-48.9 11.8q-2 0-3.9-0.1l-80.7 90.7c4.2-0.4 8.4-0.6 12.5-0.6 26.6 0 41.8 8.1 33.8 18.5q-0.9 1.2-2.1 2.3h837.2c-1.3-1.1-2.5-2.1-3.4-3.2-8-10.1 5.9-18 30.9-18.5l-80-89.8q-1.9 0.1-3.9 0.1z"/>
				<path id="&lt;Path&gt;" class="s1" d="m969.7 1308.3c10.9 31.6-59.8 60.6-159.4 60.6-99.7 0-170.4-29-159.5-60.6 9.7-27.8 80.6-48 159.5-48 78.9 0 149.8 20.2 159.4 48z"/>
				<g id="&lt;Group&gt;">
					<path id="&lt;Compound Path&gt;" fill-rule="evenodd" class="s2" d="m803.1 1270.2h21.9l0.2 5.7c18 0.5 33.9 2.7 47.6 6.5l-24 10c-9.5-2.5-17.3-4-23.6-4.7l0.5 13.2c36.5 3.7 55.7 10.6 57.3 21.1 0.8 5.5-3.3 10.2-12.7 14.1q-14.2 5.9-43.5 7.9l0.4 9.9h-25.9l0.2-9.8h-4.2c-9.5 0-20.6-1-33.2-2.9q-18.6-2.9-28.4-7.3l27.8-11.6c10.7 4 23.5 6.5 38.2 7.6l0.3-17.2q-26.3-2.3-39.6-7.8c-8.6-3.6-12.6-7.7-12-12.3 0.7-4.7 5.4-8.6 14.2-11.8 8.6-3.1 21.4-4.8 38.4-5zm-0.8 28.3l0.2-11.1q-12.9 1.4-13.1 5.3-0.2 4.3 12.9 5.8zm23.9 17.1l0.4 13.3q15.5-1.3 15.1-6.7-0.3-4.8-15.5-6.6z"/>
				</g>
				<g id="&lt;Group&gt;">
					<path id="&lt;Path&gt;" class="s1" d="m1144.3 1308.3c6 8.2-9.1 15-33.9 15-24.7 0-48.4-6.8-52.8-15-4.3-7.9 11.2-14.1 34.4-14.1 23.2 0 46.6 6.2 52.3 14.1z"/>
					<path id="&lt;Path&gt;" class="s1" d="m563 1308.3c-4.4 8.2-28.1 15-52.9 15-24.7 0-39.8-6.8-33.9-15 5.8-7.9 29.1-14.1 52.3-14.1 23.3 0 38.7 6.2 34.5 14.1z"/>
				</g>
			</g>
			<g id="&lt;Group&gt;">
				<path id="&lt;Path&gt;" class="s1" d="m1367 1369.9h-1113.4l158.6-157.3h796.1z"/>
				<path id="&lt;Path&gt;" class="s2" d="m1180.2 1237.7c-21.9 0-43.8-5.4-48.8-11.8-0.5-0.7-0.8-1.3-1-1.9h-640.6c-0.1 0.8-0.4 1.6-1.1 2.5-5 6.4-27 11.8-48.9 11.8q-2 0-3.9-0.1l-80.7 90.7c4.2-0.4 8.4-0.6 12.5-0.6 26.6 0 41.8 8.1 33.8 18.5-0.6 0.8-1.3 1.5-2.1 2.3h837.2c-1.3-1.1-2.5-2.1-3.4-3.2-8-10.1 5.9-18 30.9-18.5l-80-89.8q-1.9 0.1-3.9 0.1z"/>
				<path id="&lt;Path&gt;" class="s1" d="m969.7 1278.2c10.9 31.6-59.8 60.6-159.4 60.6-99.7 0-170.4-29-159.5-60.6 9.7-27.8 80.6-48 159.5-48 78.9 0 149.8 20.2 159.4 48z"/>
				<g id="&lt;Group&gt;">
					<path id="&lt;Compound Path&gt;" fill-rule="evenodd" class="s2" d="m803.1 1240.1h21.9l0.2 5.7c18 0.5 33.9 2.7 47.6 6.5l-24 10c-9.5-2.5-17.3-4-23.6-4.7l0.5 13.2c36.5 3.7 55.7 10.6 57.3 21.1 0.8 5.5-3.3 10.2-12.7 14.1q-14.2 5.9-43.5 7.8l0.4 10h-25.9l0.2-9.8h-4.2c-9.5 0-20.6-1-33.2-2.9q-18.6-2.9-28.4-7.3l27.8-11.6c10.7 4 23.5 6.5 38.2 7.5l0.3-17.2q-26.3-2.2-39.6-7.7c-8.6-3.6-12.6-7.7-12-12.3 0.7-4.7 5.4-8.7 14.2-11.8 8.6-3.1 21.4-4.8 38.4-5zm-0.8 28.3l0.2-11.1q-12.9 1.4-13.1 5.3-0.2 4.3 12.9 5.8zm23.9 17.1l0.4 13.3q15.5-1.4 15.1-6.7-0.3-4.8-15.5-6.6z"/>
				</g>
				<g id="&lt;Group&gt;">
					<path id="&lt;Path&gt;" class="s1" d="m1144.3 1278.2c6 8.2-9.1 15-33.9 15-24.7 0-48.4-6.8-52.8-15-4.3-7.9 11.2-14.1 34.4-14.1 23.2 0 46.6 6.2 52.3 14.1z"/>
					<path id="&lt;Path&gt;" class="s1" d="m563 1278.2c-4.4 8.2-28.1 15-52.9 15-24.7 0-39.8-6.8-33.9-15 5.8-7.9 29.1-14.1 52.3-14.1 23.3 0 38.7 6.2 34.5 14.1z"/>
				</g>
			</g>
		</g>
		<g id="&lt;Group&gt;">
			<g id="&lt;Group&gt;">
				<path id="&lt;Path&gt;" class="s5" d="m598.3 586.2c-10 8.2-19.5 17.1-18.2 21l0.2 0.8q1.6-0.4 3.1-0.7c0 0-2.7 1.6 1.2-0.3q0.5-0.1 0.9-0.3c-2.6 2.9-3.9 6.2-2.3 9.9 5.2 12.4 23.3 5.4 32.5 2.8 7.5-2 35.6-14 42.4-17.7 7.9-4.2 16.4-20.4 9.7-28.7-6.9-8.4-36.2 14.1-41.8 7.3-3.1-3.7 5-17-6.8-10-2.4 1.8-11.8 8.5-20.9 15.9z"/>
				<g id="&lt;Group&gt;">
					<g id="&lt;Group&gt;">
						<path id="&lt;Path&gt;" class="s5" d="m294 1295.2c0 0-23.8 60.9 25.3 257 3.9 15.7 16.2 14.7 22.7 9.6 4.4-3.4 4.4-9.8 4.4-9.8 0 0 23.2-223.3 17.3-250.9-5.8-27.5-69.7-5.9-69.7-5.9z"/>
					</g>
					<path id="&lt;Path&gt;" class="s6" d="m357.2 844.3h-113.8q0 0.8 0 1.5 0.1 32.7 0.5 65.4c0.8 55.1-0.5 41 2.7 96 2.8 46.8 37 259.5 41.9 270.8 4.9 11.5 2.6 32.5 12.5 41.2 15.8 13.8 46.6 21.1 59.8 3.9 9-11.7 4.9-71.6 6.6-86.5 1.3-12.6 1.3-25.6 1.9-37.4 2.3-47.5-0.9-95.2-1.1-142.7-0.3-66.6-0.5-130.9-11-212.2z"/>
					<path id="&lt;Path&gt;" class="s7" d="m412.8 1572.3c-7.8-1.1-10.2-0.1-17.9-1.3-7.7-1.3-15.2-4-22.2-7.4-6.8-3.4-16.8-10.4-22.7-15.1-0.8-0.6-1.5-1.1-2.3-1.5-10.5 4.8-16.5 4.5-27.7-0.3-1.1-0.4-1.8-1.1-2.2-1.8q-0.5 0.3-0.8 0.9c-1.8 2.2-2.2 5.4-2.6 8.2-0.8 5.2-3.2 26.8-2.2 31.9 1.5 7.3 40.9 15.9 53.9 16.7 17.4 1.1 30.6 1.8 47.8-1 16.8-2.7 12-27.4-1.1-29.3z"/>
					<g id="&lt;Group&gt;">
						<path id="&lt;Path&gt;" class="s5" d="m211.8 1288.6c0 0 23.9 60.9-25.3 257-3.9 15.7-16.1 14.7-22.7 9.6-4.3-3.4-4.4-9.8-4.4-9.8 0 0-11.8-227.4-5.9-254.9 5.8-27.6 58.3-1.9 58.3-1.9z"/>
					</g>
					<path id="&lt;Path&gt;" class="s6" d="m152.4 844.3c-2.6 5.6-4.3 10.6-4.8 14.7-9.8 74.4-9.7 123.7-9.9 190.9-0.2 47.5 5 194.6 7.9 249.8 1.1 21.8 49.5 37.2 65.3 23.4 9.9-8.8 16.8-16.2 21.8-27.7 4.9-11.4 22.7-264.3 25.4-311.1 3.2-55.1 3.1-24.6 3.8-79.7 0.3-20.1 0.5-40.2 0.5-60.3z"/>
					<path id="&lt;Path&gt;" class="s7" d="m251.7 1574.7c-7.8-1.1-10.2 0-18-1.3-7.6-1.3-15.2-4-22.1-7.4-6.9-3.4-16.9-10.4-22.8-15.1q-1.1-0.9-2.2-1.5c-10.5 4.8-16.5 4.5-27.8-0.3-1-0.4-1.7-1.1-2.1-1.8q-0.5 0.4-0.9 0.9c-1.8 2.3-2.1 5.5-2.5 8.2-0.8 5.2-3.3 26.8-2.2 32 1.5 7.2 40.9 15.8 53.8 16.6 17.4 1.1 30.7 1.8 47.9-0.9 16.7-2.8 12-27.5-1.1-29.4z"/>
					<path id="&lt;Path&gt;" class="s6" d="m352.1 1552.2c6.3-65.3 15.9-230.8 11.6-251.1-5.8-27.5-69.7-5.9-69.7-5.9 0 0-28.5 61.1 22.1 255.5z"/>
					<path id="&lt;Path&gt;" class="s6" d="m192.1 1552.6c40.7-175.7 42.6-276.8 42.6-276.8 0 0-90.4-33.4-88.1 17.6 1 21.5 3.1 191.9 7.3 260z"/>
					<g id="&lt;Group&gt;">
						<g id="&lt;Group&gt;">
							<g id="&lt;Group&gt;">
								<path id="&lt;Path&gt;" class="s5" d="m469.6 741c-8.1-3.3-30.4-16.6-29.6-29.5 0.8-10.8 5.5-13.3 5.5-13.3 47.6-35.7 93.4-64.7 132.5-85.1 38.6-20.2 23 18.3 23 18.3-34.6 34-64.4 68.9-131.4 109.6z"/>
							</g>
						</g>
					</g>
					<g id="&lt;Group&gt;">
						<g id="&lt;Group&gt;">
							<g id="&lt;Group&gt;">
								<path id="&lt;Path&gt;" class="s5" d="m494.4 709.1c-27.3-83-45.8-86.2-69.7-123.3-35-54.4-110.6-100.6-121.1-60.2-5.1 19.9 135.8 179.9 157.8 211.4 11.6-4.4 20-20.4 33-27.9z"/>
							</g>
						</g>
					</g>
					<g id="&lt;Group&gt;">
						<g id="&lt;Group&gt;">
							<path id="&lt;Path&gt;" class="s8" d="m458.5 748.7c-19.2-26-98.2-130.1-106.4-139.4-48.2-54.4-70.9-77.2-49.4-107.1 24.4-33.9 84.2 23 124.2 71.9 26.4 32.3 38.9 49.9 74.1 115.9 5.4 21.9-19.6 67.3-42.5 58.7z"/>
						</g>
					</g>
					<g id="&lt;Group&gt;">
						<g id="&lt;Group&gt;">
							<path id="&lt;Path&gt;" class="s9" d="m569.5 616.9c-37.6 20.2-85.2 44.6-130 78.3-3.7 15.5 1.3 5.5 0.5 16.3-0.8 12.9 26.3 32.3 34.4 35.5 60.6-36.7 85.9-71.9 116.7-102.9z"/>
						</g>
					</g>
					<g id="&lt;Group&gt;">
						<g id="&lt;Group&gt;">
							<path id="&lt;Path&gt;" class="s10" d="m578.9 657c4.1-4.6 8.2-8.9 12.2-12.9l-21.6-27.2c-5.2 2.8-10.6 5.8-16.1 8.9z"/>
						</g>
					</g>
					<path id="&lt;Path&gt;" class="s11" d="m332.5 492.2c-5.5-1.9-40.9-9.5-47.3-10.6-7.5 6.7-16.6-3.1-27.7-3.5-11.6-0.5-25.3 8.1-33 2.1-0.5-0.3-0.8-0.7-1.2-1.1-5.7 0.3 9.4 0.8 3.5 1.3-15.4 1.8-62.5 24.3-72.4 30.4-40.5 25-26 60.1-25.1 74.4 2.3 38 5.9 338.6-1 379.6 0 0 246.6 0 246.6 0 4.1-3.6-5.9-336.2-8.8-384.5-4-64.6-2.1-77-33.6-88.1z"/>
					<path id="&lt;Path&gt;" class="s12" d="m254.1 272.2c-13.2-2.2-25.9 1.2-37.7 7.1-5.5 2.7-9.3 4.6-15.3 6.2-19.9 5.3-24.4 35.2-22.9 52.4 0.9 9.5 4.7 18.8 7.4 27.8 6.9 23.8 26.3 47.9 53.4 46.7 17.2-0.8 34.9-10.3 45.6-23.8 26.6-33.7 19.5-108.1-30.5-116.4z"/>
					<g id="&lt;Group&gt;">
						<g id="&lt;Group&gt;">
							<path id="&lt;Path&gt;" class="s5" d="m204 381.3c4.6 10 23.2 20.5 24.9 10.6 1-6.1 0.2-18.7-4.4-28.7-4.6-10-3.2-11.8-12.3-7.6-9.1 4.2-12.8 15.7-8.2 25.7z"/>
						</g>
					</g>
					<g id="&lt;Group&gt;">
						<path id="&lt;Path&gt;" class="s5" d="m228.6 400.5c1.6-21.8 65.5 18.7 65.5 18.7l-6.8 83.1c0 0-0.7-3.3-32.1-2.6-19.1 0.5-31.1 6.5-30.1-11.4 0.6-11 2.9-80.3 3.5-87.8z"/>
					</g>
					<path id="&lt;Path&gt;" class="s13" d="m227.6 421.5c9.1 29.2 35 50.3 62.2 48.1l4.3-50.4c0 0-63.9-40.5-65.5-18.7-0.2 2.3 0.2-4.6-0.8 5 0.4 0.5-0.4 15.3-0.2 16z"/>
					<g id="&lt;Group&gt;">
						<path id="&lt;Path&gt;" class="s5" d="m308.5 431.1c-18.2 14.6-54.1 10.6-69.9-5.6-9.5-9.8-14.9-20.7-17.1-33.6-2.4-14.6-1.2-28.4-3.6-43.1-1-6.4-1.8-12.8-1.5-19.2 0.5-10.3 4.2-20.5 10.5-28.9 6.2-8.3 15.8-12.5 24.5-17.8 7.3-4.5 15.5-10.1 24.1-11.6 6-1 10 2.5 14.9 5.6 26.7 16.6 40.2 54.4 40.9 84.7 0.6 22.6-4.1 54.4-22.8 69.5z"/>
					</g>
					<path id="&lt;Path&gt;" class="s14" d="m298.3 745.4c0 0-23.5 68.8-30.6 69.1-8.3 0.4-27.7-69.1-27.7-69.1l13.3-233.2h19.1z"/>
					<path id="&lt;Path&gt;" class="s14" d="m280.6 500.9c0 10.4-7.5 18.9-16.8 18.9-9.3 0-16.9-8.5-16.9-18.9 0-10.4 8.3-21 17.6-21 9.3 0 16.1 10.6 16.1 21z"/>
					<path id="&lt;Path&gt;" class="s15" d="m266.7 511.6c-9.5-3.4-16.1-10.6-18-19.2-1.1 2.7-1.8 5.6-1.8 8.5 0 10.4 7.6 18.9 16.9 18.9 5.5 0 10.4-3 13.5-7.6-3.2 0.8-6.7 0.7-10.6-0.6z"/>
					<path id="&lt;Path&gt;" class="s10" d="m228.3 455l31.8 22-17.5 37.2-46.5-24c0 0 15.6-33.8 32.2-35.2z"/>
					<path id="&lt;Path&gt;" class="s10" d="m260.1 477l27.5 33.3 25.3-22.6c0 0-6.8-22-22-24.4z"/>
					<path id="&lt;Path&gt;" class="s12" d="m333 256.9c-0.8-10.6-7.2-10.7-16.3-9.3-8.9 1.3-17.7 3.9-26.8 4.3-10.2 0.5-19-1.5-28.8-3.1-17-2.6-34.5 1.7-49.9 9.8-23.2 12-37.2 52.1-33 78.5 1.4 8.7 4.7 6.6 11.4 12.4 3 2.7 7 6 10.8 7.3 3.4 1.2 8.1-0.4 11.6-0.7 1.5-2 5.5 1.6 6.7 3.3 2 2.7 3.2 8.1 7.8 6.7 4.1-1.2 5.5-6.4 5.9-10.1 0.9-7.8-0.2-15.6 0.1-23.3 0.5-16 15.2-16.1 27.9-18.4 21.6-4 41.5-7 59.6-21.4 10-7.9 13.9-23.7 13-36z"/>
				</g>
				<g id="&lt;Group&gt;">
					<path id="&lt;Compound Path&gt;" fill-rule="evenodd" class="s16" d="m860.9 588.8c-1.2 8.3-2.8 16.6-4.9 24.6l23 9.6-24.5 58.7-23-9.6c-4.1 6.8-8.5 13.4-13.2 19.7l17.6 17.6-45 45-17.6-17.5c-6.7 5-13.7 9.6-20.9 13.9l9.4 23-58.8 24.2-9.4-23q-11.5 2.9-23.4 4.6v24.8h-63.6v-24.8c-8.4-1.2-16.6-2.8-24.7-4.9l-9.5 22.8-58.8-24.5 9.6-22.9q-10.2-6.1-19.7-13.2l-17.6 17.5-45-45 17.6-17.6c-5-6.7-9.6-13.7-13.9-20.9l-23 9.5-24.2-58.9 23.1-9.5q-2.9-11.4-4.5-23.2h-25v-63.7h25q1.8-12.5 4.9-24.5l-23.1-9.7 24.6-58.7 23.2 9.7q6.1-10.2 13.2-19.6l-17.9-17.8 45-45 17.9 17.8c6.6-5 13.6-9.6 20.8-13.8l-9.6-23.4 58.9-24.1 9.6 23.3q11.3-2.8 23.1-4.5v-25.3h63.6v25.3c8.4 1.2 16.6 2.8 24.6 4.8l9.7-23.2 58.7 24.5-9.7 23.3q10.1 6.1 19.6 13.1l17.8-17.8 45 45-17.8 17.8c5 6.6 9.6 13.6 13.9 20.8l23.3-9.5 24.1 58.8-23.2 9.5q2.9 11.4 4.6 23.2h25.1v63.7zm-96.3-31.6c0-69.7-56.5-126.2-126.2-126.2-69.6 0-126.1 56.5-126.1 126.2 0 69.7 56.5 126.1 126.1 126.1 69.7 0 126.2-56.4 126.2-126.1z"/>
					<path id="&lt;Compound Path&gt;" fill-rule="evenodd" class="s16" d="m749.7 557c0 61.4-49.8 111.2-111.3 111.2-61.4 0-111.3-49.8-111.3-111.2 0-61.5 49.9-111.3 111.3-111.3 61.5 0 111.3 49.8 111.3 111.3zm-56.9 0c0-30.1-24.3-54.4-54.4-54.4-30 0-54.4 24.3-54.4 54.4 0 30 24.4 54.3 54.4 54.3 30.1 0 54.4-24.3 54.4-54.3z"/>
				</g>
				<g id="&lt;Group&gt;">
					<g id="&lt;Group&gt;">
						<g id="&lt;Group&gt;">
							<g id="&lt;Group&gt;">
								<path id="&lt;Path&gt;" class="s5" d="m309.5 750.3c-19.9-85.1-38-89.9-58.5-129-30-57.3-101.2-110-115.2-70.7-6.9 19.3 119.2 191.2 138.3 224.5 11.9-3.3 21.8-18.4 35.4-24.8z"/>
							</g>
						</g>
					</g>
					<g id="&lt;Group&gt;">
						<g id="&lt;Group&gt;">
							<path id="&lt;Path&gt;" class="s11" d="m270.1 786.6c-16.8-27.6-91.7-129.3-98.3-139.8-46-73.4-58.9-91.7-34.8-119.6 27.3-31.6 81.8 30.4 117.3 82.6 23.4 34.5 34.3 53.2 63.5 122.1 3.4 22.3-25.6 65.2-47.7 54.7z"/>
						</g>
					</g>
					<g id="&lt;Group&gt;">
						<g id="&lt;Group&gt;">
							<g id="&lt;Group&gt;">
								<path id="&lt;Path&gt;" class="s5" d="m283.1 771.8c-6.4-5.9-22.6-26.3-17.2-38.1 4.5-9.8 9.9-10.4 9.9-10.4 57.1-16.5 110.2-27.3 154.1-32.6 43.1-5.2 14.9 25.3 14.9 25.3-44.4 19.5-84.6 41.6-161.7 55.8z"/>
							</g>
						</g>
					</g>
					<path id="&lt;Path&gt;" class="s5" d="m448.6 679.1c-10 8.2-19.5 17.2-18.2 21.1l0.2 0.7q1.6-0.3 3.1-0.7c0 0-2.7 1.7 1.2-0.3q0.5-0.1 1-0.2c-2.7 2.8-4 6.1-2.4 9.9 5.2 12.3 23.4 5.3 32.5 2.8 7.5-2.1 35.6-14.1 42.4-17.7 7.9-4.3 16.4-20.5 9.7-28.7-6.9-8.5-36.2 14.1-41.8 7.3-3.1-3.8 5-17-6.8-10-2.4 1.8-11.8 8.5-20.9 15.8z"/>
					<g id="&lt;Group&gt;">
						<g id="&lt;Group&gt;">
							<path id="&lt;Path&gt;" class="s11" d="m420.5 691.3c-42.3 5.5-95.4 11.5-149.3 27-9 13.2-0.8 5.6-5.3 15.4-5.4 11.8 1.5 48.2 7.9 54.1 69.7-12.9 117.5-45.4 157.3-63.5z"/>
						</g>
					</g>
					<g id="&lt;Group&gt;">
						<g id="&lt;Group&gt;">
							<path id="&lt;Path&gt;" class="s10" d="m415.1 732.1c5.5-2.8 10.8-5.4 16-7.8l-10.6-33c-5.8 0.7-11.9 1.6-18.2 2.5z"/>
						</g>
					</g>
				</g>
			</g>
			<g id="&lt;Group&gt;">
				<path id="&lt;Path&gt;" class="s16" d="m1476.1 368.4c1.5 3.5 2.7 7 3.5 10.5 5.2 22.7-3.5 56.4-7.3 79.4-6.1 28.9 40.7 52.4 59.7 66.9 25.6 19.5 35.9 46.8 33.2 80.2-2.3 29.2-22.4 62.6-50.1 74.8-18 8-38.2 2.2-53.8 16.5-16.2 14.8-17.1 48-47.6 32.8-20.1-10-34.4-43.9-46.1-61.9-18.9-29-23-65.1-42.7-93.3-21.3-30.7-50.6-32.4-33.5-76.7 8.4-21.8-4.1-41.4-9.5-62.4-6.2-24.6-0.5-47.6 9.9-69.4 6-12.5 3.8-25.3 10.9-37.5 7.8-13.3 14.3-25.3 27.8-33.7 28.6-17.8 74.4-9.6 97.7 13.2 15.9 15.6 38.3 37.9 47.9 60.6z"/>
				<g id="&lt;Group&gt;">
					<g id="&lt;Group&gt;">
						<path id="&lt;Path&gt;" class="s17" d="m1173 554.4c25.8-5.3 59.9-7.5 69.8-10.5 58.1-17.1 113.7-30.9 122.1-4.4 9.5 30-50.8 57.9-101.4 70.3-43.9 10.8-75.7 8.9-123.1 11.1 0.6-19.1 15.9-52.3 32.6-66.5z"/>
					</g>
				</g>
				<g id="&lt;Group&gt;">
					<g id="&lt;Group&gt;">
						<path id="&lt;Path&gt;" class="s5" d="m1405.5 401.8c-1.9 9.7-16 22.7-19.5 14.4-2.2-5.1-4.1-16.3-2.1-26 1.9-9.7 0.3-10.9 9.1-9.2 8.9 1.8 14.5 11.1 12.5 20.8z"/>
					</g>
				</g>
				<g id="&lt;Group&gt;">
					<path id="&lt;Path&gt;" class="s5" d="m1387.4 434.2c-1.4-19.6-58.8 16.8-58.8 16.8l6.1 74.7c0 0 0.6-3 28.8-2.4 17.2 0.4 31.8-0.4 31-16.5-0.6-9.9-6.5-65.9-7.1-72.6z"/>
				</g>
				<path id="&lt;Path&gt;" class="s13" d="m1388.3 453.1c-8.1 26.2-31.4 45.1-55.8 43.2l-3.9-45.3c0 0 57.4-36.4 58.8-16.8 0.2 2.1 0.9 8.7 1.7 17.3q-0.5 0.6-0.8 1.6z"/>
				<g id="&lt;Group&gt;">
					<path id="&lt;Path&gt;" class="s5" d="m1324.6 467c19 9 49.5-2 59.9-19.4 6.3-10.5 8.7-21.1 7.9-32.9-0.9-13.3-4.7-25.1-5.8-38.4-0.4-5.8-1-11.6-2.6-17.1-2.6-8.9-8-17-15.2-23-7.1-6-16.4-7.6-25.1-10.5-7.3-2.4-15.6-5.6-23.5-5.1-5.4 0.3-8.2 4.3-11.8 8-19.9 20-23.8 55.9-18.1 82.5 4.2 19.8 14.9 46.7 34.3 55.9z"/>
				</g>
				<g id="&lt;Group&gt;">
					<path id="&lt;Path&gt;" class="s5" d="m1307.3 935c1.8 37.3 13 61.8 21.1 83.1 42.2 110.6 72.8 215.4 90.7 245.5 19.6 33 77.3-26.2 77.3-26.2 0 0-79.6-329.7-98-350.8-18.3-21.2-92.5 18.5-91.1 48.4z"/>
				</g>
				<path id="&lt;Path&gt;" class="s6" d="m1307.3 935c1.8 37.3 13 61.8 21.1 83.1 42.2 110.6 72.8 215.4 90.7 245.5 19.6 33 82.1-12.8 82.1-12.8 0 0-70.6-341.1-89-362.2-18.3-21.2-106.3 16.5-104.9 46.4z"/>
				<g id="&lt;Group&gt;">
					<path id="&lt;Path&gt;" class="s5" d="m1429.5 1308.3c0 0 14.6 47.4 128.9 188.3 15.3 18.9 21.4-8.4 21.4-8.4 0 0-89.1-210.3-104.3-230.5-15.2-20.3-46 50.6-46 50.6z"/>
				</g>
				<path id="&lt;Path&gt;" class="s6" d="m1469.6 1424.8c-40.2-72.9-54.4-167.1-54.4-167.1 0 0 68.8-30.1 84-9.9 7.7 10.2 35.4 70.9 61.3 129.6-20.2 10-90.7 47.3-90.9 47.4z"/>
				<g id="&lt;Group&gt;">
					<path id="&lt;Path&gt;" class="s5" d="m1310.2 917.8c-20.9 31-26.6 57.3-32.8 79.2-32.4 113.9-48.7 201.3-52.4 236.1-4 38 55.7 40.1 55.7 40.1 0 0 133.5-311.7 131.5-339.7-2-27.9-85.2-40.5-102-15.7z"/>
				</g>
				<g id="&lt;Group&gt;">
					<path id="&lt;Path&gt;" class="s5" d="m1226.2 1307.4c0 0-8.2 50.6 36 226.7 5.9 23.5 24.3-0.1 24.3-0.1 0 0 7.6-196.5 2.3-221.3-5.2-24.7-62.6-5.3-62.6-5.3z"/>
				</g>
				<path id="&lt;Path&gt;" class="s6" d="m1210.5 1466.3c-14.5-108 7.4-219.5 7.4-219.5 0 0 66 2 71.2 26.7 3 14 25.9 137.1 26.7 192.8z"/>
				<path id="&lt;Path&gt;" class="s6" d="m1227.1 1178c8.7-48.5 20.1-96.6 34.1-143.9 15.8-53.7 29.3-100.9 51.3-152.2 5.7-13.2-1.8-69.3 6.8-75 20.1-13.3 71.4 2.9 98.8 8.3 6.6 1.3 10.7 4.7 16.4 8.2 9.2 5.8 21.3 37.1 24.4 47.5 8.5 28.3 2.1 63.6-13 87.7-12.1 19.3-23.5 39-34.6 58.8-9.5 17.1-21.3 32.3-31.1 49.5-21.8 38.2-36 79.8-52 120.9-5.3 13.9-39.6 79.9-39.7 89.6-0.9 51-46.5-21.5-62.2-26.1-9-2.6-8.5-4.3-7.9-14 0.4-7.5 1.5-14.8 2.6-22.2q2.8-18.6 6.1-37.1z"/>
				<g id="&lt;Group&gt;">
					<path id="&lt;Path&gt;" class="s5" d="m1315.2 833.2c-4.4-88.3-21.6-218.3-10.5-230.9 19.6-22.1 20.6-70.5 34.7-88.2 21.3-26.5 39.6-39 66.1-0.6 9 13 20.1 91 22.2 100.8 4.7 21.6 6.5 129.2 11.8 215.8z"/>
				</g>
				<path id="&lt;Path&gt;" class="s10" d="m1315.2 833.2c-4.6-64.7-8.9-118.2-14.6-156.4-1.7-11.6-5.2-22.9-7.1-34.3-1.8-10.5 3.2-25.1 7.5-34.6 4.3-9.7 8.8-19.5 13-29.3 4-9.6 7.2-19.7 10.4-29.6 0.9-3.2 6.2-25.8 9.3-26 0.4-0.1 12.2-1.1 16.9-2.1 8.3-1.8 16.2-5 23.5-9.4 2.1-1.2 18-14.3 18.5-13.7 25.8 27.1 40.6 66.3 44.8 101.2 1.4 12.6-0.8 204.8 3.7 231.8z"/>
				<path id="&lt;Path&gt;" class="s11" d="m1326.4 715.1c-1.1-39.3 0.1-79 11.7-116.9 10-32.6 24.9-62.7 42.6-91.7 5.2-4.1 11.6-9.1 11.9-8.7 25.8 27.1 40.6 66.3 44.8 101.2 1.4 12.6 28.6 244.1 33.1 271.1l-123.6 23.8c-6.6-41-19.2-137.6-20.5-178.8z"/>
				<g id="&lt;Group&gt;">
					<g id="&lt;Group&gt;">
						<g id="&lt;Group&gt;">
							<path id="&lt;Path&gt;" class="s5" d="m1329.4 779.9c2.4 2.4 31.7 15.3 37.1 3.3 21.8-48.5 32.6-80.2 44.8-116.4 16.5-49.4 17.5-109.7-13.6-114.5-27.5-4.3-37.4 70.5-48 130.1-2.3 12.6-9.8 27.4-19 68.2 0 0-6 21.5-1.3 29.3z"/>
						</g>
					</g>
				</g>
				<path id="&lt;Path&gt;" class="s16" d="m1347 290.2c-3.2 2.1-5.6 5.2-9.2 8.8-7.4 7-14.4 14.8-17.4 24.8-2 6.4-2.9 14.2-3.5 20.8-1.1 12.4 3.4 23.7 13.3 31.2 7.6 5.7 16 8.4 25.2 9.9 4.8 0.7 10.8 1.9 14.8 5 2.8 2.2 3.2 6.2 5.9 8.2 9.2 6.9 9.1-7.8 10-12.6q-0.7 3.7 1.6-5.6c3.3-13.6 3.2-24.7 11.1-36.5 6.9-10.4 9.7-29.3 2.4-40.2-8.2-12.4-31.1-16.2-44.7-16.3-4.2 0-7.1 1-9.5 2.5z"/>
				<path id="&lt;Path&gt;" class="s18" d="m1201.7 1549.2c7-1.1 9.2-0.1 16.1-1.2 6.9-1.2 13.7-3.6 19.9-6.7 6.2-3 15.2-9.3 20.5-13.5q1-0.8 2-1.4c9.4 4.3 14.8 4.1 24.9-0.2 0.9-0.4 1.6-1 1.9-1.7q0.5 0.4 0.8 0.8c1.6 2.1 1.9 4.9 2.3 7.4 0.7 4.7 2.9 24.1 1.9 28.7-1.3 6.5-36.7 14.3-48.3 15-15.6 0.9-27.5 1.6-43-0.9-15-2.4-10.7-24.6 1-26.3z"/>
				<path id="&lt;Path&gt;" class="s18" d="m1503.8 1525.6c6.2-3.4 8.5-3.3 14.7-6.8 6-3.4 11.5-8 16.3-13.1 4.7-5 10.9-14 14.4-19.8q0.7-1.1 1.5-2c10.3 0.8 15.3-1.3 23.2-8.9 0.8-0.7 1.2-1.4 1.3-2.2q0.5 0.2 1 0.5c2.2 1.4 3.5 3.9 4.7 6.2 2.3 4.1 11.1 21.5 11.8 26.1 1 6.6-29.5 26.2-40.1 30.9-14.3 6.3-25.3 11.1-40.6 14.1-15 3-18.7-19.3-8.2-25z"/>
				<path id="&lt;Path&gt;" class="s16" d="m1285.8 365.4c2.7-16.1 6.9-33.4 16.2-47.1 6.5-9.7 16.8-20.9 27.6-25.6 6-2.6 14.9-6.3 21.2-5.4 8 15.8-7 38-14 52.3-4.8 9.7-13.1 12.2-20.1 19-5.4 5.2-9.1 11.8-13.7 17.7-4.8 6.3-10.5 10.8-14 18.2-6.4-3-4.2-23.6-3.2-29.1z"/>
				<path id="&lt;Compound Path&gt;" fill-rule="evenodd" class="s1" d="m1239.1 532.7q-1.1 8.3-3 16.3l36.2 15.1-19.1 46.1-35.9-14.9q-4.2 7.1-9 13.8l27.3 27.3-35.3 35.3-27.1-27c-5.2 3.9-10.7 7.5-16.4 10.9l14 35.5-46.4 18.3-13.9-35.3c-4.6 1.1-9.2 2-13.9 2.7v37.9h-49.9v-37.9q-8.6-1.3-16.8-3.4l-14.6 35-46.1-19.1 14.7-35.2q-7.2-4.4-13.9-9.4l-27 27-35.3-35.3 27.3-27.3q-5.7-7.9-10.6-16.4l-36.1 14.3-18.3-46.4 36.5-14.5q-1.4-6.6-2.4-13.4h-39.4v-49.9h39.9q1.3-8.1 3.4-16l-37-15.3 19.1-46.1 37.5 15.5q4.1-6.7 8.8-13l-28.7-28.8 35.3-35.3 29 29.1q7.5-5.5 15.6-10.1l-15.2-38.3 46.5-18.3 15.1 38.4c4.2-0.9 8.4-1.7 12.7-2.4v-41.3h49.9v41.3q7.9 1.2 15.5 3.1l15.8-38.2 46.1 19.2-15.7 37.9q6.7 4.1 13 8.7l29-29.1 35.3 35.3-28.8 28.8q5.6 7.5 10.4 15.6l37.7-14.9 18.4 46.4-37.3 14.7q1.6 6.5 2.6 13.1h39.9v49.9zm-69.7-24.9c0-54-43.8-97.8-97.7-97.8-54 0-97.8 43.8-97.8 97.8 0 54 43.8 97.7 97.8 97.7 53.9 0 97.7-43.7 97.7-97.7z"/>
				<g id="&lt;Group&gt;">
					<g id="&lt;Group&gt;">
						<g id="&lt;Group&gt;">
							<path id="&lt;Path&gt;" class="s5" d="m1333.5 781.6c6.8-4 24.8-18.9 22.3-30.2-2.2-9.5-6.7-11-6.7-11-47.1-25.2-91.7-44.7-129.3-57.5-36.9-12.6-17.9 19.4-17.9 19.4 35.4 25.5 66.6 52.4 131.6 79.3z"/>
						</g>
					</g>
				</g>
				<g id="&lt;Group&gt;">
					<g id="&lt;Group&gt;">
						<path id="&lt;Path&gt;" class="s10" d="m1327.7 729.2c6.8-25.5 19.9-57 21.7-67.2 10.6-59.6 23-115.5 50.4-111.2 31.2 4.8 29.3 71.3 17.8 122.1-9.9 44.2-25.8 71.7-44.9 115.2-16.9-9.1-39.8-37.6-45-58.9z"/>
					</g>
				</g>
				<g id="&lt;Group&gt;">
					<path id="&lt;Path&gt;" class="s5" d="m1106.9 694.4c17.2 3 28.3 4.4 28.3 4.4l12.2-7.5c0 0-3.2-4.3-17.8-6.2-5.7-0.7-20.6-3.3-17.8-8.2 2.7-4.9 27.3-0.5 41.2-1.9 5.4-0.6 11.5 0.9 16.6 2.7l44.1 3.7-5.1 20.4-68.6 13.1-43-14.5c0 0-7.3-9.1 9.9-6z"/>
				</g>
				<g id="&lt;Group&gt;">
					<path id="&lt;Path&gt;" class="s5" d="m1141.1 555.3c2.4-11.6 10.1-22.3 23-22.1 10.8 0.2 13.9 11.9 15.6 20.5 2.9 14.4 0.9 21.5-13.5 28.5-20.5 10-28.6-9.6-25.1-26.9z"/>
				</g>
			</g>
		</g>
	</g>
	<g id="&lt;Group&gt;">
		<path id="&lt;Path&gt;" class="s19" d="m1055 1113.8c-40.9-28-126.3-47.3-225.1-47.3-98.7 0-184.1 19.3-225 47.3h-26.1v37.4h0.4c0 46.8 112.3 84.7 250.7 84.7 138.5 0 250.8-37.9 250.8-84.7v-37.4z"/>
		<path id="&lt;Path&gt;" class="s20" d="m1080.7 1114.2c0 46.8-112.3 84.7-250.8 84.7-138.4 0-250.7-37.9-250.7-84.7 0-46.7 112.3-84.6 250.7-84.6 138.5 0 250.8 37.9 250.8 84.6z"/>
		<g id="&lt;Group&gt;">
			<path id="&lt;Path&gt;" class="s21" d="m1038.3 1114.2c0 38.9-93.3 70.3-208.4 70.3-115 0-208.3-31.4-208.3-70.3 0-38.8 93.3-70.3 208.3-70.3 115.1 0 208.4 31.5 208.4 70.3z"/>
			<path id="&lt;Path&gt;" class="s22" d="m659.1 1176.2c118-40 235.9-79.9 354.3-119.7-8.7-3.1-18.1-6.1-28.1-8.7q-176.5 59.3-352.4 118.8c8 3.4 16.7 6.6 26.2 9.6z"/>
			<path id="&lt;Path&gt;" class="s22" d="m1049.3 1073.2c-7.7-4.7-16.7-9.1-26.8-13.2-118 39.6-235.6 79.4-353.2 119.2 12.4 3.5 25.7 6.6 39.9 9.2 113.5-38.3 226.9-76.7 340.1-115.2z"/>
			<path id="&lt;Path&gt;" class="s21" d="m1038.3 1114.2c0 38.9-93.3 70.3-208.4 70.3-115 0-208.3-31.4-208.3-70.3 0-38.8 93.3-70.3 208.3-70.3 115.1 0 208.4 31.5 208.4 70.3z"/>
			<path id="&lt;Path&gt;" class="s21" d="m943.6 1055.3c-32.7-7.2-71.7-11.4-113.7-11.4-115 0-208.3 31.5-208.3 70.3 0 14.1 12.4 27.3 33.6 38.3q144-48.7 288.4-97.2z"/>
			<path id="&lt;Path&gt;" class="s21" d="m754.1 1179.7c23.5 3.1 49.1 4.8 75.8 4.8 115.1 0 208.4-31.4 208.4-70.3 0-9.1-5.2-17.8-14.5-25.8-89.8 30.5-179.7 60.9-269.7 91.3z"/>
			<path id="&lt;Path&gt;" class="s23" d="m630.6 1119c0-38.8 93.3-70.3 208.3-70.3 71 0 133.5 11.9 171.2 30.2-36.1-20.9-103.2-35-180.2-35-115 0-208.3 31.5-208.3 70.3 0 14.9 13.8 28.7 37.2 40.1-17.9-10.4-28.2-22.4-28.2-35.3z"/>
		</g>
		<g id="&lt;Group&gt;">
			<path id="&lt;Compound Path&gt;" fill-rule="evenodd" class="s20" d="m822.8 1064.8h28.4v7.9q34.4 1.1 59.5 8.9l-31.3 13.1q-17.1-4.8-28.7-6v16.7q65.2 6.7 65.2 24.8 0 9.1-16.6 15.4-16.6 6.2-49 8.2v10h-27.8v-9.9h-4.7q-15.7 0-36.7-3-21.1-3-32.7-7.7l29.9-12.6q19 6.6 44.2 8.3v-19.4q-31.2-2.7-47.5-9.3-16.3-6.6-16.3-15.2 0-9.2 15.8-15.5 15.8-6.4 48.3-6.9zm-0.3 37.6v-14.2q-15.9 1.9-15.9 6.9 0 5.4 15.9 7.3zm28.2 20.5v15q17.6-1.5 17.6-7.5 0-5.4-17.6-7.5z"/>
		</g>
		<g id="&lt;Group&gt;">
			<path id="&lt;Compound Path&gt;" fill-rule="evenodd" class="s19" d="m815.9 1064.8h28.4v7.9q34.4 1.1 59.6 8.9l-31.3 13.1q-17.1-4.8-28.8-6v16.7q65.2 6.7 65.2 24.8 0 9.1-16.6 15.4-16.6 6.2-48.9 8.2v10h-27.9v-9.9h-4.6q-15.8 0-36.8-3-21-3-32.7-7.7l30-12.6q19 6.6 44.1 8.3v-19.4q-31.1-2.7-47.5-9.3-16.3-6.6-16.3-15.2 0-9.2 15.8-15.5 15.8-6.4 48.3-6.9zm-0.3 37.6v-14.2q-15.9 1.9-15.9 6.9 0 5.4 15.9 7.3zm28.2 20.5v15q17.7-1.5 17.7-7.5 0-5.4-17.7-7.5z"/>
		</g>
		<g id="&lt;Group&gt;">
			<path id="&lt;Compound Path&gt;" fill-rule="evenodd" class="s20" d="m822.8 1064.8h28.4v7.9q34.4 1.1 59.5 8.9l-31.3 13.1q-17.1-4.8-28.7-6v16.7q65.2 6.7 65.2 24.8 0 9.1-16.6 15.4-16.6 6.2-49 8.2v10h-27.8v-9.9h-4.7q-15.7 0-36.7-3-21.1-3-32.7-7.7l29.9-12.6q19 6.6 44.2 8.3v-19.4q-31.2-2.7-47.5-9.3-16.3-6.6-16.3-15.2 0-9.2 15.8-15.5 15.8-6.4 48.3-6.9zm-0.3 37.6v-14.2q-15.9 1.9-15.9 6.9 0 5.4 15.9 7.3zm28.2 20.5v15q17.6-1.5 17.6-7.5 0-5.4-17.6-7.5z"/>
		</g>
		<path id="&lt;Path&gt;" class="s24" d="m689.1 1166c98-33.1 196-66.3 294.2-99.4-8.6-3.1-18.1-6-28.3-8.6q-146.2 49.1-291.9 98.4c7.8 3.4 16.5 6.7 26 9.6z"/>
		<path id="&lt;Path&gt;" class="s24" d="m1017.9 1083.9c-7-4.9-15.6-9.6-25.6-13.8-97.8 33-195.3 65.9-292.8 98.9 12.6 3.5 26.4 6.4 41.1 8.8 92.6-31.3 185-62.6 277.3-93.9z"/>
	</g>
	<g id="&lt;Group&gt;">
		<path id="&lt;Path&gt;" class="s19" d="m1055 1045.8c-40.9-28-126.3-47.3-225.1-47.3-98.7 0-184.1 19.3-225 47.3h-26.1v37.4h0.4c0 46.8 112.3 84.7 250.7 84.7 138.5 0 250.8-37.9 250.8-84.7v-37.4z"/>
		<path id="&lt;Path&gt;" class="s20" d="m1080.7 1046.2c0 46.8-112.3 84.7-250.8 84.7-138.4 0-250.7-37.9-250.7-84.7 0-46.7 112.3-84.6 250.7-84.6 138.5 0 250.8 37.9 250.8 84.6z"/>
		<g id="&lt;Group&gt;">
			<path id="&lt;Path&gt;" class="s21" d="m1038.3 1046.2c0 38.9-93.3 70.3-208.4 70.3-115 0-208.3-31.4-208.3-70.3 0-38.8 93.3-70.3 208.3-70.3 115.1 0 208.4 31.5 208.4 70.3z"/>
			<path id="&lt;Path&gt;" class="s22" d="m659.1 1108.2c118-40 235.9-79.9 354.3-119.7-8.7-3.1-18.1-6.1-28.1-8.7q-176.5 59.3-352.4 118.8c8 3.4 16.7 6.6 26.2 9.6z"/>
			<path id="&lt;Path&gt;" class="s22" d="m1049.3 1005.2c-7.7-4.7-16.7-9.1-26.8-13.2-118 39.6-235.6 79.4-353.2 119.2 12.4 3.5 25.7 6.6 39.9 9.2 113.5-38.3 226.9-76.7 340.1-115.2z"/>
			<path id="&lt;Path&gt;" class="s21" d="m1038.3 1046.2c0 38.9-93.3 70.3-208.4 70.3-115 0-208.3-31.4-208.3-70.3 0-38.8 93.3-70.3 208.3-70.3 115.1 0 208.4 31.5 208.4 70.3z"/>
			<path id="&lt;Path&gt;" class="s21" d="m943.6 987.3c-32.7-7.2-71.7-11.4-113.7-11.4-115 0-208.3 31.5-208.3 70.3 0 14.1 12.4 27.3 33.6 38.3q144-48.7 288.4-97.2z"/>
			<path id="&lt;Path&gt;" class="s21" d="m754.1 1111.7c23.5 3.1 49.1 4.8 75.8 4.8 115.1 0 208.4-31.4 208.4-70.3 0-9.1-5.2-17.8-14.5-25.8-89.8 30.5-179.7 60.9-269.7 91.3z"/>
			<path id="&lt;Path&gt;" class="s23" d="m630.6 1051c0-38.8 93.3-70.3 208.3-70.3 71 0 133.5 11.9 171.2 30.2-36.1-20.9-103.2-35-180.2-35-115 0-208.3 31.5-208.3 70.3 0 14.9 13.8 28.7 37.2 40.1-17.9-10.4-28.2-22.4-28.2-35.3z"/>
		</g>
		<g id="&lt;Group&gt;">
			<path id="&lt;Compound Path&gt;" fill-rule="evenodd" class="s20" d="m822.8 996.8h28.4v7.9q34.4 1.1 59.5 8.9l-31.3 13.1q-17.1-4.8-28.7-6v16.7q65.2 6.7 65.2 24.8 0 9.1-16.6 15.4-16.6 6.2-49 8.2v10h-27.8v-9.9h-4.7q-15.7 0-36.7-3-21.1-3-32.7-7.7l29.9-12.6q19 6.6 44.2 8.3v-19.4q-31.2-2.7-47.5-9.3-16.3-6.6-16.3-15.2 0-9.2 15.8-15.5 15.8-6.4 48.3-6.9zm-0.3 37.6v-14.2q-15.9 1.9-15.9 6.9 0 5.4 15.9 7.3zm28.2 20.5v15q17.6-1.5 17.6-7.5 0-5.4-17.6-7.5z"/>
		</g>
		<g id="&lt;Group&gt;">
			<path id="&lt;Compound Path&gt;" fill-rule="evenodd" class="s19" d="m815.9 996.8h28.4v7.9q34.4 1.1 59.6 8.9l-31.3 13.1q-17.1-4.8-28.8-6v16.7q65.2 6.7 65.2 24.8 0 9.1-16.6 15.4-16.6 6.2-48.9 8.2v10h-27.9v-9.9h-4.6q-15.8 0-36.8-3-21-3-32.7-7.7l30-12.6q19 6.6 44.1 8.3v-19.4q-31.1-2.7-47.5-9.3-16.3-6.6-16.3-15.2 0-9.2 15.8-15.5 15.8-6.4 48.3-6.9zm-0.3 37.6v-14.2q-15.9 1.9-15.9 6.9 0 5.4 15.9 7.3zm28.2 20.5v15q17.7-1.5 17.7-7.5 0-5.4-17.7-7.5z"/>
		</g>
		<g id="&lt;Group&gt;">
			<path id="&lt;Compound Path&gt;" fill-rule="evenodd" class="s20" d="m822.8 996.8h28.4v7.9q34.4 1.1 59.5 8.9l-31.3 13.1q-17.1-4.8-28.7-6v16.7q65.2 6.7 65.2 24.8 0 9.1-16.6 15.4-16.6 6.2-49 8.2v10h-27.8v-9.9h-4.7q-15.7 0-36.7-3-21.1-3-32.7-7.7l29.9-12.6q19 6.6 44.2 8.3v-19.4q-31.2-2.7-47.5-9.3-16.3-6.6-16.3-15.2 0-9.2 15.8-15.5 15.8-6.4 48.3-6.9zm-0.3 37.6v-14.2q-15.9 1.9-15.9 6.9 0 5.4 15.9 7.3zm28.2 20.5v15q17.6-1.5 17.6-7.5 0-5.4-17.6-7.5z"/>
		</g>
		<path id="&lt;Path&gt;" class="s24" d="m689.1 1098c98-33.1 196-66.3 294.2-99.4-8.6-3.1-18.1-6-28.3-8.6q-146.2 49.1-291.9 98.4c7.8 3.4 16.5 6.7 26 9.6z"/>
		<path id="&lt;Path&gt;" class="s24" d="m1017.9 1015.9c-7-4.9-15.6-9.6-25.6-13.8-97.8 33-195.3 65.9-292.8 98.9 12.6 3.5 26.4 6.4 41.1 8.8 92.6-31.3 185-62.6 277.3-93.9z"/>
	</g>
	<g id="&lt;Group&gt;">
		<path id="&lt;Path&gt;" class="s19" d="m1055 982.8c-40.9-28-126.3-47.3-225.1-47.3-98.7 0-184.1 19.3-225 47.3h-26.1v37.4h0.4c0 46.8 112.3 84.7 250.7 84.7 138.5 0 250.8-37.9 250.8-84.7v-37.4z"/>
		<path id="&lt;Path&gt;" class="s20" d="m1080.7 983.2c0 46.8-112.3 84.7-250.8 84.7-138.4 0-250.7-37.9-250.7-84.7 0-46.7 112.3-84.6 250.7-84.6 138.5 0 250.8 37.9 250.8 84.6z"/>
		<g id="&lt;Group&gt;">
			<path id="&lt;Path&gt;" class="s21" d="m1038.3 983.2c0 38.9-93.3 70.3-208.4 70.3-115 0-208.3-31.4-208.3-70.3 0-38.8 93.3-70.3 208.3-70.3 115.1 0 208.4 31.5 208.4 70.3z"/>
			<path id="&lt;Path&gt;" class="s22" d="m659.1 1045.2c118-40 235.9-79.9 354.3-119.7-8.7-3.1-18.1-6.1-28.1-8.7q-176.5 59.3-352.4 118.8c8 3.4 16.7 6.6 26.2 9.6z"/>
			<path id="&lt;Path&gt;" class="s22" d="m1049.3 942.2c-7.7-4.7-16.7-9.1-26.8-13.2-118 39.6-235.6 79.4-353.2 119.2 12.4 3.5 25.7 6.6 39.9 9.2 113.5-38.3 226.9-76.7 340.1-115.2z"/>
			<path id="&lt;Path&gt;" class="s21" d="m1038.3 983.2c0 38.9-93.3 70.3-208.4 70.3-115 0-208.3-31.4-208.3-70.3 0-38.8 93.3-70.3 208.3-70.3 115.1 0 208.4 31.5 208.4 70.3z"/>
			<path id="&lt;Path&gt;" class="s21" d="m943.6 924.3c-32.7-7.2-71.7-11.4-113.7-11.4-115 0-208.3 31.5-208.3 70.3 0 14.1 12.4 27.3 33.6 38.3q144-48.7 288.4-97.2z"/>
			<path id="&lt;Path&gt;" class="s21" d="m754.1 1048.7c23.5 3.1 49.1 4.8 75.8 4.8 115.1 0 208.4-31.4 208.4-70.3 0-9.1-5.2-17.8-14.5-25.8-89.8 30.5-179.7 60.9-269.7 91.3z"/>
			<path id="&lt;Path&gt;" class="s23" d="m630.6 988c0-38.8 93.3-70.3 208.3-70.3 71 0 133.5 11.9 171.2 30.2-36.1-20.9-103.2-35-180.2-35-115 0-208.3 31.5-208.3 70.3 0 14.9 13.8 28.7 37.2 40.1-17.9-10.4-28.2-22.4-28.2-35.3z"/>
		</g>
		<g id="&lt;Group&gt;">
			<path id="&lt;Compound Path&gt;" fill-rule="evenodd" class="s20" d="m822.8 933.8h28.4v7.9q34.4 1.1 59.5 8.9l-31.3 13.1q-17.1-4.8-28.7-6v16.7q65.2 6.7 65.2 24.8 0 9.1-16.6 15.4-16.6 6.2-49 8.2v10h-27.8v-9.9h-4.7q-15.7 0-36.7-3-21.1-3-32.7-7.7l29.9-12.6q19 6.6 44.2 8.3v-19.4q-31.2-2.7-47.5-9.3-16.3-6.6-16.3-15.2 0-9.2 15.8-15.5 15.8-6.4 48.3-6.9zm-0.3 37.6v-14.2q-15.9 1.9-15.9 6.9 0 5.4 15.9 7.3zm28.2 20.5v15q17.6-1.5 17.6-7.5 0-5.4-17.6-7.5z"/>
		</g>
		<g id="&lt;Group&gt;">
			<path id="&lt;Compound Path&gt;" fill-rule="evenodd" class="s19" d="m815.9 933.8h28.4v7.9q34.4 1.1 59.6 8.9l-31.3 13.1q-17.1-4.8-28.8-6v16.7q65.2 6.7 65.2 24.8 0 9.1-16.6 15.4-16.6 6.2-48.9 8.2v10h-27.9v-9.9h-4.6q-15.8 0-36.8-3-21-3-32.7-7.7l30-12.6q19 6.6 44.1 8.3v-19.4q-31.1-2.7-47.5-9.3-16.3-6.6-16.3-15.2 0-9.2 15.8-15.5 15.8-6.4 48.3-6.9zm-0.3 37.6v-14.2q-15.9 1.9-15.9 6.9 0 5.4 15.9 7.3zm28.2 20.5v15q17.7-1.5 17.7-7.5 0-5.4-17.7-7.5z"/>
		</g>
		<g id="&lt;Group&gt;">
			<path id="&lt;Compound Path&gt;" fill-rule="evenodd" class="s20" d="m822.8 933.8h28.4v7.9q34.4 1.1 59.5 8.9l-31.3 13.1q-17.1-4.8-28.7-6v16.7q65.2 6.7 65.2 24.8 0 9.1-16.6 15.4-16.6 6.2-49 8.2v10h-27.8v-9.9h-4.7q-15.7 0-36.7-3-21.1-3-32.7-7.7l29.9-12.6q19 6.6 44.2 8.3v-19.4q-31.2-2.7-47.5-9.3-16.3-6.6-16.3-15.2 0-9.2 15.8-15.5 15.8-6.4 48.3-6.9zm-0.3 37.6v-14.2q-15.9 1.9-15.9 6.9 0 5.4 15.9 7.3zm28.2 20.5v15q17.6-1.5 17.6-7.5 0-5.4-17.6-7.5z"/>
		</g>
		<path id="&lt;Path&gt;" class="s24" d="m689.1 1035c98-33.1 196-66.3 294.2-99.4-8.6-3.1-18.1-6-28.3-8.6q-146.2 49.1-291.9 98.4c7.8 3.4 16.5 6.7 26 9.6z"/>
		<path id="&lt;Path&gt;" class="s24" d="m1017.9 952.9c-7-4.9-15.6-9.6-25.6-13.8-97.8 33-195.3 65.9-292.8 98.9 12.6 3.5 26.4 6.4 41.1 8.8 92.6-31.3 185-62.6 277.3-93.9z"/>
	</g>
	<g id="&lt;Group&gt;">
		<path id="&lt;Path&gt;" class="s19" d="m1055 920.8c-40.9-28-126.3-47.3-225.1-47.3-98.7 0-184.1 19.3-225 47.3h-26.1v37.4h0.4c0 46.8 112.3 84.7 250.7 84.7 138.5 0 250.8-37.9 250.8-84.7v-37.4z"/>
		<path id="&lt;Path&gt;" class="s20" d="m1080.7 921.2c0 46.8-112.3 84.7-250.8 84.7-138.4 0-250.7-37.9-250.7-84.7 0-46.7 112.3-84.6 250.7-84.6 138.5 0 250.8 37.9 250.8 84.6z"/>
		<g id="&lt;Group&gt;">
			<path id="&lt;Path&gt;" class="s21" d="m1038.3 921.2c0 38.9-93.3 70.3-208.4 70.3-115 0-208.3-31.4-208.3-70.3 0-38.8 93.3-70.3 208.3-70.3 115.1 0 208.4 31.5 208.4 70.3z"/>
			<path id="&lt;Path&gt;" class="s22" d="m659.1 983.2c118-40 235.9-79.9 354.3-119.7-8.7-3.1-18.1-6.1-28.1-8.7q-176.5 59.3-352.4 118.8c8 3.4 16.7 6.6 26.2 9.6z"/>
			<path id="&lt;Path&gt;" class="s22" d="m1049.3 880.2c-7.7-4.7-16.7-9.1-26.8-13.2-118 39.6-235.6 79.4-353.2 119.2 12.4 3.5 25.7 6.6 39.9 9.2 113.5-38.3 226.9-76.7 340.1-115.2z"/>
			<path id="&lt;Path&gt;" class="s21" d="m1038.3 921.2c0 38.9-93.3 70.3-208.4 70.3-115 0-208.3-31.4-208.3-70.3 0-38.8 93.3-70.3 208.3-70.3 115.1 0 208.4 31.5 208.4 70.3z"/>
			<path id="&lt;Path&gt;" class="s21" d="m943.6 862.3c-32.7-7.2-71.7-11.4-113.7-11.4-115 0-208.3 31.5-208.3 70.3 0 14.1 12.4 27.3 33.6 38.3q144-48.7 288.4-97.2z"/>
			<path id="&lt;Path&gt;" class="s21" d="m754.1 986.7c23.5 3.1 49.1 4.8 75.8 4.8 115.1 0 208.4-31.4 208.4-70.3 0-9.1-5.2-17.8-14.5-25.8-89.8 30.5-179.7 60.9-269.7 91.3z"/>
			<path id="&lt;Path&gt;" class="s23" d="m630.6 926c0-38.8 93.3-70.3 208.3-70.3 71 0 133.5 11.9 171.2 30.2-36.1-20.9-103.2-35-180.2-35-115 0-208.3 31.5-208.3 70.3 0 14.9 13.8 28.7 37.2 40.1-17.9-10.4-28.2-22.4-28.2-35.3z"/>
		</g>
		<g id="&lt;Group&gt;">
			<path id="&lt;Compound Path&gt;" fill-rule="evenodd" class="s20" d="m822.8 871.8h28.4v7.9q34.4 1.1 59.5 8.9l-31.3 13.1q-17.1-4.8-28.7-6v16.7q65.2 6.7 65.2 24.8 0 9.1-16.6 15.4-16.6 6.2-49 8.2v10h-27.8v-9.9h-4.7q-15.7 0-36.7-3-21.1-3-32.7-7.7l29.9-12.6q19 6.6 44.2 8.3v-19.4q-31.2-2.7-47.5-9.3-16.3-6.6-16.3-15.2 0-9.2 15.8-15.5 15.8-6.4 48.3-6.9zm-0.3 37.6v-14.2q-15.9 1.9-15.9 6.9 0 5.4 15.9 7.3zm28.2 20.5v15q17.6-1.5 17.6-7.5 0-5.4-17.6-7.5z"/>
		</g>
		<g id="&lt;Group&gt;">
			<path id="&lt;Compound Path&gt;" fill-rule="evenodd" class="s19" d="m815.9 871.8h28.4v7.9q34.4 1.1 59.6 8.9l-31.3 13.1q-17.1-4.8-28.8-6v16.7q65.2 6.7 65.2 24.8 0 9.1-16.6 15.4-16.6 6.2-48.9 8.2v10h-27.9v-9.9h-4.6q-15.8 0-36.8-3-21-3-32.7-7.7l30-12.6q19 6.6 44.1 8.3v-19.4q-31.1-2.7-47.5-9.3-16.3-6.6-16.3-15.2 0-9.2 15.8-15.5 15.8-6.4 48.3-6.9zm-0.3 37.6v-14.2q-15.9 1.9-15.9 6.9 0 5.4 15.9 7.3zm28.2 20.5v15q17.7-1.5 17.7-7.5 0-5.4-17.7-7.5z"/>
		</g>
		<g id="&lt;Group&gt;">
			<path id="&lt;Compound Path&gt;" fill-rule="evenodd" class="s20" d="m822.8 871.8h28.4v7.9q34.4 1.1 59.5 8.9l-31.3 13.1q-17.1-4.8-28.7-6v16.7q65.2 6.7 65.2 24.8 0 9.1-16.6 15.4-16.6 6.2-49 8.2v10h-27.8v-9.9h-4.7q-15.7 0-36.7-3-21.1-3-32.7-7.7l29.9-12.6q19 6.6 44.2 8.3v-19.4q-31.2-2.7-47.5-9.3-16.3-6.6-16.3-15.2 0-9.2 15.8-15.5 15.8-6.4 48.3-6.9zm-0.3 37.6v-14.2q-15.9 1.9-15.9 6.9 0 5.4 15.9 7.3zm28.2 20.5v15q17.6-1.5 17.6-7.5 0-5.4-17.6-7.5z"/>
		</g>
		<path id="&lt;Path&gt;" class="s24" d="m689.1 973c98-33.1 196-66.3 294.2-99.4-8.6-3.1-18.1-6-28.3-8.6q-146.2 49.1-291.9 98.4c7.8 3.4 16.5 6.7 26 9.6z"/>
		<path id="&lt;Path&gt;" class="s24" d="m1017.9 890.9c-7-4.9-15.6-9.6-25.6-13.8-97.8 33-195.3 65.9-292.8 98.9 12.6 3.5 26.4 6.4 41.1 8.8 92.6-31.3 185-62.6 277.3-93.9z"/>
	</g>
</svg>