<svg version="1.2" xmlns="http://www.w3.org/2000/svg" viewBox="0 0 1988 1266" width="1988" height="1266">
	<title>about-extra-2-svg</title>
	<style>
		.s0 { mix-blend-mode: multiply;fill: #8dcbed } 
		.s1 { fill: #526fb4 } 
		.s2 { fill: #88aad8 } 
		.s3 { fill: #4862a0 } 
		.s4 { fill: #4f6cae } 
		.s5 { fill: #ebb1b8 } 
		.s6 { fill: #c7202e } 
		.s7 { fill: #001c58 } 
		.s8 { fill: #310c2e } 
		.s9 { fill: #568cc9 } 
		.s10 { fill: #fefefe } 
		.s11 { fill: #581953 } 
		.s12 { fill: #4765a3 } 
		.s13 { fill: #e7968a } 
		.s14 { fill: #ec4f61 } 
		.s15 { fill: #cc4453 } 
		.s16 { fill: #e86b62 } 
		.s17 { fill: #3e0e3a } 
		.s18 { fill: #354c7e } 
		.s19 { fill: #f8a55b } 
		.s20 { fill: #fdc361 } 
		.s21 { fill: #fed585 } 
		.s22 { fill: #ffd965 } 
		.s23 { fill: #f9a954 } 
		.s24 { opacity: .4;fill: #fff4cd } 
	</style>
	<g id="_Artboards_">
	</g>
	<g id="Capa 1">
		<g id="&lt;Group&gt;">
		</g>
		<g id="&lt;Group&gt;" style="opacity: .6">
			<g id="&lt;Group&gt;">
				<g id="&lt;Group&gt;">
					<path id="&lt;Path&gt;" class="s0" d="m186.6 109.5c-22.1 0-22.5-5.6-42-11.9-23.2-7.6-30.8-6.1-52.2 1.6-5.7 2-22.1 0.3-23.8 9.9-1.7 9.6 15.4 12.8 15.8 19.7 0.9 16.2-18.7 3.4-24.2 10.5-9 11.4 13.3 14 19.5 13.6 0.2 2 0.2 3.8-0.1 5.9-12.6 3.4-23.7 5.4-19 21.2 2.8 9.1 13.9 25.7 23.8 17.9 5.9 20.3-23.4 10.9-26.8 25.3 9.8-0.9 28.2-14.2 37.2-18.7 13.4-6.7 18.8-16.1 26.9-27.9 2.8 2.8 4.4 13.4 8 14.8 9.3 3.5 11.3-9.5 17.4-11.9 16.3-6.4 14.3 8 26.2 14.6 5 2.8 11.6-0.3 16.1 2 7 3.6 6 7 10.9 12.9 5.9 7.4 19 15.5 13.4 25.8 24.1 2.9 5.9 19.1 4.7 30.5-0.8 7.4 2.5 16.8 1.9 24.5-0.7 10.6-2 13 2.5 22.5 6.6 13.8 13.8 23.6 18.2 38.3 4.1 13.8 11.1 31 22.2 40.2 2.6-14.4-11.7-22.4-9.2-38.3 5.5 1.5 11.7 20.8 14.6 26.7 4.1 8.4 6 21.9 14.5 29.3 9.4 8.4 23 4.8 33.1 10 5.2 2.8 7.2 8.4 12 10.6 5.4 2.5 14.2-0.1 18.6 4 9 8.6 1.5 21.2 19.6 23.8 13.2 2 25-9.8 17.8 11.3-3.8 11.1-15.7 15-17.8 25.7-1.9 10 2.7 27.7 6.5 35.3 6.8 13.6 17.6 33.2 31.9 34.2 4.9 12.1-0.3 23.8-1.4 35-1.2 12.4 3.5 28.2-0.3 39.9-4.7 14.8-10.1 15.7-5.7 32.3 1.6 6.2 5.2 4.6 4.9 12-0.2 4.8-7.2 10.1-6.9 17.4 0.3 12.3 18.2 40.5 20.2 27.9 2.8-18 7.4-32.2 8.9-38.2 1.1-4.5 0.8-17 3.5-23.2 1.1-2.5 7.7-9.7 9.6-11.3 11.1-8.8 13.2-8.7 20.7-21.3 0.8-1.4 6.6-7.1 6.6-8.8 15.7-10.1 22.5-36.8 35.5-47.1 13.5-10.8 16.5-3.8 20.9-22.9 2.9-12.7 2.3-25.7 12.4-33.9 7.8-6.3 28.6-10 15.1-26.1-7.1-8.3-22-1.8-32.7-7.7-4.3-2.3-6.6-7.7-11.2-9.6-5.3-2.2-15 1-19.5-1.5-6.3-3.8-3.4-8.1-6.3-13-6.2-10.5 1.7-5.4-9.7-11.3-6.5-3.3-9.3 0.9-15.7-5.2-3.9-3.7-3.1-13-8.3-16.2-7.5-4.6-25.6 0.9-33.9 2.1-7.3 1.1-9.7-0.1-15.7 3.6-5.5 3.3 1.2 9.2-8.5 11-2.3 0.4-8.5-6.5-12.8-6.6-6.1 0-11.3 2.7-15.8 6.3-4.7-9.2 4.5-20.8-0.2-27.7-8-11.6-14.4 2.8-13.4-15.9 0.6-9.9 10.4-17.8-6.5-9.7-5.9 2.8-12 20.4-23.4 9.7-15.1-14.2 5.7-39.8 17.8-46 7.7-3.9 21.7-8.8 30.2-4 8 4.6 5.2 18.9 17.5 16.3 0.5-9.5-2.9-24.7 0.6-33.6 4.7-12.1 16.8-9.2 22.6-17.6 3.4-4.9 0.3-12 2.7-16.1 3.6-6.2 5.6-3.9 9.7-8.1 4.4-4.4 6.2-1.3 9.7-8 2-4 1.6-12.8 1.9-17.5 9.3-3.3 20-4 20.9 7.5 14.1-5.1 6-22.6 1.6-31.5 10.2-15.2 24.4-5.1 22.5 10.6 9.7 3.4 29 4.8 25.3-10.7-28.8-10.6-1.7-15.5-11.4-35.7-2.9-6-12.7-7.9-16.2-14.1-3.7-6.5-2.5-19.7-4.6-27.5-7.9 1.3-11.2 9.2-20.4 7.6-1.1-14.1-18.5-27.8-30.5-14-12 13.9 1.9 33.9 4.2 46.1-15 1-12.1 18.4-25.2 14.5-0.4-7.2-0.2-14.8-0.5-22.1-19.6-1-40.9-4.2-35.2-30.8 3.1-14.2 8.6-8.2 19.3-12.8 10.2-4.4 8.8-9.8 16.5-15.9 8.5-6.7 15 0.1 17.2-14.8 1.7-10.9-1.6-13.7-11.6-14.9-9.9-1.1-5.3 10.3-17.3-1.1-6.9-6.6-2.9-15.5-15.7-17.4-3.6 7.3-2 17.3-0.6 25.2-10.2 3.3-44.2-11.8-48.1-4.4-3.8 22.2-18.4 4.5-28.6-0.7-11.9-6-24.5-5.6-37.3-7.6-13.7-2-20.8-0.8-34.2 1.3-12.7 2-13.6-1.3-24.6 1.6z"/>
				</g>
				<g id="&lt;Group&gt;">
					<path id="&lt;Path&gt;" class="s0" d="m525.8 22.3c-8.1 5-15.6-5-25.5-2.9-1.8 0.4-4.2 6.5-8 8.1-3.9 1.5-9.9 1.8-14.6 1.5 1.4 3.3 1 9.1 2.8 12.3-3.7-0.8-8.8 1.3-12.4 0.5-0.4 13.9 3.1 15.9 12.6 20.7 10.7 5.4 15.3 0.7 19.3 14.5 1.5 5-1.5 11.2 0.3 16.1 1.6 4 7.8 6.3 9 10 3.4 10.3-1 16.7-2.8 27-2.2 12.7 3.2 60.1 27.4 44.9 8.4-5.4 1.4-21.5 6.7-28.5 6.5-8.3 18.8-4.8 28.4-5.4 5.4-17.5 21.4-12 36.9-12.8 2.1-4.7 2.8-10.7 1.7-15.6-1.8-0.5-4.1-0.5-5.9-0.5 1-9.1 25.9-13.8 10-28.8 17.4-4.1 21.2-11.4 22-27.3 0.4-11.5-4.3-6.5 3.1-16.1 5.2-6.9 16.6-2.7 12.7-15.9-8-0.5-19.5 4.5-27.2 1.4-9.7-3.7-9-14.4-16.1-19-13.5-8.7-36.1 6.1-51.2 6.4 0.8 15.4-8.9 12.9-16.2 9.9z"/>
				</g>
				<g id="&lt;Group&gt;">
					<path id="&lt;Path&gt;" class="s0" d="m1234 516.4c-8.3 2.1 0.4-15.9-5.1-20.7-18.9-3.2-17.7 10.1-31.9 16.3-5.2 2.2-17.7-1.4-19.3-0.6-9.5 5.3-2.6 13-6.5 21.1-7.5 15.5-23.8 6.6-24.5 30.3-0.4 15.3 9.9 27.5 5.4 43.4 25.9 12 39.9-36.1 67-10.5 3.7 3.5 3.5 10.6 7.3 13.7 5.2 4.4 12.4 2.4 16.9 5.5 12.7 8.6 8.1 19 25.8 8.9 14.4-8.3 36.2-37.1 37.3-52.6 0.8-12-6.8-21.3-14.4-29.4-10.6-11.5-16.7-18.9-23.8-33.4-6.7-14-8.4-13.1-11-4.7-3.8 8.7 0.1 6.4-2.6 15.7-11.7 6.9-11.3-10-16.5-5.2z"/>
				</g>
				<path id="&lt;Path&gt;" class="s0" d="m1367.6 112.4c-2.4-14.1-18.2-8.5-30.6-9.7-15.8-1.3-19.1-8.3-31.8-14.9-15.4-8-18.9 3.2-34.2 5.2-12.9 1.8-16.9-7.6-28.6-13.2-15.3-7.3-17.9 0.4-32.5 3.6-15.2 3.5-26.1-3.8-38.4-10.1-14.6-7.4-17.4-4-33.7-0.8-7.3 1.6-30.8 3.9-37.5 1.4-4.2-1.6-6.4-7.1-6.5-11.1-19.7-7-39.7 3.2-59.9 2.1-7.5-6.4-12.3-4.2-23.6-4.2-10.8 0-21.4-11.3-31-3.8-18.1 14-45.9-4-38.5 27.9-9.7 1.4-33.7 0.5-37.1-9.1-20.1-3-6.8 22.6-14.1 28.3-7.3 5.8-33.3 0.7-43.5 4.8-12.3 4.9-53.1 46.5-56.2 28.1 33.4-10.6-15.7-38.2-33.6-35.4-8.3 1.3-25.1 8.4-31.3 14.1-9.6 9-8.6 23.4-15.4 34.2-6 9.9-17.7 14.8-14.9 28.6 2.7 12.7 2.8 3.3 9.7 9.7 1.7 1.5 4.7-9.7 7.1-7.2 3 3 4.5 12.1 9.7 13.4 7.7 1.9 4.8-7.6 5.3-12.9 1.5-14.7 4.6-10.6 11.7-22.3 4.1-6.7 3.4-11.8 12.5-14.2 5.1 8.4-1.7 18.1 0.4 26.7 0.8 3.6 7 1.9 8.1 8.4 1.1 6.2-1.5 11.1-5.3 15.8-15.7 19.3-33.3-1-49.1 3.8-7.4 13.2-11.8 27.4-24.5 36.4-9 6.4-16.1 1-11.7 14.9 2.8 8.6 15.2 4.1 11.4 17.3-9.7 7.2-25 0.5-31.5 5.4-6.4 4.8-2 25.8 4.4 28.4 15.6 6.5 15.2-16.4 22.6-21.8 9.2-6.7 28.9 4.9 26-13 23.6-5.8 17 26 33.3 26.8 0.7-16-2.4-19.7-10.9-31.9 16 3 24.1 26.3 33.8 32.7 8.8 0.9 10.2-9.9 9.8-18 20.7 2 11.5-25.2 34-20 15.3 3.6 29.5 24.1 4.4 23.1-7.5-0.4-11.1-8.4-19.8-3.8-5.8 3.1-10.6 16.1-6.2 21.1 8.8 9.9 39.8-6.1 32.1 20.9-18.2 5.9-31.3 2-49.6 1.9-10.6 0-37.4 8.2-37.3-12.5-5.2-2.9-10.4-2.5-14.3 1.3l3.3-1.6c-20.9 19.2-55.8-9.9-65.6 19.7-0.8 2.4-2.6 14.5-3.6 15.7-4.9 6.5-8.1 2.5-14.1 6.8-7.8 5.5-13.8 17-15.2 26.6-1.4 8.8-1.3 29.7 2.3 38.6 3.8 9.6 17.4 17.4 23.4 26.1 8.2 12 7.3 17.5 26.1 12.5 12.7-3.3 21.1-12 34.2-4.8 10.4 5.7 9 16.3 25.4 10.3 5.9 11.9-6.1 22.1 0.3 34.7 3.2 6.3 9.4 7.2 10.9 15 1.5 7.4-2.9 12.4-3.2 19.3-0.5 16.4 7.9 21.1 14.1 34.1 5.5 11.1 1.5 24 8.8 34.7 12 17.4 41.5 2 54.7-9.2 7.4-6.1 13.6-21.5 15.9-28.6 1.5-4.7 1.3-11.9 3.2-16.6 2.9-7.3 3.8-4.3 10-10.8 22.4-23.8-21.2-34.9 6-58 12.1-10.2 21.5-15.4 24.2-32.6 2.8-18 1.3-26.8-17.5-26-13-23.8 54.7-28 47.8-57.4-8.3-1.6-49.4-14.7-27.1-24.4 13.5-5.8 39.4 11.9 51.5 17.3 13.5 6.2 14.2 13.7 24.1 23 6.5 6.1 14.2 5 19.4 12.8 4.3 6.4 3.7 17.7 8.3 25.4 4.1 7 12.7 17.2 19.4 22.4 4.8-10.6 0.3-24.6 4.8-34.6 5.5-12.2 24.9-8.2 22.4-24.2 26.3-7.1 30.2 40.8 46.2 43 0.1-5.7 0.3-11.6 0.5-17.2 14.6-4 13.7 18.3 26.8 12.3 12.7-5.9 0.5-24.7-1.7-31.5-10.6-33.2 33.8-11 44.3-37.4 4.7-11.9 1.6-29.1-4.2-38.3-4.5-7.3-20.7-15.3-20.5-24.4 0.4-17.5 19.6-10 25.9-1.7 6.3 8.6 3.1 26.2 17.4 25.4 4.3-10.9-5.6-20.3-3-28.6 3.6-11.5 21.5-12.1 27-24.2 4.5-9.8 1.5-21.1 2.4-30.9 1.2-14.4 4.1-14.3-10-20.6-10-4.3-23.2-3-12.9-19.3 5.7-9.2 19.9-10.5 29-14.1 12.8-5 18.6-5.8 31.8-4.8 6.8 0.5 4.1 5.9 12 1.6 4.9-2.6 8.2-14.5 9.6-19.4 14.4-3.7 16 20.3 12.1 28.4-6.4 13.1-13.2 12.1-14 29.2-0.7 13.1 4 31.3 12.4 11.3 2.5-5.6-2.2-14.1 0.8-19.3 4.2-7.7 13.3-4.8 18.9-9.2 11.4-9 9.3-20.2 25.4-25 14.6-4.2 26.1 2.4 29.4-17.3 1.1-6.4-7.2-11.9-0.4-16.6 6.2-4.3 9.3 3.5 14.5 5.3 5.9 2.1 5.9 7.3 13.7 3.4 3.8-2 9.9-18.8 9.2-22.7z"/>
			</g>
		</g>
		<g id="&lt;Group&gt;">
			<g id="&lt;Group&gt;">
				<path id="&lt;Path&gt;" class="s1" d="m1240 1248.4h-1113.4l158.6-157.3h796.1z"/>
				<path id="&lt;Path&gt;" class="s2" d="m1053.2 1116.2c-21.9 0-43.8-5.4-48.8-11.8-0.5-0.6-0.8-1.3-1-1.9h-640.6c-0.1 0.8-0.4 1.6-1.1 2.5-5 6.4-27 11.8-48.9 11.8q-2 0-3.9-0.1l-80.7 90.7c4.2-0.4 8.4-0.6 12.5-0.6 26.6 0 41.8 8.1 33.8 18.6-0.6 0.7-1.3 1.5-2.1 2.2h837.2c-1.3-1-2.5-2.1-3.4-3.2-8-10.1 5.9-18 30.9-18.5l-80-89.8q-1.9 0.1-3.9 0.1z"/>
				<path id="&lt;Path&gt;" class="s1" d="m842.7 1156.7c10.9 31.6-59.8 60.6-159.4 60.6-99.7 0-170.4-29-159.5-60.6 9.7-27.8 80.6-47.9 159.5-47.9 78.9 0 149.8 20.1 159.4 47.9z"/>
				<g id="&lt;Group&gt;">
					<path id="&lt;Compound Path&gt;" fill-rule="evenodd" class="s2" d="m676.1 1118.6h21.9l0.2 5.7c18 0.5 33.9 2.7 47.6 6.5l-24 10.1c-9.5-2.6-17.3-4.1-23.6-4.7l0.5 13.1c36.5 3.7 55.7 10.6 57.3 21.1 0.8 5.5-3.3 10.2-12.7 14.1q-14.2 6-43.5 7.9l0.4 10h-25.9l0.2-9.9h-4.2c-9.5 0-20.6-1-33.2-2.9q-18.6-2.9-28.4-7.3l27.8-11.6c10.7 4 23.5 6.6 38.2 7.6l0.3-17.2q-26.3-2.3-39.6-7.8-12.9-5.4-12-12.3c0.7-4.7 5.4-8.6 14.2-11.8 8.6-3.1 21.4-4.7 38.4-5zm-0.8 28.3l0.2-11.1q-12.9 1.4-13.1 5.3-0.2 4.3 12.9 5.8zm23.9 17.1l0.4 13.4q15.5-1.4 15.1-6.8-0.3-4.8-15.5-6.6z"/>
				</g>
				<g id="&lt;Group&gt;">
					<path id="&lt;Path&gt;" class="s1" d="m1017.3 1156.7c6 8.2-9.1 15.1-33.9 15.1-24.7 0-48.4-6.9-52.8-15.1-4.3-7.9 11.2-14.1 34.4-14.1 23.2 0 46.6 6.2 52.3 14.1z"/>
					<path id="&lt;Path&gt;" class="s1" d="m436 1156.7c-4.4 8.2-28.1 15.1-52.9 15.1-24.7 0-39.8-6.9-33.9-15.1 5.8-7.9 29.1-14.1 52.3-14.1 23.3 0 38.7 6.2 34.5 14.1z"/>
				</g>
			</g>
			<g id="&lt;Group&gt;">
				<path id="&lt;Path&gt;" class="s3" d="m1240 1248.4h-1113.4l158.6-157.3h796.1z"/>
				<path id="&lt;Path&gt;" class="s2" d="m1053.2 1116.2c-21.9 0-43.8-5.4-48.8-11.8-0.5-0.6-0.8-1.3-1-1.9h-640.6c-0.1 0.8-0.4 1.6-1.1 2.5-5 6.4-27 11.8-48.9 11.8q-2 0-3.9-0.1l-80.7 90.7c4.2-0.4 8.4-0.6 12.5-0.6 26.6 0 41.8 8.1 33.8 18.6-0.6 0.7-1.3 1.5-2.1 2.2h837.2c-1.3-1-2.5-2.1-3.4-3.2-8-10.1 5.9-18 30.9-18.5l-80-89.8q-1.9 0.1-3.9 0.1z"/>
				<path id="&lt;Path&gt;" class="s1" d="m842.7 1156.7c10.9 31.6-59.8 60.6-159.4 60.6-99.7 0-170.4-29-159.5-60.6 9.7-27.8 80.6-47.9 159.5-47.9 78.9 0 149.8 20.1 159.4 47.9z"/>
				<g id="&lt;Group&gt;">
					<path id="&lt;Compound Path&gt;" fill-rule="evenodd" class="s2" d="m676.1 1118.6h21.9l0.2 5.7c18 0.5 33.9 2.7 47.6 6.5l-24 10.1c-9.5-2.6-17.3-4.1-23.6-4.7l0.5 13.1c36.5 3.7 55.7 10.6 57.3 21.1 0.8 5.5-3.3 10.2-12.7 14.1q-14.2 6-43.5 7.9l0.4 10h-25.9l0.2-9.9h-4.2c-9.5 0-20.6-1-33.2-2.9q-18.6-2.9-28.4-7.3l27.8-11.6c10.7 4 23.5 6.6 38.2 7.6l0.3-17.2q-26.3-2.3-39.6-7.8-12.9-5.4-12-12.3c0.7-4.7 5.4-8.6 14.2-11.8 8.6-3.1 21.4-4.7 38.4-5zm-0.8 28.3l0.2-11.1q-12.9 1.4-13.1 5.3-0.2 4.3 12.9 5.8zm23.9 17.1l0.4 13.4q15.5-1.4 15.1-6.8-0.3-4.8-15.5-6.6z"/>
				</g>
				<g id="&lt;Group&gt;">
					<path id="&lt;Path&gt;" class="s1" d="m1017.3 1156.7c6 8.2-9.1 15.1-33.9 15.1-24.7 0-48.4-6.9-52.8-15.1-4.3-7.9 11.2-14.1 34.4-14.1 23.2 0 46.6 6.2 52.3 14.1z"/>
					<path id="&lt;Path&gt;" class="s1" d="m436 1156.7c-4.4 8.2-28.1 15.1-52.9 15.1-24.7 0-39.8-6.9-33.9-15.1 5.8-7.9 29.1-14.1 52.3-14.1 23.3 0 38.7 6.2 34.5 14.1z"/>
				</g>
			</g>
			<g id="&lt;Group&gt;">
				<path id="&lt;Path&gt;" class="s4" d="m1240 1218.3h-1113.4l158.6-157.3h796.1z"/>
				<path id="&lt;Path&gt;" class="s2" d="m1053.2 1086.1c-21.9 0-43.8-5.4-48.8-11.8-0.5-0.6-0.8-1.3-1-1.9h-640.6c-0.1 0.8-0.4 1.6-1.1 2.5-5 6.4-27 11.8-48.9 11.8q-2 0-3.9-0.1l-80.7 90.7c4.2-0.4 8.4-0.6 12.5-0.6 26.6 0 41.8 8.1 33.8 18.6q-0.9 1.1-2.1 2.2h837.2c-1.3-1-2.5-2.1-3.4-3.2-8-10.1 5.9-18 30.9-18.5l-80-89.8q-1.9 0.1-3.9 0.1z"/>
				<path id="&lt;Path&gt;" class="s1" d="m842.7 1126.6c10.9 31.6-59.8 60.6-159.4 60.6-99.7 0-170.4-29-159.5-60.6 9.7-27.8 80.6-47.9 159.5-47.9 78.9 0 149.8 20.1 159.4 47.9z"/>
				<g id="&lt;Group&gt;">
					<path id="&lt;Compound Path&gt;" fill-rule="evenodd" class="s2" d="m676.1 1088.5h21.9l0.2 5.7c18 0.5 33.9 2.7 47.6 6.5l-24 10.1c-9.5-2.6-17.3-4.1-23.6-4.7l0.5 13.1c36.5 3.7 55.7 10.6 57.3 21.1 0.8 5.5-3.3 10.2-12.7 14.1q-14.2 6-43.5 7.9l0.4 10h-25.9l0.2-9.9h-4.2c-9.5 0-20.6-1-33.2-2.9q-18.6-2.9-28.4-7.3l27.8-11.6c10.7 4 23.5 6.5 38.2 7.6l0.3-17.2q-26.3-2.3-39.6-7.8-12.9-5.4-12-12.3c0.7-4.7 5.4-8.6 14.2-11.8 8.6-3.1 21.4-4.7 38.4-5zm-0.8 28.3l0.2-11.1q-12.9 1.4-13.1 5.3-0.2 4.3 12.9 5.8zm23.9 17.1l0.4 13.3q15.5-1.3 15.1-6.7-0.3-4.8-15.5-6.6z"/>
				</g>
				<g id="&lt;Group&gt;">
					<path id="&lt;Path&gt;" class="s1" d="m1017.3 1126.6c6 8.2-9.1 15.1-33.9 15.1-24.7 0-48.4-6.9-52.8-15.1-4.3-7.9 11.2-14.1 34.4-14.1 23.2 0 46.6 6.2 52.3 14.1z"/>
					<path id="&lt;Path&gt;" class="s1" d="m436 1126.6c-4.4 8.2-28.1 15.1-52.9 15.1-24.7 0-39.8-6.9-33.9-15.1 5.8-7.9 29.1-14.1 52.3-14.1 23.3 0 38.7 6.2 34.5 14.1z"/>
				</g>
			</g>
			<g id="&lt;Group&gt;">
				<path id="&lt;Path&gt;" class="s3" d="m1240 1188.2h-1113.4l158.6-157.3h796.1z"/>
				<path id="&lt;Path&gt;" class="s2" d="m1053.2 1056c-21.9 0-43.8-5.4-48.8-11.8-0.5-0.6-0.8-1.3-1-1.9h-640.6c-0.1 0.8-0.4 1.6-1.1 2.5-5 6.4-27 11.8-48.9 11.8q-2 0-3.9-0.1l-80.7 90.7c4.2-0.4 8.4-0.6 12.5-0.6 26.6 0 41.8 8.1 33.8 18.5-0.6 0.8-1.3 1.6-2.1 2.3h837.2c-1.3-1.1-2.5-2.1-3.4-3.2-8-10.1 5.9-18 30.9-18.5l-80-89.8q-1.9 0.1-3.9 0.1z"/>
				<path id="&lt;Path&gt;" class="s1" d="m842.7 1096.5c10.9 31.6-59.8 60.6-159.4 60.6-99.7 0-170.4-29-159.5-60.6 9.7-27.8 80.6-48 159.5-48 78.9 0 149.8 20.2 159.4 48z"/>
				<g id="&lt;Group&gt;">
					<path id="&lt;Compound Path&gt;" fill-rule="evenodd" class="s2" d="m676.1 1058.4h21.9l0.2 5.7c18 0.5 33.9 2.7 47.6 6.5l-24 10.1c-9.5-2.6-17.3-4.1-23.6-4.7l0.5 13.1c36.5 3.7 55.7 10.6 57.3 21.1 0.8 5.5-3.3 10.2-12.7 14.1q-14.2 5.9-43.5 7.9l0.4 9.9h-25.9l0.2-9.8h-4.2c-9.5 0-20.6-1-33.2-2.9q-18.6-2.9-28.4-7.3l27.8-11.6c10.7 4 23.5 6.5 38.2 7.6l0.3-17.2q-26.3-2.3-39.6-7.8-12.9-5.4-12-12.3c0.7-4.7 5.4-8.6 14.2-11.8 8.6-3.1 21.4-4.7 38.4-5zm-0.8 28.3l0.2-11.1q-12.9 1.4-13.1 5.3-0.2 4.3 12.9 5.8zm23.9 17.1l0.4 13.3q15.5-1.3 15.1-6.7-0.3-4.8-15.5-6.6z"/>
				</g>
				<g id="&lt;Group&gt;">
					<path id="&lt;Path&gt;" class="s1" d="m1017.3 1096.5c6 8.2-9.1 15.1-33.9 15.1-24.7 0-48.4-6.9-52.8-15.1-4.3-7.9 11.2-14.1 34.4-14.1 23.2 0 46.6 6.2 52.3 14.1z"/>
					<path id="&lt;Path&gt;" class="s1" d="m436 1096.5c-4.4 8.2-28.1 15.1-52.9 15.1-24.7 0-39.8-6.9-33.9-15.1 5.8-7.9 29.1-14.1 52.3-14.1 23.3 0 38.7 6.2 34.5 14.1z"/>
				</g>
			</g>
			<g id="&lt;Group&gt;">
				<path id="&lt;Path&gt;" class="s1" d="m1240 1158.1h-1113.4l158.6-157.3h796.1z"/>
				<path id="&lt;Path&gt;" class="s2" d="m1053.2 1025.9c-21.9 0-43.8-5.4-48.8-11.8-0.5-0.6-0.8-1.3-1-1.9h-640.6c-0.1 0.8-0.4 1.6-1.1 2.5-5 6.4-27 11.8-48.9 11.8q-2 0-3.9-0.1l-80.7 90.7c4.2-0.4 8.4-0.6 12.5-0.6 26.6 0 41.8 8.1 33.8 18.5-0.6 0.8-1.3 1.6-2.1 2.3h837.2c-1.3-1.1-2.5-2.1-3.4-3.2-8-10.1 5.9-18 30.9-18.5l-80-89.8q-1.9 0.1-3.9 0.1z"/>
				<path id="&lt;Path&gt;" class="s1" d="m842.7 1066.4c10.9 31.6-59.8 60.6-159.4 60.6-99.7 0-170.4-29-159.5-60.6 9.7-27.8 80.6-48 159.5-48 78.9 0 149.8 20.2 159.4 48z"/>
				<g id="&lt;Group&gt;">
					<path id="&lt;Compound Path&gt;" fill-rule="evenodd" class="s2" d="m676.1 1028.3h21.9l0.2 5.7c18 0.5 33.9 2.7 47.6 6.5l-24 10c-9.5-2.5-17.3-4-23.6-4.6l0.5 13.1c36.5 3.7 55.7 10.6 57.3 21.1 0.8 5.5-3.3 10.2-12.7 14.1q-14.2 5.9-43.5 7.9l0.4 9.9h-25.9l0.2-9.8h-4.2c-9.5 0-20.6-1-33.2-2.9q-18.6-2.9-28.4-7.3l27.8-11.6c10.7 4 23.5 6.5 38.2 7.6l0.3-17.2q-26.3-2.3-39.6-7.8-12.9-5.4-12-12.3c0.7-4.7 5.4-8.6 14.2-11.8 8.6-3.1 21.4-4.8 38.4-5zm-0.8 28.3l0.2-11.1q-12.9 1.4-13.1 5.3-0.2 4.3 12.9 5.8zm23.9 17.1l0.4 13.3q15.5-1.3 15.1-6.7-0.3-4.8-15.5-6.6z"/>
				</g>
				<g id="&lt;Group&gt;">
					<path id="&lt;Path&gt;" class="s1" d="m1017.3 1066.4c6 8.2-9.1 15-33.9 15-24.7 0-48.4-6.8-52.8-15-4.3-7.9 11.2-14.1 34.4-14.1 23.2 0 46.6 6.2 52.3 14.1z"/>
					<path id="&lt;Path&gt;" class="s1" d="m436 1066.4c-4.4 8.2-28.1 15-52.9 15-24.7 0-39.8-6.8-33.9-15 5.8-7.9 29.1-14.1 52.3-14.1 23.3 0 38.7 6.2 34.5 14.1z"/>
				</g>
			</g>
			<g id="&lt;Group&gt;">
				<path id="&lt;Path&gt;" class="s3" d="m1240 1128h-1113.4l158.6-157.3h796.1z"/>
				<path id="&lt;Path&gt;" class="s2" d="m1053.2 995.8c-21.9 0-43.8-5.4-48.8-11.8-0.5-0.7-0.8-1.3-1-1.9h-640.6c-0.1 0.8-0.4 1.6-1.1 2.5-5 6.4-27 11.8-48.9 11.8q-2 0-3.9-0.1l-80.7 90.7c4.2-0.4 8.4-0.6 12.5-0.6 26.6 0 41.8 8.1 33.8 18.5q-0.9 1.2-2.1 2.3h837.2c-1.3-1.1-2.5-2.1-3.4-3.2-8-10.1 5.9-18 30.9-18.5l-80-89.8q-1.9 0.1-3.9 0.1z"/>
				<path id="&lt;Path&gt;" class="s1" d="m842.7 1036.3c10.9 31.6-59.8 60.6-159.4 60.6-99.7 0-170.4-29-159.5-60.6 9.7-27.8 80.6-48 159.5-48 78.9 0 149.8 20.2 159.4 48z"/>
				<g id="&lt;Group&gt;">
					<path id="&lt;Compound Path&gt;" fill-rule="evenodd" class="s2" d="m676.1 998.2h21.9l0.2 5.7c18 0.5 33.9 2.7 47.6 6.5l-24 10c-9.5-2.5-17.3-4-23.6-4.7l0.5 13.2c36.5 3.7 55.7 10.6 57.3 21.1 0.8 5.5-3.3 10.2-12.7 14.1q-14.2 5.9-43.5 7.9l0.4 9.9h-25.9l0.2-9.8h-4.2c-9.5 0-20.6-1-33.2-2.9q-18.6-2.9-28.4-7.3l27.8-11.6c10.7 4 23.5 6.5 38.2 7.6l0.3-17.2q-26.3-2.3-39.6-7.8-12.9-5.4-12-12.3c0.7-4.7 5.4-8.6 14.2-11.8 8.6-3.1 21.4-4.8 38.4-5zm-0.8 28.3l0.2-11.1q-12.9 1.4-13.1 5.3-0.2 4.3 12.9 5.8zm23.9 17.1l0.4 13.3q15.5-1.3 15.1-6.7-0.3-4.8-15.5-6.6z"/>
				</g>
				<g id="&lt;Group&gt;">
					<path id="&lt;Path&gt;" class="s1" d="m1017.3 1036.3c6 8.2-9.1 15-33.9 15-24.7 0-48.4-6.8-52.8-15-4.3-7.9 11.2-14.1 34.4-14.1 23.2 0 46.6 6.2 52.3 14.1z"/>
					<path id="&lt;Path&gt;" class="s1" d="m436 1036.3c-4.4 8.2-28.1 15-52.9 15-24.7 0-39.8-6.8-33.9-15 5.8-7.9 29.1-14.1 52.3-14.1 23.3 0 38.7 6.2 34.5 14.1z"/>
				</g>
			</g>
			<g id="&lt;Group&gt;">
				<path id="&lt;Path&gt;" class="s1" d="m1240 1097.9h-1113.4l158.6-157.3h796.1z"/>
				<path id="&lt;Path&gt;" class="s2" d="m1053.2 965.7c-21.9 0-43.8-5.4-48.8-11.8-0.5-0.7-0.8-1.3-1-1.9h-640.6c-0.1 0.8-0.4 1.6-1.1 2.5-5 6.4-27 11.8-48.9 11.8q-2 0-3.9-0.1l-80.7 90.7c4.2-0.4 8.4-0.6 12.5-0.6 26.6 0 41.8 8.1 33.8 18.5-0.6 0.8-1.3 1.5-2.1 2.3h837.2c-1.3-1.1-2.5-2.1-3.4-3.2-8-10.1 5.9-18 30.9-18.5l-80-89.8q-1.9 0.1-3.9 0.1z"/>
				<path id="&lt;Path&gt;" class="s1" d="m842.7 1006.2c10.9 31.6-59.8 60.6-159.4 60.6-99.7 0-170.4-29-159.5-60.6 9.7-27.8 80.6-48 159.5-48 78.9 0 149.8 20.2 159.4 48z"/>
				<g id="&lt;Group&gt;">
					<path id="&lt;Compound Path&gt;" fill-rule="evenodd" class="s2" d="m676.1 968.1h21.9l0.2 5.7c18 0.5 33.9 2.7 47.6 6.5l-24 10c-9.5-2.5-17.3-4-23.6-4.7l0.5 13.2c36.5 3.7 55.7 10.6 57.3 21.1 0.8 5.5-3.3 10.2-12.7 14.1q-14.2 5.9-43.5 7.8l0.4 10h-25.9l0.2-9.8h-4.2c-9.5 0-20.6-1-33.2-2.9q-18.6-2.9-28.4-7.3l27.8-11.6c10.7 4 23.5 6.5 38.2 7.5l0.3-17.2q-26.3-2.2-39.6-7.7-12.9-5.4-12-12.3c0.7-4.7 5.4-8.7 14.2-11.8 8.6-3.1 21.4-4.8 38.4-5zm-0.8 28.3l0.2-11.1q-12.9 1.4-13.1 5.3-0.2 4.3 12.9 5.8zm23.9 17.1l0.4 13.3q15.5-1.4 15.1-6.7-0.3-4.8-15.5-6.6z"/>
				</g>
				<g id="&lt;Group&gt;">
					<path id="&lt;Path&gt;" class="s1" d="m1017.3 1006.2c6 8.2-9.1 15-33.9 15-24.7 0-48.4-6.8-52.8-15-4.3-7.9 11.2-14.1 34.4-14.1 23.2 0 46.6 6.2 52.3 14.1z"/>
					<path id="&lt;Path&gt;" class="s1" d="m436 1006.2c-4.4 8.2-28.1 15-52.9 15-24.7 0-39.8-6.8-33.9-15 5.8-7.9 29.1-14.1 52.3-14.1 23.3 0 38.7 6.2 34.5 14.1z"/>
				</g>
			</g>
		</g>
		<g id="&lt;Group&gt;">
			<g id="&lt;Group&gt;">
				<path id="&lt;Path&gt;" class="s5" d="m495.1 350.6c-8.7 7.2-17.1 15-15.9 18.4l0.1 0.7q1.4-0.3 2.8-0.6c0 0-2.4 1.4 1-0.3q0.4-0.1 0.8-0.2c-2.3 2.5-3.4 5.4-2 8.7 4.5 10.8 20.4 4.7 28.5 2.4 6.6-1.7 31.2-12.3 37.2-15.5 6.9-3.7 14.4-17.9 8.5-25.2-6.1-7.4-31.8 12.4-36.7 6.4-2.7-3.2 4.4-14.9-5.9-8.8-2.1 1.6-10.4 7.5-18.4 14z"/>
				<g id="&lt;Group&gt;">
					<g id="&lt;Group&gt;">
						<path id="&lt;Path&gt;" class="s5" d="m228.2 972.6c0 0-20.9 53.4 22.2 225.4 3.4 13.8 14.2 12.9 19.9 8.4 3.8-2.9 3.8-8.6 3.8-8.6 0 0 20.4-195.8 15.2-220.1-5.1-24.1-61.1-5.1-61.1-5.1z"/>
					</g>
					<path id="&lt;Path&gt;" class="s6" d="m283.6 577h-99.8q0 0.7 0 1.3 0.1 28.7 0.4 57.4c0.7 48.3-0.4 36 2.4 84.2 2.5 41.1 32.5 227.7 36.8 237.6 4.3 10.1 2.2 28.5 10.9 36.1 13.9 12.1 40.9 18.5 52.5 3.4 7.9-10.2 4.3-62.8 5.8-75.8 1.1-11.1 1.1-22.5 1.6-32.9 2.1-41.6-0.8-83.5-0.9-125.1-0.3-58.5-0.5-114.9-9.7-186.2z"/>
					<path id="&lt;Path&gt;" class="s7" d="m332.4 1215.7c-6.8-1-9-0.1-15.7-1.2-6.8-1.1-13.3-3.5-19.5-6.5-5.9-3-14.7-9.1-19.9-13.2-0.7-0.6-1.3-1-2-1.3-9.2 4.2-14.5 3.9-24.3-0.3-1-0.4-1.6-1-1.9-1.6q-0.5 0.3-0.7 0.8c-1.6 1.9-2 4.7-2.3 7.2-0.7 4.6-2.8 23.5-2 28 1.4 6.4 35.9 13.9 47.3 14.6 15.3 1 26.9 1.6 42-0.8 14.7-2.4 10.5-24.1-1-25.7z"/>
					<g id="&lt;Group&gt;">
						<path id="&lt;Path&gt;" class="s5" d="m156.1 966.8c0 0 20.9 53.4-22.2 225.4-3.4 13.8-14.2 12.9-19.9 8.5-3.8-3-3.9-8.6-3.9-8.6 0 0-10.4-199.5-5.2-223.7 5.1-24.2 51.2-1.6 51.2-1.6z"/>
					</g>
					<path id="&lt;Path&gt;" class="s6" d="m104 577c-2.3 4.9-3.8 9.3-4.3 12.9-8.5 65.3-8.5 108.5-8.6 167.5-0.2 41.6 4.3 170.7 6.9 219.1 1 19.1 43.4 32.6 57.3 20.5 8.7-7.7 14.7-14.2 19.1-24.3 4.3-10 19.9-231.8 22.3-272.9 2.8-48.3 2.7-21.6 3.3-69.9 0.3-17.6 0.5-35.3 0.5-52.9z"/>
					<path id="&lt;Path&gt;" class="s7" d="m191.1 1217.8c-6.9-1-9 0-15.8-1.2-6.7-1.1-13.4-3.5-19.4-6.5-6.1-3-14.8-9.1-20-13.2q-1-0.8-1.9-1.3c-9.3 4.2-14.5 3.9-24.4-0.3-0.9-0.4-1.5-1-1.9-1.6q-0.4 0.4-0.8 0.8c-1.5 2-1.8 4.8-2.2 7.2-0.7 4.6-2.8 23.5-1.9 28.1 1.3 6.3 35.9 13.8 47.2 14.5 15.3 1 26.9 1.6 42-0.8 14.7-2.4 10.6-24.1-0.9-25.7z"/>
					<path id="&lt;Path&gt;" class="s6" d="m279.1 1198c5.6-57.3 14-202.5 10.2-220.3-5.1-24.1-61.1-5.1-61.1-5.1 0 0-25 53.6 19.4 224.1z"/>
					<path id="&lt;Path&gt;" class="s6" d="m138.8 1198.4c35.7-154.2 37.4-242.9 37.4-242.9 0 0-79.3-29.3-77.3 15.5 0.8 18.8 2.7 168.3 6.4 228.1z"/>
					<g id="&lt;Group&gt;">
						<g id="&lt;Group&gt;">
							<g id="&lt;Group&gt;">
								<path id="&lt;Path&gt;" class="s5" d="m382.2 486.4c-7.1-2.9-26.6-14.6-25.9-25.9 0.7-9.5 4.8-11.7 4.8-11.7 41.7-31.3 81.9-56.7 116.2-74.6 33.9-17.7 20.2 16 20.2 16-30.4 29.9-56.5 60.5-115.3 96.2z"/>
							</g>
						</g>
					</g>
					<g id="&lt;Group&gt;">
						<g id="&lt;Group&gt;">
							<g id="&lt;Group&gt;">
								<path id="&lt;Path&gt;" class="s5" d="m404 458.4c-24-72.8-40.2-75.6-61.2-108.2-30.7-47.7-97-88.2-106.2-52.8-4.5 17.5 119.1 157.8 138.4 185.5 10.2-3.9 17.6-17.9 29-24.5z"/>
							</g>
						</g>
					</g>
					<g id="&lt;Group&gt;">
						<g id="&lt;Group&gt;">
							<path id="&lt;Path&gt;" class="s8" d="m372.5 493.1c-16.9-22.8-86.2-114.1-93.4-122.2-42.2-47.8-62.2-67.8-43.3-94 21.4-29.7 73.9 20.2 109 63.1 23.1 28.3 34.1 43.8 65 101.6 4.7 19.3-17.2 59.1-37.3 51.5z"/>
						</g>
					</g>
					<g id="&lt;Group&gt;">
						<g id="&lt;Group&gt;">
							<path id="&lt;Path&gt;" class="s9" d="m469.9 377.5c-33 17.7-74.8 39.1-114.1 68.7-3.2 13.6 1.2 4.8 0.5 14.3-0.7 11.3 23 28.3 30.1 31.2 53.2-32.2 75.4-63.1 102.4-90.3z"/>
						</g>
					</g>
					<g id="&lt;Group&gt;">
						<g id="&lt;Group&gt;">
							<path id="&lt;Path&gt;" class="s10" d="m478.1 412.7c3.6-4 7.2-7.8 10.7-11.3l-18.9-23.9c-4.6 2.5-9.3 5.1-14.2 7.8z"/>
						</g>
					</g>
					<path id="&lt;Path&gt;" class="s11" d="m262 268.1c-4.9-1.6-35.9-8.3-41.5-9.3-6.6 5.9-14.6-2.7-24.3-3-10.2-0.5-22.2 7.1-29 1.8-0.4-0.3-0.7-0.6-1-1-5 0.3 8.2 0.7 3 1.2-13.5 1.6-54.8 21.3-63.5 26.6-35.5 22-22.8 52.8-22 65.3 2 33.3 5.2 297.1-0.9 333h216.3c3.6-3.1-5.1-294.9-7.7-337.3-3.5-56.7-1.8-67.5-29.4-77.3z"/>
					<path id="&lt;Path&gt;" class="s12" d="m193.2 75.1c-11.6-1.9-22.7 1.1-33.1 6.3-4.8 2.3-8.2 4-13.4 5.4-17.5 4.6-21.4 30.9-20.1 46 0.8 8.3 4.1 16.5 6.5 24.4 6 20.8 23.1 42 46.8 40.9 15.1-0.7 30.6-9 40-20.9 23.4-29.5 17.1-94.8-26.7-102.1z"/>
					<g id="&lt;Group&gt;">
						<g id="&lt;Group&gt;">
							<path id="&lt;Path&gt;" class="s5" d="m149.2 170.8c4.1 8.8 20.4 18 21.9 9.3 0.8-5.3 0.1-16.4-3.9-25.1-4-8.8-2.8-10.4-10.8-6.7-8 3.7-11.2 13.8-7.2 22.5z"/>
						</g>
					</g>
					<g id="&lt;Group&gt;">
						<path id="&lt;Path&gt;" class="s5" d="m170.8 187.7c1.4-19.1 57.5 16.4 57.5 16.4l-6 72.9c0 0-0.6-2.9-28.2-2.3-16.7 0.4-27.2 5.7-26.4-10 0.6-9.6 2.6-70.4 3.1-77z"/>
					</g>
					<path id="&lt;Path&gt;" class="s13" d="m169.9 206.1c8 25.6 30.7 44.1 54.6 42.2l3.8-44.2c0 0-56.1-35.5-57.5-16.4-0.2 2 0.2-4.1-0.7 4.4 0.4 0.4-0.3 13.4-0.2 14z"/>
					<g id="&lt;Group&gt;">
						<path id="&lt;Path&gt;" class="s5" d="m240.9 214.5c-16 12.8-47.5 9.3-61.3-4.9-8.4-8.6-13.1-18.1-15-29.5-2.1-12.8-1.1-24.9-3.2-37.8-0.9-5.6-1.6-11.2-1.3-16.8 0.4-9 3.7-18 9.2-25.4 5.5-7.2 13.9-10.9 21.5-15.6 6.4-3.9 13.6-8.8 21.1-10.2 5.3-0.8 8.8 2.2 13.1 5 23.4 14.5 35.3 47.7 35.9 74.3 0.5 19.8-3.6 47.7-20 60.9z"/>
					</g>
					<path id="&lt;Path&gt;" class="s14" d="m232 490.2c0 0-20.7 60.4-26.9 60.7-7.3 0.3-24.3-60.7-24.3-60.7l11.7-204.5h16.7z"/>
					<path id="&lt;Path&gt;" class="s14" d="m216.4 275.8c0 9.1-6.6 16.5-14.7 16.5-8.2 0-14.8-7.4-14.8-16.5 0-9.2 7.2-18.5 15.4-18.5 8.2 0 14.1 9.3 14.1 18.5z"/>
					<path id="&lt;Path&gt;" class="s15" d="m204.2 285.1c-8.3-2.9-14.1-9.3-15.8-16.8-0.9 2.4-1.5 4.9-1.5 7.5 0 9.1 6.6 16.5 14.8 16.5 4.8 0 9.1-2.6 11.8-6.6-2.8 0.7-5.8 0.6-9.3-0.6z"/>
					<path id="&lt;Path&gt;" class="s10" d="m170.5 235.5l27.9 19.3-15.3 32.6-40.8-21c0 0 13.7-29.7 28.2-30.9z"/>
					<path id="&lt;Path&gt;" class="s10" d="m198.4 254.8l24.2 29.2 22.2-19.8c0 0-6-19.3-19.3-21.4z"/>
					<path id="&lt;Path&gt;" class="s12" d="m262.4 61.7c-0.7-9.3-6.3-9.4-14.3-8.1-7.8 1.1-15.5 3.4-23.5 3.7-9 0.5-16.7-1.3-25.3-2.7-14.9-2.3-30.2 1.5-43.8 8.6-20.3 10.5-32.6 45.7-28.9 68.9 1.2 7.6 4.1 5.8 10 10.8 2.6 2.4 6.1 5.3 9.5 6.4 2.9 1.1 7.1-0.3 10.1-0.6 1.4-1.7 4.9 1.4 5.9 2.9 1.8 2.4 2.8 7.1 6.9 5.9 3.6-1 4.8-5.6 5.1-8.9 0.8-6.8-0.1-13.6 0.1-20.4 0.5-14 13.4-14.1 24.5-16.1 19-3.5 36.4-6.2 52.3-18.8 8.8-6.9 12.2-20.8 11.4-31.6z"/>
				</g>
				<g id="&lt;Group&gt;">
					<path id="&lt;Compound Path&gt;" fill-rule="evenodd" class="s16" d="m725.5 352.9c-1.1 7.3-2.5 14.5-4.3 21.6l20.2 8.4-21.5 51.5-20.2-8.5c-3.6 6-7.5 11.8-11.6 17.3l15.5 15.5-39.5 39.4-15.5-15.3c-5.8 4.4-12 8.4-18.3 12.2l8.3 20.2-51.6 21.2-8.3-20.2q-10.1 2.6-20.5 4.1v21.7h-55.8v-21.7c-7.4-1.1-14.6-2.5-21.7-4.3l-8.3 20-51.6-21.5 8.4-20.1q-8.9-5.4-17.2-11.6l-15.5 15.3-39.5-39.4 15.5-15.5c-4.4-5.8-8.4-12-12.2-18.3l-20.2 8.3-21.2-51.6 20.3-8.4q-2.6-10-4-20.3h-21.9v-55.9h21.9q1.6-11 4.3-21.5l-20.3-8.5 21.6-51.5 20.4 8.5q5.3-8.9 11.5-17.2l-15.7-15.6 39.5-39.5 15.7 15.6c5.8-4.4 12-8.4 18.3-12.1l-8.4-20.5 51.6-21.1 8.4 20.4q10-2.5 20.3-4v-22.1h55.8v22.1q11.1 1.6 21.6 4.3l8.5-20.4 51.5 21.5-8.5 20.4q8.8 5.4 17.2 11.5l15.6-15.6 39.5 39.5-15.7 15.6c4.4 5.8 8.5 11.9 12.2 18.3l20.5-8.4 21.1 51.6-20.3 8.3q2.5 10 4 20.4h22v55.9zm-84.5-27.8c0-61.2-49.4-110.7-110.6-110.7-61.2 0-110.7 49.5-110.7 110.7 0 61.2 49.5 110.7 110.7 110.7 61.2 0 110.6-49.5 110.6-110.7z"/>
					<path id="&lt;Compound Path&gt;" fill-rule="evenodd" class="s16" d="m530.3 422.5c-54 0-97.6-43.6-97.6-97.6 0-53.9 43.6-97.6 97.6-97.6 54 0 97.6 43.7 97.6 97.6 0 54-43.6 97.6-97.6 97.6zm47.7-97.6c0-26.3-21.3-47.6-47.7-47.6-26.4 0-47.7 21.3-47.7 47.6 0 26.4 21.3 47.7 47.7 47.7 26.4 0 47.7-21.3 47.7-47.7z"/>
				</g>
				<g id="&lt;Group&gt;">
					<g id="&lt;Group&gt;">
						<g id="&lt;Group&gt;">
							<g id="&lt;Group&gt;">
								<path id="&lt;Path&gt;" class="s5" d="m241.8 494.5c-17.5-74.6-33.4-78.8-51.3-113.1-26.4-50.3-88.8-96.5-101.1-62-6.1 16.9 104.6 167.7 121.3 196.9 10.5-2.9 19.1-16.1 31.1-21.8z"/>
							</g>
						</g>
					</g>
					<g id="&lt;Group&gt;">
						<g id="&lt;Group&gt;">
							<path id="&lt;Path&gt;" class="s11" d="m207.2 526.4c-14.7-24.2-80.4-113.4-86.2-122.6-40.4-64.4-51.7-80.5-30.6-105 24-27.7 71.8 26.7 103 72.5 20.5 30.3 30 46.7 55.7 107.1 2.9 19.6-22.5 57.2-41.9 48z"/>
						</g>
					</g>
					<g id="&lt;Group&gt;">
						<g id="&lt;Group&gt;">
							<g id="&lt;Group&gt;">
								<path id="&lt;Path&gt;" class="s5" d="m218.6 513.4c-5.6-5.2-19.8-23.1-15.1-33.4 4-8.6 8.7-9.1 8.7-9.1 50.1-14.5 96.7-24 135.2-28.6 37.8-4.6 13.1 22.2 13.1 22.2-39 17.1-74.2 36.5-141.9 48.9z"/>
							</g>
						</g>
					</g>
					<path id="&lt;Path&gt;" class="s5" d="m363.8 432.1c-8.8 7.2-17.1 15.1-16 18.5l0.2 0.6q1.4-0.3 2.7-0.6c0 0-2.3 1.5 1.1-0.3q0.4-0.1 0.9-0.1c-2.4 2.4-3.5 5.3-2.1 8.6 4.5 10.8 20.5 4.7 28.5 2.5 6.5-1.8 31.2-12.4 37.2-15.5 6.9-3.8 14.3-18 8.5-25.2-6.1-7.5-31.8 12.4-36.7 6.4-2.7-3.3 4.4-14.9-6-8.8-2.1 1.6-10.3 7.5-18.3 13.9z"/>
					<g id="&lt;Group&gt;">
						<g id="&lt;Group&gt;">
							<path id="&lt;Path&gt;" class="s11" d="m339.2 442.8c-37.2 4.8-83.7 10.1-131 23.7-7.9 11.6-0.7 4.9-4.7 13.5-4.7 10.3 1.3 42.3 7 47.4 61.1-11.3 103-39.8 137.9-55.7z"/>
						</g>
					</g>
					<g id="&lt;Group&gt;">
						<g id="&lt;Group&gt;">
							<path id="&lt;Path&gt;" class="s10" d="m334.4 478.6c4.8-2.5 9.5-4.8 14-6.9l-9.2-28.9c-5.1 0.6-10.5 1.4-16 2.2z"/>
						</g>
					</g>
				</g>
			</g>
			<g id="&lt;Group&gt;">
				<path id="&lt;Path&gt;" class="s16" d="m1265.2 159.5c1.3 3.1 2.3 6.2 3.1 9.2 4.5 19.9-3.1 49.5-6.5 69.7-5.3 25.3 35.8 46 52.4 58.7 22.5 17.1 31.5 41 29.1 70.3-2 25.6-19.6 54.9-43.9 65.7-15.8 7-33.5 1.9-47.2 14.4-14.2 13-15 42.1-41.8 28.8-17.6-8.8-30.1-38.5-40.4-54.3-16.6-25.4-20.2-57.1-37.5-81.8-18.6-27-44.3-28.5-29.3-67.3 7.3-19.2-3.6-36.4-8.4-54.8-5.4-21.6-0.4-41.7 8.7-60.9 5.3-10.9 3.3-22.2 9.6-32.9 6.8-11.6 12.5-22.1 24.4-29.5 25-15.6 65.2-8.4 85.7 11.6 13.9 13.6 33.6 33.2 42 53.1z"/>
				<g id="&lt;Group&gt;">
					<g id="&lt;Group&gt;">
						<path id="&lt;Path&gt;" class="s17" d="m999.3 322.7c22.6-4.7 52.5-6.6 61.2-9.2 51-15 99.8-27.1 107.1-3.9 8.4 26.3-44.5 50.8-88.9 61.7-38.5 9.5-66.4 7.8-108 9.7 0.5-16.7 13.9-45.8 28.6-58.3z"/>
					</g>
				</g>
				<g id="&lt;Group&gt;">
					<g id="&lt;Group&gt;">
						<path id="&lt;Path&gt;" class="s5" d="m1203.2 188.8c-1.6 8.5-14 19.9-17.1 12.7-1.9-4.5-3.6-14.3-1.8-22.9 1.7-8.5 0.3-9.5 8-8 7.8 1.6 12.7 9.7 10.9 18.2z"/>
					</g>
				</g>
				<g id="&lt;Group&gt;">
					<path id="&lt;Path&gt;" class="s5" d="m1187.4 217.2c-1.3-17.1-51.6 14.8-51.6 14.8l5.3 65.5c0 0 0.6-2.6 25.3-2.1 15.1 0.4 27.9-0.3 27.2-14.5-0.5-8.6-5.7-57.8-6.2-63.7z"/>
				</g>
				<path id="&lt;Path&gt;" class="s13" d="m1188.2 233.8c-7.1 23-27.6 39.6-49 37.9l-3.4-39.7c0 0 50.3-31.9 51.6-14.8 0.1 1.9 0.8 7.7 1.5 15.2q-0.5 0.6-0.7 1.4z"/>
				<g id="&lt;Group&gt;">
					<path id="&lt;Path&gt;" class="s5" d="m1132.3 246c16.6 7.9 43.4-1.7 52.5-17 5.6-9.2 7.7-18.5 7-28.9-0.8-11.6-4.2-22-5.1-33.6-0.4-5.1-0.9-10.2-2.3-15-2.3-7.9-7-15-13.3-20.2-6.3-5.3-14.4-6.7-22.1-9.2-6.4-2.1-13.7-4.9-20.6-4.5-4.7 0.3-7.2 3.8-10.3 7-17.5 17.6-20.9 49-15.9 72.4 3.7 17.4 13.1 41 30.1 49z"/>
				</g>
				<g id="&lt;Group&gt;">
					<path id="&lt;Path&gt;" class="s5" d="m1117.1 656.6c1.6 32.7 11.4 54.2 18.5 72.9 37 97 63.9 188.9 79.6 215.3 17.2 29 67.8-22.9 67.8-22.9 0 0-69.8-289.3-86-307.8-16-18.6-81.1 16.2-79.9 42.5z"/>
				</g>
				<path id="&lt;Path&gt;" class="s6" d="m1117.1 656.6c1.6 32.7 11.4 54.2 18.5 72.9 37 97 63.9 188.9 79.6 215.3 17.2 29 72-11.2 72-11.2 0 0-61.9-299.2-78.1-317.7-16-18.6-93.2 14.4-92 40.7z"/>
				<g id="&lt;Group&gt;">
					<path id="&lt;Path&gt;" class="s5" d="m1224.3 984.1c0 0 12.8 41.5 113.1 165.1 13.4 16.6 18.8-7.3 18.8-7.3 0 0-78.2-184.5-91.5-202.2-13.4-17.8-40.4 44.4-40.4 44.4z"/>
				</g>
				<path id="&lt;Path&gt;" class="s6" d="m1259.5 1086.3c-35.3-64-47.7-146.6-47.7-146.6 0 0 60.3-26.4 73.6-8.7 6.8 8.9 31.1 62.2 53.8 113.7-17.7 8.7-79.5 41.5-79.7 41.6z"/>
				<g id="&lt;Group&gt;">
					<path id="&lt;Path&gt;" class="s5" d="m1119.6 641.5c-18.3 27.2-23.3 50.3-28.7 69.5-28.5 99.9-42.8 176.6-46 207.1-3.5 33.3 48.9 35.2 48.9 35.2 0 0 117.1-273.5 115.3-298-1.7-24.5-74.7-35.6-89.5-13.8z"/>
				</g>
				<g id="&lt;Group&gt;">
					<path id="&lt;Path&gt;" class="s5" d="m1046 983.3c0 0-7.2 44.4 31.5 198.8 5.2 20.7 21.4 0 21.4 0 0 0 6.6-172.4 2-194.2-4.6-21.7-54.9-4.6-54.9-4.6z"/>
				</g>
				<path id="&lt;Path&gt;" class="s6" d="m1032.2 1122.7c-12.7-94.8 6.5-192.6 6.5-192.6 0 0 57.9 1.8 62.4 23.4 2.7 12.3 22.8 120.3 23.5 169.2z"/>
				<path id="&lt;Path&gt;" class="s6" d="m1046.7 869.7c7.7-42.5 17.7-84.7 30-126.2 13.8-47.1 25.7-88.5 45-133.5 5-11.6-1.6-60.8 5.9-65.8 17.7-11.7 62.7 2.5 86.7 7.3 5.8 1.1 9.4 4.1 14.4 7.2 8.1 5.1 18.7 32.5 21.4 41.6 7.4 24.9 1.8 55.8-11.4 77-10.6 16.9-20.6 34.2-30.4 51.6-8.3 15-18.7 28.3-27.2 43.4-19.2 33.5-31.6 70-45.7 106-4.6 12.2-34.7 70.1-34.8 78.6-0.8 44.8-40.8-18.8-54.6-22.8-7.9-2.3-7.4-3.8-6.9-12.3 0.4-6.6 1.3-13 2.3-19.5q2.4-16.3 5.3-32.6z"/>
				<g id="&lt;Group&gt;">
					<path id="&lt;Path&gt;" class="s5" d="m1124 567.3c-3.8-77.5-18.9-191.5-9.2-202.6 17.2-19.4 18.1-61.8 30.5-77.4 18.6-23.2 34.7-34.2 57.9-0.5 7.9 11.4 17.7 79.8 19.5 88.4 4.1 19 5.7 113.4 10.4 189.4z"/>
				</g>
				<path id="&lt;Path&gt;" class="s10" d="m1124 567.3c-4-56.8-7.8-103.7-12.8-137.2-1.5-10.2-4.5-20.1-6.2-30.1-1.6-9.2 2.8-22 6.6-30.4 3.7-8.5 7.7-17.1 11.4-25.7 3.5-8.4 6.3-17.3 9.1-25.9 0.8-2.9 5.4-22.7 8.2-22.9 0.3 0 10.7-0.9 14.8-1.8 7.3-1.6 14.2-4.4 20.6-8.2 1.8-1.1 15.8-12.6 16.2-12.1 22.7 23.8 35.6 58.2 39.3 88.8 1.3 11.1-0.7 179.7 3.3 203.4z"/>
				<path id="&lt;Path&gt;" class="s11" d="m1133.9 463.7c-1-34.5 0-69.3 10.2-102.6 8.8-28.6 21.9-55 37.4-80.4 4.6-3.6 10.2-8 10.4-7.7 22.7 23.8 35.6 58.2 39.3 88.8 1.3 11.1 25.1 214.2 29.1 237.8l-108.5 20.9c-5.8-35.9-16.8-120.7-17.9-156.8z"/>
				<g id="&lt;Group&gt;">
					<g id="&lt;Group&gt;">
						<g id="&lt;Group&gt;">
							<path id="&lt;Path&gt;" class="s5" d="m1136.5 520.5c2.1 2.1 27.8 13.4 32.5 2.9 19.2-42.5 28.6-70.3 39.3-102.1 14.5-43.3 15.4-96.2-11.9-100.4-24.1-3.8-32.8 61.8-42.1 114.1-2 11-8.6 24-16.7 59.8 0 0-5.2 18.9-1.1 25.7z"/>
						</g>
					</g>
				</g>
				<path id="&lt;Path&gt;" class="s16" d="m1151.9 90.9c-2.8 1.9-4.9 4.6-8 7.7-6.5 6.2-12.7 13-15.3 21.8-1.8 5.6-2.6 12.5-3.1 18.2-0.9 10.9 3 20.8 11.7 27.4 6.7 5 14 7.4 22.1 8.7 4.2 0.6 9.5 1.7 13 4.4 2.4 1.9 2.8 5.4 5.2 7.2 8 6 7.9-6.9 8.7-11.1q-0.6 3.3 1.4-4.9c2.9-11.9 2.8-21.7 9.8-32 6-9.1 8.5-25.7 2.1-35.3-7.2-10.8-27.3-14.2-39.2-14.3-3.7 0-6.3 0.9-8.4 2.2z"/>
				<path id="&lt;Path&gt;" class="s18" d="m1024.5 1195.4c6.1-1 8-0.1 14.1-1.1 6-1 12-3.1 17.4-5.8 5.5-2.7 13.4-8.2 18-11.9q0.9-0.7 1.8-1.2c8.2 3.8 13 3.6 21.8-0.2 0.8-0.3 1.4-0.9 1.7-1.5q0.4 0.4 0.7 0.7c1.4 1.9 1.7 4.3 2 6.5 0.6 4.1 2.6 21.2 1.7 25.2-1.2 5.7-32.2 12.5-42.4 13.1-13.7 0.8-24.1 1.5-37.7-0.7-13.2-2.1-9.4-21.6 0.9-23.1z"/>
				<path id="&lt;Path&gt;" class="s18" d="m1289.5 1174.7c5.4-3 7.4-2.9 12.9-6 5.2-3 10.1-7 14.3-11.5 4.1-4.4 9.5-12.3 12.6-17.3q0.6-1 1.3-1.8c9.1 0.7 13.4-1.1 20.4-7.8 0.7-0.6 1-1.2 1.1-1.9q0.5 0.1 0.9 0.4c1.9 1.2 3.1 3.4 4.1 5.4 2 3.6 9.8 18.9 10.4 22.9 0.8 5.8-25.9 23-35.2 27.1-12.6 5.6-22.2 9.8-35.6 12.4-13.2 2.6-16.4-16.9-7.2-21.9z"/>
				<path id="&lt;Path&gt;" class="s16" d="m1098.2 156.9c2.4-14.1 6.1-29.3 14.3-41.3 5.7-8.5 14.7-18.4 24.2-22.5 5.2-2.3 13-5.5 18.6-4.7 7 13.8-6.2 33.3-12.3 45.9-4.2 8.5-11.5 10.7-17.7 16.6-4.7 4.6-7.9 10.4-12 15.6-4.2 5.5-9.2 9.4-12.3 15.9-5.6-2.6-3.6-20.7-2.8-25.5z"/>
				<path id="&lt;Compound Path&gt;" fill-rule="evenodd" class="s1" d="m1057.3 303.7q-1 7.2-2.7 14.3l31.8 13.2-16.8 40.4-31.5-13q-3.6 6.2-7.8 12.1l23.9 23.9-31 31-23.7-23.7c-4.6 3.4-9.4 6.6-14.4 9.6l12.3 31.1-40.7 16.1-12.2-31c-4.1 1-8.1 1.8-12.2 2.4v33.2h-43.8v-33.2q-7.6-1.2-14.8-3l-12.8 30.7-40.4-16.8 12.9-30.8q-6.3-3.9-12.2-8.3l-23.7 23.7-31-31 24-23.9q-5-7-9.3-14.4l-31.7 12.5-16-40.7 32-12.7q-1.2-5.8-2.1-11.7h-34.6v-43.8h35q1.2-7.1 3-14.1l-32.4-13.4 16.7-40.4 32.9 13.6q3.6-5.9 7.7-11.4l-25.2-25.3 31-31 25.5 25.6q6.5-4.9 13.6-8.9l-13.3-33.6 40.8-16 13.2 33.6c3.7-0.7 7.4-1.4 11.2-2.1v-36.2h43.8v36.2q6.9 1.1 13.6 2.8l13.8-33.6 40.5 16.9-13.8 33.2q5.9 3.6 11.4 7.7l25.4-25.6 31 31-25.3 25.3q4.9 6.6 9.2 13.7l33-13.1 16.2 40.7-32.7 12.9q1.4 5.7 2.2 11.5h35v43.8zm-61.1-21.9c0-47.5-38.3-85.8-85.8-85.8-47.4 0-85.7 38.3-85.7 85.8 0 47.4 38.3 85.7 85.7 85.7 47.5 0 85.8-38.3 85.8-85.7z"/>
				<g id="&lt;Group&gt;">
					<g id="&lt;Group&gt;">
						<g id="&lt;Group&gt;">
							<path id="&lt;Path&gt;" class="s5" d="m1140.1 522c5.9-3.5 21.7-16.6 19.5-26.5-1.9-8.3-5.8-9.6-5.8-9.6-41.3-22.1-80.5-39.3-113.5-50.5-32.3-11-15.7 17-15.7 17 31.1 22.4 58.5 46 115.5 69.6z"/>
						</g>
					</g>
				</g>
				<g id="&lt;Group&gt;">
					<g id="&lt;Group&gt;">
						<path id="&lt;Path&gt;" class="s10" d="m1135 476c6-22.3 17.5-50 19-58.9 9.3-52.3 20.2-101.3 44.2-97.6 27.4 4.2 25.7 62.6 15.7 107.1-8.7 38.8-22.7 62.9-39.4 101.1-14.9-8-34.9-33-39.5-51.7z"/>
					</g>
				</g>
				<g id="&lt;Group&gt;">
					<path id="&lt;Path&gt;" class="s5" d="m941.3 445.5c15.1 2.6 24.8 3.9 24.8 3.9l10.7-6.6c0 0-2.8-3.8-15.6-5.4-5-0.7-18.1-2.9-15.6-7.2 2.4-4.3 23.9-0.5 36.1-1.7 4.8-0.5 10.1 0.8 14.6 2.4l38.7 3.2-4.5 17.9-60.2 11.5-37.7-12.7c0 0-6.4-8 8.7-5.3z"/>
				</g>
				<g id="&lt;Group&gt;">
					<path id="&lt;Path&gt;" class="s5" d="m971.3 323.5c2.1-10.2 8.9-19.6 20.2-19.4 9.5 0.2 12.2 10.4 13.7 18 2.5 12.6 0.8 18.8-11.9 25-18 8.8-25.1-8.4-22-23.6z"/>
				</g>
			</g>
		</g>
	</g>
	<g id="&lt;Group&gt;">
		<path id="&lt;Path&gt;" class="s19" d="m928 841.8c-40.9-28-126.3-47.3-225.1-47.3-98.7 0-184.1 19.3-225 47.3h-26.1v37.4h0.4c0 46.8 112.3 84.7 250.7 84.7 138.5 0 250.8-37.9 250.8-84.7v-37.4z"/>
		<path id="&lt;Path&gt;" class="s20" d="m953.7 842.2c0 46.8-112.3 84.7-250.8 84.7-138.4 0-250.7-37.9-250.7-84.7 0-46.7 112.3-84.6 250.7-84.6 138.5 0 250.8 37.9 250.8 84.6z"/>
		<g id="&lt;Group&gt;">
			<path id="&lt;Path&gt;" class="s21" d="m911.3 842.2c0 38.9-93.3 70.3-208.4 70.3-115 0-208.3-31.4-208.3-70.3 0-38.8 93.3-70.3 208.3-70.3 115.1 0 208.4 31.5 208.4 70.3z"/>
			<path id="&lt;Path&gt;" class="s22" d="m532.1 904.2c118-40 235.9-79.9 354.3-119.7-8.7-3.1-18.1-6.1-28.1-8.7q-176.5 59.3-352.4 118.8c8 3.4 16.7 6.6 26.2 9.6z"/>
			<path id="&lt;Path&gt;" class="s22" d="m922.3 801.2c-7.7-4.7-16.7-9.1-26.8-13.2-118 39.6-235.6 79.4-353.2 119.2 12.4 3.5 25.7 6.6 39.9 9.2 113.5-38.3 226.9-76.7 340.1-115.2z"/>
			<path id="&lt;Path&gt;" class="s21" d="m911.3 842.2c0 38.9-93.3 70.3-208.4 70.3-115 0-208.3-31.4-208.3-70.3 0-38.8 93.3-70.3 208.3-70.3 115.1 0 208.4 31.5 208.4 70.3z"/>
			<path id="&lt;Path&gt;" class="s21" d="m816.6 783.3c-32.7-7.2-71.7-11.4-113.7-11.4-115 0-208.3 31.5-208.3 70.3 0 14.1 12.4 27.3 33.6 38.3q144-48.7 288.4-97.2z"/>
			<path id="&lt;Path&gt;" class="s21" d="m627.1 907.7c23.5 3.1 49.1 4.8 75.8 4.8 115.1 0 208.4-31.4 208.4-70.3 0-9.1-5.2-17.8-14.5-25.8-89.8 30.5-179.7 60.9-269.7 91.3z"/>
			<path id="&lt;Path&gt;" class="s23" d="m503.6 847c0-38.8 93.3-70.3 208.3-70.3 71 0 133.5 11.9 171.2 30.2-36.1-20.9-103.2-35-180.2-35-115 0-208.3 31.5-208.3 70.3 0 14.9 13.8 28.7 37.2 40.1-17.9-10.4-28.2-22.4-28.2-35.3z"/>
		</g>
		<g id="&lt;Group&gt;">
			<path id="&lt;Compound Path&gt;" fill-rule="evenodd" class="s20" d="m695.8 792.8h28.4v7.9q34.4 1.1 59.5 8.9l-31.3 13.1q-17.1-4.8-28.7-6v16.7q65.2 6.7 65.2 24.8 0 9.1-16.6 15.4-16.6 6.2-49 8.2v10h-27.8v-9.9h-4.7q-15.7 0-36.7-3-21.1-3-32.7-7.7l29.9-12.6q19 6.6 44.2 8.3v-19.4q-31.2-2.7-47.5-9.3-16.3-6.6-16.3-15.2 0-9.2 15.8-15.5 15.8-6.4 48.3-6.9zm-0.3 37.6v-14.2q-15.9 1.9-15.9 6.9 0 5.4 15.9 7.3zm28.2 20.5v15q17.6-1.5 17.6-7.5 0-5.4-17.6-7.5z"/>
		</g>
		<g id="&lt;Group&gt;">
			<path id="&lt;Compound Path&gt;" fill-rule="evenodd" class="s19" d="m688.9 792.8h28.4v7.9q34.4 1.1 59.6 8.9l-31.3 13.1q-17.1-4.8-28.8-6v16.7q65.2 6.7 65.2 24.8 0 9.1-16.6 15.4-16.6 6.2-48.9 8.2v10h-27.9v-9.9h-4.6q-15.8 0-36.8-3-21-3-32.7-7.7l30-12.6q19 6.6 44.1 8.3v-19.4q-31.1-2.7-47.5-9.3-16.3-6.6-16.3-15.2 0-9.2 15.8-15.5 15.8-6.4 48.3-6.9zm-0.3 37.6v-14.2q-15.9 1.9-15.9 6.9 0 5.4 15.9 7.3zm28.2 20.5v15q17.7-1.5 17.7-7.5 0-5.4-17.7-7.5z"/>
		</g>
		<g id="&lt;Group&gt;">
			<path id="&lt;Compound Path&gt;" fill-rule="evenodd" class="s20" d="m695.8 792.8h28.4v7.9q34.4 1.1 59.5 8.9l-31.3 13.1q-17.1-4.8-28.7-6v16.7q65.2 6.7 65.2 24.8 0 9.1-16.6 15.4-16.6 6.2-49 8.2v10h-27.8v-9.9h-4.7q-15.7 0-36.7-3-21.1-3-32.7-7.7l29.9-12.6q19 6.6 44.2 8.3v-19.4q-31.2-2.7-47.5-9.3-16.3-6.6-16.3-15.2 0-9.2 15.8-15.5 15.8-6.4 48.3-6.9zm-0.3 37.6v-14.2q-15.9 1.9-15.9 6.9 0 5.4 15.9 7.3zm28.2 20.5v15q17.6-1.5 17.6-7.5 0-5.4-17.6-7.5z"/>
		</g>
		<path id="&lt;Path&gt;" class="s24" d="m562.1 894c98-33.1 196-66.3 294.2-99.4-8.6-3.1-18.1-6-28.3-8.6q-146.2 49.1-291.9 98.4c7.8 3.4 16.5 6.7 26 9.6z"/>
		<path id="&lt;Path&gt;" class="s24" d="m890.9 811.9c-7-4.9-15.6-9.6-25.6-13.8-97.8 33-195.3 65.9-292.8 98.9 12.6 3.5 26.4 6.4 41.1 8.8 92.6-31.3 185-62.6 277.3-93.9z"/>
	</g>
	<g id="&lt;Group&gt;">
		<path id="&lt;Path&gt;" class="s19" d="m928 773.8c-40.9-28-126.3-47.3-225.1-47.3-98.7 0-184.1 19.3-225 47.3h-26.1v37.4h0.4c0 46.8 112.3 84.7 250.7 84.7 138.5 0 250.8-37.9 250.8-84.7v-37.4z"/>
		<path id="&lt;Path&gt;" class="s20" d="m953.7 774.2c0 46.8-112.3 84.7-250.8 84.7-138.4 0-250.7-37.9-250.7-84.7 0-46.7 112.3-84.6 250.7-84.6 138.5 0 250.8 37.9 250.8 84.6z"/>
		<g id="&lt;Group&gt;">
			<path id="&lt;Path&gt;" class="s21" d="m911.3 774.2c0 38.9-93.3 70.3-208.4 70.3-115 0-208.3-31.4-208.3-70.3 0-38.8 93.3-70.3 208.3-70.3 115.1 0 208.4 31.5 208.4 70.3z"/>
			<path id="&lt;Path&gt;" class="s22" d="m532.1 836.2c118-40 235.9-79.9 354.3-119.7-8.7-3.1-18.1-6.1-28.1-8.7q-176.5 59.3-352.4 118.8c8 3.4 16.7 6.6 26.2 9.6z"/>
			<path id="&lt;Path&gt;" class="s22" d="m922.3 733.2c-7.7-4.7-16.7-9.1-26.8-13.2-118 39.6-235.6 79.4-353.2 119.2 12.4 3.5 25.7 6.6 39.9 9.2 113.5-38.3 226.9-76.7 340.1-115.2z"/>
			<path id="&lt;Path&gt;" class="s21" d="m911.3 774.2c0 38.9-93.3 70.3-208.4 70.3-115 0-208.3-31.4-208.3-70.3 0-38.8 93.3-70.3 208.3-70.3 115.1 0 208.4 31.5 208.4 70.3z"/>
			<path id="&lt;Path&gt;" class="s21" d="m816.6 715.3c-32.7-7.2-71.7-11.4-113.7-11.4-115 0-208.3 31.5-208.3 70.3 0 14.1 12.4 27.3 33.6 38.3q144-48.7 288.4-97.2z"/>
			<path id="&lt;Path&gt;" class="s21" d="m627.1 839.7c23.5 3.1 49.1 4.8 75.8 4.8 115.1 0 208.4-31.4 208.4-70.3 0-9.1-5.2-17.8-14.5-25.8-89.8 30.5-179.7 60.9-269.7 91.3z"/>
			<path id="&lt;Path&gt;" class="s23" d="m503.6 779c0-38.8 93.3-70.3 208.3-70.3 71 0 133.5 11.9 171.2 30.2-36.1-20.9-103.2-35-180.2-35-115 0-208.3 31.5-208.3 70.3 0 14.9 13.8 28.7 37.2 40.1-17.9-10.4-28.2-22.4-28.2-35.3z"/>
		</g>
		<g id="&lt;Group&gt;">
			<path id="&lt;Compound Path&gt;" fill-rule="evenodd" class="s20" d="m695.8 724.8h28.4v7.9q34.4 1.1 59.5 8.9l-31.3 13.1q-17.1-4.8-28.7-6v16.7q65.2 6.7 65.2 24.8 0 9.1-16.6 15.4-16.6 6.2-49 8.2v10h-27.8v-9.9h-4.7q-15.7 0-36.7-3-21.1-3-32.7-7.7l29.9-12.6q19 6.6 44.2 8.3v-19.4q-31.2-2.7-47.5-9.3-16.3-6.6-16.3-15.2 0-9.2 15.8-15.5 15.8-6.4 48.3-6.9zm-0.3 37.6v-14.2q-15.9 1.9-15.9 6.9 0 5.4 15.9 7.3zm28.2 20.5v15q17.6-1.5 17.6-7.5 0-5.4-17.6-7.5z"/>
		</g>
		<g id="&lt;Group&gt;">
			<path id="&lt;Compound Path&gt;" fill-rule="evenodd" class="s19" d="m688.9 724.8h28.4v7.9q34.4 1.1 59.6 8.9l-31.3 13.1q-17.1-4.8-28.8-6v16.7q65.2 6.7 65.2 24.8 0 9.1-16.6 15.4-16.6 6.2-48.9 8.2v10h-27.9v-9.9h-4.6q-15.8 0-36.8-3-21-3-32.7-7.7l30-12.6q19 6.6 44.1 8.3v-19.4q-31.1-2.7-47.5-9.3-16.3-6.6-16.3-15.2 0-9.2 15.8-15.5 15.8-6.4 48.3-6.9zm-0.3 37.6v-14.2q-15.9 1.9-15.9 6.9 0 5.4 15.9 7.3zm28.2 20.5v15q17.7-1.5 17.7-7.5 0-5.4-17.7-7.5z"/>
		</g>
		<g id="&lt;Group&gt;">
			<path id="&lt;Compound Path&gt;" fill-rule="evenodd" class="s20" d="m695.8 724.8h28.4v7.9q34.4 1.1 59.5 8.9l-31.3 13.1q-17.1-4.8-28.7-6v16.7q65.2 6.7 65.2 24.8 0 9.1-16.6 15.4-16.6 6.2-49 8.2v10h-27.8v-9.9h-4.7q-15.7 0-36.7-3-21.1-3-32.7-7.7l29.9-12.6q19 6.6 44.2 8.3v-19.4q-31.2-2.7-47.5-9.3-16.3-6.6-16.3-15.2 0-9.2 15.8-15.5 15.8-6.4 48.3-6.9zm-0.3 37.6v-14.2q-15.9 1.9-15.9 6.9 0 5.4 15.9 7.3zm28.2 20.5v15q17.6-1.5 17.6-7.5 0-5.4-17.6-7.5z"/>
		</g>
		<path id="&lt;Path&gt;" class="s24" d="m562.1 826c98-33.1 196-66.3 294.2-99.4-8.6-3.1-18.1-6-28.3-8.6q-146.2 49.1-291.9 98.4c7.8 3.4 16.5 6.7 26 9.6z"/>
		<path id="&lt;Path&gt;" class="s24" d="m890.9 743.9c-7-4.9-15.6-9.6-25.6-13.8-97.8 33-195.3 65.9-292.8 98.9 12.6 3.5 26.4 6.4 41.1 8.8 92.6-31.3 185-62.6 277.3-93.9z"/>
	</g>
	<g id="&lt;Group&gt;">
		<path id="&lt;Path&gt;" class="s19" d="m928 710.8c-40.9-28-126.3-47.3-225.1-47.3-98.7 0-184.1 19.3-225 47.3h-26.1v37.4h0.4c0 46.8 112.3 84.7 250.7 84.7 138.5 0 250.8-37.9 250.8-84.7v-37.4z"/>
		<path id="&lt;Path&gt;" class="s20" d="m953.7 711.2c0 46.8-112.3 84.7-250.8 84.7-138.4 0-250.7-37.9-250.7-84.7 0-46.7 112.3-84.6 250.7-84.6 138.5 0 250.8 37.9 250.8 84.6z"/>
		<g id="&lt;Group&gt;">
			<path id="&lt;Path&gt;" class="s21" d="m911.3 711.2c0 38.9-93.3 70.3-208.4 70.3-115 0-208.3-31.4-208.3-70.3 0-38.8 93.3-70.3 208.3-70.3 115.1 0 208.4 31.5 208.4 70.3z"/>
			<path id="&lt;Path&gt;" class="s22" d="m532.1 773.2c118-40 235.9-79.9 354.3-119.7-8.7-3.1-18.1-6.1-28.1-8.7q-176.5 59.3-352.4 118.8c8 3.4 16.7 6.6 26.2 9.6z"/>
			<path id="&lt;Path&gt;" class="s22" d="m922.3 670.2c-7.7-4.7-16.7-9.1-26.8-13.2-118 39.6-235.6 79.4-353.2 119.2 12.4 3.5 25.7 6.6 39.9 9.2 113.5-38.3 226.9-76.7 340.1-115.2z"/>
			<path id="&lt;Path&gt;" class="s21" d="m911.3 711.2c0 38.9-93.3 70.3-208.4 70.3-115 0-208.3-31.4-208.3-70.3 0-38.8 93.3-70.3 208.3-70.3 115.1 0 208.4 31.5 208.4 70.3z"/>
			<path id="&lt;Path&gt;" class="s21" d="m816.6 652.3c-32.7-7.2-71.7-11.4-113.7-11.4-115 0-208.3 31.5-208.3 70.3 0 14.1 12.4 27.3 33.6 38.3q144-48.7 288.4-97.2z"/>
			<path id="&lt;Path&gt;" class="s21" d="m627.1 776.7c23.5 3.1 49.1 4.8 75.8 4.8 115.1 0 208.4-31.4 208.4-70.3 0-9.1-5.2-17.8-14.5-25.8-89.8 30.5-179.7 60.9-269.7 91.3z"/>
			<path id="&lt;Path&gt;" class="s23" d="m503.6 716c0-38.8 93.3-70.3 208.3-70.3 71 0 133.5 11.9 171.2 30.2-36.1-20.9-103.2-35-180.2-35-115 0-208.3 31.5-208.3 70.3 0 14.9 13.8 28.7 37.2 40.1-17.9-10.4-28.2-22.4-28.2-35.3z"/>
		</g>
		<g id="&lt;Group&gt;">
			<path id="&lt;Compound Path&gt;" fill-rule="evenodd" class="s20" d="m695.8 661.8h28.4v7.9q34.4 1.1 59.5 8.9l-31.3 13.1q-17.1-4.8-28.7-6v16.7q65.2 6.7 65.2 24.8 0 9.1-16.6 15.4-16.6 6.2-49 8.2v10h-27.8v-9.9h-4.7q-15.7 0-36.7-3-21.1-3-32.7-7.7l29.9-12.6q19 6.6 44.2 8.3v-19.4q-31.2-2.7-47.5-9.3-16.3-6.6-16.3-15.2 0-9.2 15.8-15.5 15.8-6.4 48.3-6.9zm-0.3 37.6v-14.2q-15.9 1.9-15.9 6.9 0 5.4 15.9 7.3zm28.2 20.5v15q17.6-1.5 17.6-7.5 0-5.4-17.6-7.5z"/>
		</g>
		<g id="&lt;Group&gt;">
			<path id="&lt;Compound Path&gt;" fill-rule="evenodd" class="s19" d="m688.9 661.8h28.4v7.9q34.4 1.1 59.6 8.9l-31.3 13.1q-17.1-4.8-28.8-6v16.7q65.2 6.7 65.2 24.8 0 9.1-16.6 15.4-16.6 6.2-48.9 8.2v10h-27.9v-9.9h-4.6q-15.8 0-36.8-3-21-3-32.7-7.7l30-12.6q19 6.6 44.1 8.3v-19.4q-31.1-2.7-47.5-9.3-16.3-6.6-16.3-15.2 0-9.2 15.8-15.5 15.8-6.4 48.3-6.9zm-0.3 37.6v-14.2q-15.9 1.9-15.9 6.9 0 5.4 15.9 7.3zm28.2 20.5v15q17.7-1.5 17.7-7.5 0-5.4-17.7-7.5z"/>
		</g>
		<g id="&lt;Group&gt;">
			<path id="&lt;Compound Path&gt;" fill-rule="evenodd" class="s20" d="m695.8 661.8h28.4v7.9q34.4 1.1 59.5 8.9l-31.3 13.1q-17.1-4.8-28.7-6v16.7q65.2 6.7 65.2 24.8 0 9.1-16.6 15.4-16.6 6.2-49 8.2v10h-27.8v-9.9h-4.7q-15.7 0-36.7-3-21.1-3-32.7-7.7l29.9-12.6q19 6.6 44.2 8.3v-19.4q-31.2-2.7-47.5-9.3-16.3-6.6-16.3-15.2 0-9.2 15.8-15.5 15.8-6.4 48.3-6.9zm-0.3 37.6v-14.2q-15.9 1.9-15.9 6.9 0 5.4 15.9 7.3zm28.2 20.5v15q17.6-1.5 17.6-7.5 0-5.4-17.6-7.5z"/>
		</g>
		<path id="&lt;Path&gt;" class="s24" d="m562.1 763c98-33.1 196-66.3 294.2-99.4-8.6-3.1-18.1-6-28.3-8.6q-146.2 49.1-291.9 98.4c7.8 3.4 16.5 6.7 26 9.6z"/>
		<path id="&lt;Path&gt;" class="s24" d="m890.9 680.9c-7-4.9-15.6-9.6-25.6-13.8-97.8 33-195.3 65.9-292.8 98.9 12.6 3.5 26.4 6.4 41.1 8.8 92.6-31.3 185-62.6 277.3-93.9z"/>
	</g>
	<g id="&lt;Group&gt;">
		<path id="&lt;Path&gt;" class="s19" d="m928 648.8c-40.9-28-126.3-47.3-225.1-47.3-98.7 0-184.1 19.3-225 47.3h-26.1v37.4h0.4c0 46.8 112.3 84.7 250.7 84.7 138.5 0 250.8-37.9 250.8-84.7v-37.4z"/>
		<path id="&lt;Path&gt;" class="s20" d="m953.7 649.2c0 46.8-112.3 84.7-250.8 84.7-138.4 0-250.7-37.9-250.7-84.7 0-46.7 112.3-84.6 250.7-84.6 138.5 0 250.8 37.9 250.8 84.6z"/>
		<g id="&lt;Group&gt;">
			<path id="&lt;Path&gt;" class="s21" d="m911.3 649.2c0 38.9-93.3 70.3-208.4 70.3-115 0-208.3-31.4-208.3-70.3 0-38.8 93.3-70.3 208.3-70.3 115.1 0 208.4 31.5 208.4 70.3z"/>
			<path id="&lt;Path&gt;" class="s22" d="m532.1 711.2c118-40 235.9-79.9 354.3-119.7-8.7-3.1-18.1-6.1-28.1-8.7q-176.5 59.3-352.4 118.8c8 3.4 16.7 6.6 26.2 9.6z"/>
			<path id="&lt;Path&gt;" class="s22" d="m922.3 608.2c-7.7-4.7-16.7-9.1-26.8-13.2-118 39.6-235.6 79.4-353.2 119.2 12.4 3.5 25.7 6.6 39.9 9.2 113.5-38.3 226.9-76.7 340.1-115.2z"/>
			<path id="&lt;Path&gt;" class="s21" d="m911.3 649.2c0 38.9-93.3 70.3-208.4 70.3-115 0-208.3-31.4-208.3-70.3 0-38.8 93.3-70.3 208.3-70.3 115.1 0 208.4 31.5 208.4 70.3z"/>
			<path id="&lt;Path&gt;" class="s21" d="m816.6 590.3c-32.7-7.2-71.7-11.4-113.7-11.4-115 0-208.3 31.5-208.3 70.3 0 14.1 12.4 27.3 33.6 38.3q144-48.7 288.4-97.2z"/>
			<path id="&lt;Path&gt;" class="s21" d="m627.1 714.7c23.5 3.1 49.1 4.8 75.8 4.8 115.1 0 208.4-31.4 208.4-70.3 0-9.1-5.2-17.8-14.5-25.8-89.8 30.5-179.7 60.9-269.7 91.3z"/>
			<path id="&lt;Path&gt;" class="s23" d="m503.6 654c0-38.8 93.3-70.3 208.3-70.3 71 0 133.5 11.9 171.2 30.2-36.1-20.9-103.2-35-180.2-35-115 0-208.3 31.5-208.3 70.3 0 14.9 13.8 28.7 37.2 40.1-17.9-10.4-28.2-22.4-28.2-35.3z"/>
		</g>
		<g id="&lt;Group&gt;">
			<path id="&lt;Compound Path&gt;" fill-rule="evenodd" class="s20" d="m695.8 599.8h28.4v7.9q34.4 1.1 59.5 8.9l-31.3 13.1q-17.1-4.8-28.7-6v16.7q65.2 6.7 65.2 24.8 0 9.1-16.6 15.4-16.6 6.2-49 8.2v10h-27.8v-9.9h-4.7q-15.7 0-36.7-3-21.1-3-32.7-7.7l29.9-12.6q19 6.6 44.2 8.3v-19.4q-31.2-2.7-47.5-9.3-16.3-6.6-16.3-15.2 0-9.2 15.8-15.5 15.8-6.4 48.3-6.9zm-0.3 37.6v-14.2q-15.9 1.9-15.9 6.9 0 5.4 15.9 7.3zm28.2 20.5v15q17.6-1.5 17.6-7.5 0-5.4-17.6-7.5z"/>
		</g>
		<g id="&lt;Group&gt;">
			<path id="&lt;Compound Path&gt;" fill-rule="evenodd" class="s19" d="m688.9 599.8h28.4v7.9q34.4 1.1 59.6 8.9l-31.3 13.1q-17.1-4.8-28.8-6v16.7q65.2 6.7 65.2 24.8 0 9.1-16.6 15.4-16.6 6.2-48.9 8.2v10h-27.9v-9.9h-4.6q-15.8 0-36.8-3-21-3-32.7-7.7l30-12.6q19 6.6 44.1 8.3v-19.4q-31.1-2.7-47.5-9.3-16.3-6.6-16.3-15.2 0-9.2 15.8-15.5 15.8-6.4 48.3-6.9zm-0.3 37.6v-14.2q-15.9 1.9-15.9 6.9 0 5.4 15.9 7.3zm28.2 20.5v15q17.7-1.5 17.7-7.5 0-5.4-17.7-7.5z"/>
		</g>
		<g id="&lt;Group&gt;">
			<path id="&lt;Compound Path&gt;" fill-rule="evenodd" class="s20" d="m695.8 599.8h28.4v7.9q34.4 1.1 59.5 8.9l-31.3 13.1q-17.1-4.8-28.7-6v16.7q65.2 6.7 65.2 24.8 0 9.1-16.6 15.4-16.6 6.2-49 8.2v10h-27.8v-9.9h-4.7q-15.7 0-36.7-3-21.1-3-32.7-7.7l29.9-12.6q19 6.6 44.2 8.3v-19.4q-31.2-2.7-47.5-9.3-16.3-6.6-16.3-15.2 0-9.2 15.8-15.5 15.8-6.4 48.3-6.9zm-0.3 37.6v-14.2q-15.9 1.9-15.9 6.9 0 5.4 15.9 7.3zm28.2 20.5v15q17.6-1.5 17.6-7.5 0-5.4-17.6-7.5z"/>
		</g>
		<path id="&lt;Path&gt;" class="s24" d="m562.1 701c98-33.1 196-66.3 294.2-99.4-8.6-3.1-18.1-6-28.3-8.6q-146.2 49.1-291.9 98.4c7.8 3.4 16.5 6.7 26 9.6z"/>
		<path id="&lt;Path&gt;" class="s24" d="m890.9 618.9c-7-4.9-15.6-9.6-25.6-13.8-97.8 33-195.3 65.9-292.8 98.9 12.6 3.5 26.4 6.4 41.1 8.8 92.6-31.3 185-62.6 277.3-93.9z"/>
	</g>
</svg>