<svg version="1.2" xmlns="http://www.w3.org/2000/svg" viewBox="0 0 1809 1815" width="1809" height="1815">
	<title>45043-ai</title>
	<style>
		.s0 { opacity: .6;mix-blend-mode: multiply;fill: #d7d0e5 } 
		.s1 { fill: #9a8eb8 } 
		.s2 { fill: #8caad7 } 
		.s3 { fill: #e86b62 } 
		.s4 { fill: #ebb1b8 } 
		.s5 { fill: #354c7e } 
		.s6 { fill: #4765a3 } 
		.s7 { fill: #e11d2e } 
		.s8 { fill: #e7968a } 
		.s9 { fill: #581953 } 
		.s10 { fill: #f8a55b } 
		.s11 { fill: #fdc361 } 
		.s12 { fill: #fed585 } 
		.s13 { fill: #ffd965 } 
		.s14 { fill: #f9a954 } 
		.s15 { opacity: .4;fill: #fff4cd } 
		.s16 { fill: #f9ad5d } 
		.s17 { fill: #fff7c2 } 
		.s18 { fill: #faa933 } 
	</style>
	<g id="_Artboards_">
	</g>
	<g id="Capa 1">
		<path id="&lt;Path&gt;" class="s0" d="m680.4 62.8c-279.7 41.6-527.5 167-599.7 455.4-43.1 172.1 105.3 276.5 107.3 439.8 1.2 96.8-63.3 183.2-108.8 266.5-266.3 487.1 518.6 567.8 864.1 556.8 227.1-7.3 482.2-8.9 642.1-178.2 130.3-137.9 222.2-348.2 179.9-534.5-23.3-102.5-144.4-170.4-115-286.4 11.2-44 65.9-89.7 82.8-137.9 28.1-80 52.5-194.1 21.1-274-114.7-291.4-518.6-335.8-807-328.7-88.5 2.2-179.3 8.2-266.8 21.2z"/>
		<path id="&lt;Compound Path&gt;" fill-rule="evenodd" class="s1" d="m1434.9 448.9q-1.3 9.5-3.5 18.8l41.8 17.3-22.1 53.2-41.3-17.1q-4.8 8.2-10.5 15.9l31.6 31.5-40.7 40.7-31.3-31.2c-6 4.6-12.3 8.8-18.9 12.6l16.2 40.9-53.6 21.2-16.1-40.8c-5.2 1.3-10.6 2.3-16 3.1v43.8h-57.6v-43.8q-9.8-1.4-19.3-3.8l-16.8 40.4-53.2-22.1 16.9-40.6q-8.3-5.1-16-10.9l-31.2 31.2-40.7-40.7 31.5-31.5q-6.6-9.1-12.2-18.9l-41.6 16.4-21.2-53.5 42.2-16.7q-1.7-7.6-2.8-15.4h-45.5v-57.6h46.1q1.5-9.4 3.8-18.4l-42.7-17.7 22.1-53.2 43.2 17.9q4.8-7.8 10.3-15l-33.2-33.2 40.7-40.7 33.5 33.5q8.6-6.3 17.9-11.7l-17.4-44.2 53.6-21.1 17.5 44.4c4.8-1.1 9.6-2.1 14.5-2.8v-47.7h57.6v47.7q9.1 1.4 17.9 3.5l18.3-44 53.2 22.1-18.2 43.8q7.7 4.6 15 10l33.5-33.5 40.7 40.7-33.2 33.2q6.5 8.6 12 17.9l43.5-17.1 21.1 53.5-43 17q1.9 7.4 3.1 15.1h46v57.6zm-59.9-26.8c0-73.7-59.7-133.3-133.3-133.3-73.6 0-133.3 59.6-133.3 133.3 0 73.6 59.7 133.3 133.3 133.3 73.6 0 133.3-59.7 133.3-133.3z"/>
		<path id="&lt;Compound Path&gt;" fill-rule="evenodd" class="s2" d="m1035.2 767.8q-1.3 9.5-3.5 18.8l41.8 17.3-22.1 53.2-41.3-17.1q-4.8 8.2-10.5 15.9l31.6 31.5-40.8 40.7-31.2-31.2c-6 4.6-12.4 8.7-18.9 12.6l16.2 40.9-53.6 21.2-16.1-40.8c-5.3 1.3-10.6 2.3-16 3.1v43.8h-57.6v-43.8q-9.8-1.4-19.3-3.9l-16.8 40.5-53.2-22.1 16.9-40.6q-8.3-5.1-16-10.9l-31.2 31.2-40.7-40.7 31.5-31.5q-6.6-9.1-12.2-18.9l-41.6 16.4-21.2-53.5 42.2-16.7q-1.7-7.6-2.8-15.4h-45.5v-57.6h46.1q1.4-9.4 3.8-18.5l-42.7-17.7 22.1-53.1 43.2 17.9q4.8-7.8 10.3-15.1l-33.2-33.1 40.7-40.8 33.5 33.5q8.6-6.3 17.9-11.6l-17.4-44.2 53.5-21.1 17.6 44.4c4.7-1.1 9.6-2.1 14.5-2.8v-47.7h57.6v47.7q9.1 1.3 17.9 3.5l18.3-44 53.1 22.1-18.2 43.8q7.8 4.6 15 9.9l33.5-33.5 40.8 40.8-33.2 33.1q6.5 8.7 12 18l43.5-17.2 21.1 53.6-43 17q1.8 7.4 3.1 15.1h46v57.6zm-80.5-28.8c0-62.3-50.4-112.8-112.7-112.8-62.3 0-112.8 50.5-112.8 112.8 0 62.3 50.5 112.7 112.8 112.7 62.3 0 112.7-50.4 112.7-112.7z"/>
		<path id="&lt;Compound Path&gt;" fill-rule="evenodd" class="s3" d="m1495 961.2c-1.1 7.5-2.5 15-4.4 22.3l20.8 8.7-22.2 53.1-20.8-8.7q-5.5 9.3-11.9 17.8l15.9 16-40.7 40.7-15.9-15.9q-9.1 6.8-19 12.6l8.5 20.8-53.2 21.9-8.5-20.8q-10.4 2.6-21.1 4.1v22.5h-57.6v-22.5c-7.6-1-15.1-2.5-22.4-4.4l-8.6 20.7-53.1-22.2 8.6-20.7q-9.2-5.6-17.8-12l-15.9 15.9-40.7-40.7 15.9-16c-4.5-6-8.7-12.4-12.5-18.9l-20.9 8.5-21.9-53.2 20.9-8.6q-2.6-10.3-4.1-21h-22.6v-57.6h22.7q1.6-11.3 4.4-22.3l-20.9-8.7 22.2-53.1 21 8.8q5.5-9.2 11.9-17.8l-16.1-16.1 40.7-40.7 16.2 16.1c6-4.5 12.3-8.6 18.8-12.5l-8.7-21.1 53.3-21.9 8.7 21.1q10.2-2.5 20.9-4v-22.9h57.6v22.9c7.5 1 14.9 2.5 22.2 4.3l8.8-21 53.1 22.2-8.8 21.1c6.1 3.6 12 7.6 17.7 11.8l16.2-16.1 40.7 40.7-16.1 16.1q6.8 9.1 12.5 18.9l21.1-8.7 21.9 53.3-21 8.6q2.6 10.3 4.1 21h22.7v57.6zm-76.3-28.6c0-69-56-125-125-125-69 0-124.9 56-124.9 125 0 69 55.9 125 124.9 125 69 0 125-56 125-125z"/>
		<g id="&lt;Group&gt;">
			<g id="&lt;Group&gt;">
				<g id="&lt;Group&gt;">
					<g id="&lt;Group&gt;">
						<g id="&lt;Group&gt;">
							<path id="&lt;Path&gt;" class="s4" d="m711.4 605.6c-8 0.6-31.6-1.4-36-12.3-3.8-9.1-0.8-13-0.8-13 24.5-48.2 50.9-83.9 74.7-116.3 23.4-31.9 25.6-0.5 25.6-0.5-14.6 41.6-25 82.1-63.5 142.1z"/>
						</g>
					</g>
				</g>
				<path id="&lt;Path&gt;" class="s4" d="m752.7 443.8c-2.9 8.5-4.6 15.7-2.2 24.7l0.7 0.4c0.4-0.8 3.9 2.3 7.4 3.6 10.3 4.2 18.7-10 22-17.6 4.2-9.6 5.6-20.5 9.2-30.6 3.5-9.7 10.2-22.4 10.1-32.7-10.9-7.5-25.7 19.9-35.9 44.4-3.4 8.6 1.1-11.5-1.7-13.4-3.1-3.4-8.3 15.3-9.6 21.2z"/>
				<g id="&lt;Group&gt;">
					<path id="&lt;Path&gt;" class="s4" d="m549.3 1433.1c0 0-21.7 55.5 23 233.9 3.6 14.3 14.7 13.4 20.6 8.8 4-3.1 4.1-8.9 4.1-8.9 0 0 21-203.3 15.7-228.4-5.3-25.1-63.4-5.4-63.4-5.4z"/>
				</g>
				<g id="&lt;Group&gt;">
					<path id="&lt;Path&gt;" class="s4" d="m616 1379.8c-1.5 13.5 2.2 63.5-6 74.1-12 15.7-38.7 18.1-53.1 5.5-9-7.9-8.1-31.4-12.7-41.9-4.4-10.3-35.6-203.9-38.1-246.5-2.9-50.1-1.7-37.2-2.4-87.4-0.3-19.8-0.4-39.6-0.5-59.5 0-11.8-3.3-29.2 11.8-32.2 17.8-3.5 21.7-34.3 37.2-25.4 19.5 11.3 29.8 50.2 37.2 69.4 22.2 57.5 27.1 118.8 27.4 180 0.1 43.2 3.1 86.6 1 129.8-0.6 10.8-0.5 22.6-1.8 34.1z"/>
				</g>
				<path id="&lt;Path&gt;" class="s5" d="m657.4 1685.3c-7.1-1-9.3-0.1-16.3-1.2-7-1.2-13.9-3.6-20.2-6.7-6.2-3.1-15.3-9.5-20.7-13.8q-1-0.8-2-1.4c-9.6 4.4-15.1 4.1-25.3-0.2-1-0.4-1.6-1-1.9-1.7q-0.5 0.4-0.8 0.8c-1.7 2.1-2 5-2.4 7.6-0.7 4.7-2.9 24.4-1.9 29 1.3 6.6 37.2 14.4 48.9 15.2 15.9 1 28 1.6 43.6-0.9 15.3-2.5 10.9-25-1-26.7z"/>
				<path id="&lt;Path&gt;" class="s5" d="m542.4 1680.8c-7.1-1-9.3-0.1-16.3-1.2-7-1.2-13.9-3.6-20.2-6.8-6.2-3.1-15.3-9.4-20.7-13.7q-1-0.8-2-1.4c-9.6 4.4-15 4.1-25.3-0.2-0.9-0.4-1.6-1-1.9-1.7q-0.5 0.4-0.8 0.8c-1.7 2.1-2 5-2.3 7.6-0.8 4.7-3 24.3-2 29 1.3 6.6 37.2 14.4 49 15.2 15.8 0.9 27.9 1.6 43.5-0.9 15.3-2.5 10.9-25-1-26.7z"/>
				<path id="&lt;Path&gt;" class="s6" d="m405 554.2c-20.2 43.3-31.2 91.6-52.9 135.4-63 13.7-17.9 117.2 10.7 145.1 21.6 21.2 52.5 21.2 73.5 38.1 20.5 16.6 12.5 32.4 17.3 55 21.5 102.1 113.5-29.2 127.2-75.8 15.4-52.2 26.6-116.3 6.3-168.9-8.5-22.2 4.1-42 9.6-63.4 6.3-24.9 0.5-48.1-10.1-70.3-6-12.6-3.8-25.6-11-38-7.9-13.4-14.5-25.5-28.2-34.1-29-18-75.4-9.7-99 13.4-19.1 18.7-32.6 40.4-43.4 63.5z"/>
				<g id="&lt;Group&gt;">
					<g id="&lt;Group&gt;">
						<path id="&lt;Path&gt;" class="s7" d="m657.4 585.8c-16.3 21.2-33.5 51.2-40.6 59-41.4 45.2-78.7 89.7-58.3 109.1 23.1 22.1 75.4-20.5 109.2-61 29.3-35.3 41.6-65 64.8-107.3-17.7-7.9-54.8-8.7-75.1 0.2z"/>
					</g>
				</g>
				<g id="&lt;Group&gt;">
					<g id="&lt;Group&gt;">
						<g id="&lt;Group&gt;">
							<path id="&lt;Path&gt;" class="s4" d="m338.7 613.6c7.9 0.6 31.5-1.4 35.9-12.2 3.8-9.2 0.8-13.1 0.8-13.1-24.5-48.2-50.9-83.9-74.7-116.3-23.4-31.9-25.6-0.5-25.6-0.5 14.6 41.6 25 82.1 63.6 142.1z"/>
						</g>
					</g>
				</g>
				<path id="&lt;Path&gt;" class="s4" d="m297.3 451.8c2.9 8.5 4.6 15.7 2.2 24.8l-0.6 0.3c-0.5-0.8-4 2.3-7.5 3.7-10.3 4.1-18.7-10.1-22-17.7-4.2-9.6-5.6-20.5-9.2-30.6-3.5-9.6-10.2-22.4-10.1-32.7 10.9-7.5 25.7 19.9 36 44.4 3.3 8.6-1.2-11.5 1.6-13.4 3.1-3.3 8.3 15.3 9.6 21.2z"/>
				<g id="&lt;Group&gt;">
					<g id="&lt;Group&gt;">
						<path id="&lt;Path&gt;" class="s7" d="m392.6 593.8c16.3 21.2 33.5 51.2 40.6 59 41.4 45.2 78.7 89.7 58.3 109.2-23.1 22-75.3-20.5-109.1-61.1-29.4-35.2-41.7-65-64.9-107.2 17.7-8 54.8-8.8 75.1 0.1z"/>
					</g>
				</g>
				<g id="&lt;Group&gt;">
					<g id="&lt;Group&gt;">
						<path id="&lt;Path&gt;" class="s4" d="m471.4 586c1.9 9.8 16.2 23 19.8 14.5 2.2-5.1 4.1-16.4 2.1-26.3-1.9-9.8-0.3-11.1-9.2-9.3-9 1.8-14.7 11.2-12.7 21.1z"/>
					</g>
				</g>
				<g id="&lt;Group&gt;">
					<path id="&lt;Path&gt;" class="s4" d="m489.7 618.8c1.5-19.9 59.7 17 59.7 17l-6.2 75.7c0 0-0.6-3.1-29.3-2.4-17.4 0.4-28.2 5.9-27.4-10.4 0.6-10 2.7-73.1 3.2-79.9z"/>
				</g>
				<path id="&lt;Path&gt;" class="s8" d="m488.8 637.9c8.3 26.6 31.9 45.7 56.6 43.8l4-45.9c0 0-58.2-36.9-59.7-17-0.2 2.1 0.2-4.1-0.7 4.5 0.4 0.5-0.4 14-0.2 14.6z"/>
				<g id="&lt;Group&gt;">
					<path id="&lt;Path&gt;" class="s4" d="m553.4 652.1c-19.2 9.1-50.1-2.1-60.7-19.7-6.4-10.7-8.9-21.5-8.1-33.4 1-13.5 4.9-25.4 5.9-38.9 0.5-5.9 1.1-11.7 2.7-17.4 2.7-8.9 8.1-17.2 15.4-23.3 7.2-6 16.7-7.7 25.5-10.6 7.4-2.4 15.8-5.6 23.7-5.1 5.5 0.3 8.3 4.3 12.1 8 20.1 20.4 24 56.7 18.3 83.7-4.2 20.1-15.1 47.3-34.8 56.7z"/>
				</g>
				<g id="&lt;Group&gt;">
					<path id="&lt;Path&gt;" class="s4" d="m434.2 1427.1c0 0-21.7 55.5 23 233.9 3.6 14.3 14.8 13.4 20.7 8.8 4-3.1 4-9 4-9 0 0 21.1-203.2 15.8-228.3-5.3-25.1-63.5-5.4-63.5-5.4z"/>
				</g>
				<g id="&lt;Group&gt;">
					<path id="&lt;Path&gt;" class="s4" d="m426.5 1373.8c1.5 13.5 1.3 60.9 9.4 71.6 12.1 15.7 36.8 13.1 51.1 0.5 9-8 5.2 1.4 9.8-9.1 4.4-10.3 37.1-229.2 39.6-271.8 2.9-50.1 1.8-37.2 2.5-87.4q0.4-29.7 0.5-59.5c0-11.8 3.2-29.2-11.8-32.2-17.9-3.5-21.8-34.3-37.3-25.4-19.5 11.3-29.8 50.1-37.2 69.3-22.1 57.5-27.1 118.9-27.3 180-0.2 43.3-3.1 86.6-1 129.9 0.5 10.7 0.5 22.5 1.7 34.1z"/>
				</g>
				<g id="&lt;Group&gt;">
					<path id="&lt;Path&gt;" class="s4" d="m571.2 1000.7c4.5-89.6 21.9-221.3 10.6-234.1-19.9-22.4 7.9-35.5-6.5-53.5-21.5-26.9-90.7-32.6-117.6 6.3-9.1 13.1 1.6 49.5-0.5 59.3-4.8 21.9-6.6 131-12 218.8z"/>
				</g>
				<path id="&lt;Path&gt;" class="s7" d="m560.1 695.1c-2.1-0.8-12.9-0.7-14.8 0-1.2 0.3-0.2 25.1-2.3 35.7-2.6 13-4.8 21.8-8.1 34.3-14.6-21.9-20.4-40.7-36.1-61.8-11-14.7-27.9-13.6-37.1-1.4-8 10.6-8.4 23.7-13.2 35.6-6 14.7-4.3 24.9-3.3 41.1 2.1 34.6 1.6 69.3 1.4 103.9-0.1 37.7 3.2 78.4-3 115.7 0 0 127.6 2.5 127.6 2.5 3.8-3.3 2.8-26.3 3.3-31.1 2.2-21.3 4.5-42.7 6.9-64 5-43.8 13.2-87.6 14.1-131.7 0.3-20.9-2.9-44.9-15.4-62.3-4.2-5.8-11.9-13.7-20-16.5z"/>
				<path id="&lt;Path&gt;" class="s6" d="m530.7 472.9c3.2 2.1 5.6 5.3 9.4 8.8 7.4 7.2 14.6 15.1 17.6 25.2 2 6.5 2.9 14.3 3.5 21.1 1.1 12.6-3.5 24-13.4 31.5-7.7 5.9-16.2 8.6-25.6 10.1-4.9 0.7-11 2-15 5.1-2.8 2.2-3.3 6.3-6 8.3-9.3 7-9.3-7.9-10.1-12.7q0.7 3.7-1.6-5.7c-3.4-13.8-3.3-25-11.3-37-7-10.6-9.8-29.7-2.4-40.8 8.3-12.5 31.5-16.3 45.3-16.4 4.2-0.1 7.1 0.9 9.6 2.5z"/>
				<path id="&lt;Path&gt;" class="s6" d="m592.8 549c-2.8-16.2-7.1-33.8-16.4-47.7-6.7-9.8-17.1-21.2-28.1-25.9-6-2.6-15.1-6.4-21.5-5.5-8.1 16 7.1 38.5 14.3 53 4.8 9.8 13.2 12.3 20.4 19.3 5.4 5.3 9.1 11.9 13.8 17.9 4.9 6.4 10.7 10.9 14.2 18.4 6.5-3 4.2-23.9 3.3-29.5z"/>
				<path id="&lt;Path&gt;" class="s9" d="m618.8 1139.7c-7-60.7-37.5-169.8-43.9-183.9l-128.2-4c-5.1 12.3-35.1 134.5-39.8 195.4-6 76.7-0.4 215 0.8 226.6 0.2 1.2 0.3 2.7 0.4 4.4l217.9-2.5c1.1-11 0.3-171.3-7.2-236z"/>
			</g>
			<g id="&lt;Group&gt;">
				<path id="&lt;Path&gt;" class="s10" d="m750 401.1c-40.9-28-126.3-47.2-225.1-47.2-98.7 0-184.1 19.2-225 47.2h-26.1v37.4h0.4c0 46.8 112.3 84.7 250.7 84.7 138.5 0 250.8-37.9 250.8-84.7v-37.4z"/>
				<path id="&lt;Path&gt;" class="s11" d="m775.7 401.5c0 46.8-112.3 84.7-250.8 84.7-138.4 0-250.7-37.9-250.7-84.7 0-46.7 112.3-84.6 250.7-84.6 138.5 0 250.8 37.9 250.8 84.6z"/>
				<g id="&lt;Group&gt;">
					<path id="&lt;Path&gt;" class="s12" d="m733.3 401.5c0 38.9-93.3 70.4-208.4 70.4-115 0-208.3-31.5-208.3-70.4 0-38.8 93.3-70.3 208.3-70.3 115.1 0 208.4 31.5 208.4 70.3z"/>
					<path id="&lt;Path&gt;" class="s13" d="m354.1 463.5c118-39.9 235.9-79.9 354.3-119.7-8.7-3.1-18.1-6-28.1-8.7q-176.5 59.3-352.4 118.8c8 3.4 16.7 6.6 26.2 9.6z"/>
					<path id="&lt;Path&gt;" class="s13" d="m744.3 360.5c-7.7-4.7-16.7-9.1-26.8-13.2-118 39.7-235.6 79.5-353.2 119.2 12.4 3.5 25.7 6.6 39.9 9.2 113.5-38.3 226.9-76.7 340.1-115.2z"/>
					<path id="&lt;Path&gt;" class="s12" d="m733.3 401.5c0 38.9-93.3 70.4-208.4 70.4-115 0-208.3-31.5-208.3-70.4 0-38.8 93.3-70.3 208.3-70.3 115.1 0 208.4 31.5 208.4 70.3z"/>
					<path id="&lt;Path&gt;" class="s12" d="m638.6 342.6c-32.7-7.2-71.7-11.4-113.7-11.4-115 0-208.3 31.5-208.3 70.3 0 14.2 12.4 27.3 33.6 38.3q144-48.7 288.4-97.2z"/>
					<path id="&lt;Path&gt;" class="s12" d="m449.1 467c23.5 3.2 49.1 4.9 75.8 4.9 115.1 0 208.4-31.5 208.4-70.4 0-9.1-5.2-17.8-14.5-25.7-89.8 30.4-179.7 60.9-269.7 91.2z"/>
					<path id="&lt;Path&gt;" class="s14" d="m325.6 406.3c0-38.8 93.3-70.3 208.3-70.3 71 0 133.5 12 171.2 30.2-36.1-20.9-103.2-35-180.2-35-115 0-208.3 31.5-208.3 70.3 0 14.9 13.8 28.8 37.2 40.1-17.9-10.4-28.2-22.4-28.2-35.3z"/>
				</g>
				<g id="&lt;Group&gt;">
					<path id="&lt;Compound Path&gt;" fill-rule="evenodd" class="s11" d="m517.8 352.2h28.4v7.9q34.4 1.1 59.5 8.8l-31.3 13.2q-17.1-4.9-28.7-6.1v16.7q65.2 6.7 65.2 24.8 0 9.2-16.6 15.4-16.6 6.2-49 8.2v10h-27.8v-9.9h-4.7q-15.7 0-36.7-3-21.1-3-32.7-7.7l29.9-12.6q19 6.6 44.2 8.3v-19.4q-31.2-2.7-47.5-9.3-16.3-6.5-16.3-15.2 0-9.2 15.8-15.5 15.8-6.3 48.3-6.8zm-0.3 37.5v-14.2q-15.9 1.9-15.9 6.9 0 5.4 15.9 7.3zm28.2 20.5v15q17.6-1.5 17.6-7.4 0-5.5-17.6-7.6z"/>
				</g>
				<g id="&lt;Group&gt;">
					<path id="&lt;Compound Path&gt;" fill-rule="evenodd" class="s10" d="m510.9 352.2h28.4v7.9q34.4 1.1 59.6 8.8l-31.3 13.2q-17.1-4.9-28.8-6.1v16.7q65.2 6.7 65.2 24.8 0 9.2-16.6 15.4-16.6 6.2-48.9 8.2v10h-27.9v-9.9h-4.6q-15.8 0-36.8-3-21-3-32.7-7.7l30-12.6q19 6.6 44.1 8.3v-19.4q-31.1-2.7-47.5-9.3-16.3-6.5-16.3-15.2 0-9.2 15.8-15.5 15.8-6.3 48.3-6.8zm-0.3 37.5v-14.2q-15.9 1.9-15.9 6.9 0 5.4 15.9 7.3zm28.2 20.5v15q17.7-1.5 17.7-7.4 0-5.5-17.7-7.6z"/>
				</g>
				<g id="&lt;Group&gt;">
					<path id="&lt;Compound Path&gt;" fill-rule="evenodd" class="s11" d="m517.8 352.2h28.4v7.9q34.4 1.1 59.5 8.8l-31.3 13.2q-17.1-4.9-28.7-6.1v16.7q65.2 6.7 65.2 24.8 0 9.2-16.6 15.4-16.6 6.2-49 8.2v10h-27.8v-9.9h-4.7q-15.7 0-36.7-3-21.1-3-32.7-7.7l29.9-12.6q19 6.6 44.2 8.3v-19.4q-31.2-2.7-47.5-9.3-16.3-6.5-16.3-15.2 0-9.2 15.8-15.5 15.8-6.3 48.3-6.8zm-0.3 37.5v-14.2q-15.9 1.9-15.9 6.9 0 5.4 15.9 7.3zm28.2 20.5v15q17.6-1.5 17.6-7.4 0-5.5-17.6-7.6z"/>
				</g>
				<path id="&lt;Path&gt;" class="s15" d="m384.1 453.3c98-33.1 196-66.3 294.2-99.3-8.6-3.2-18.1-6.1-28.3-8.7q-146.2 49.1-291.9 98.4c7.8 3.5 16.5 6.7 26 9.6z"/>
				<path id="&lt;Path&gt;" class="s15" d="m712.9 371.2c-7-4.9-15.6-9.5-25.6-13.7-97.8 32.9-195.3 65.9-292.8 98.9 12.6 3.4 26.4 6.3 41.1 8.7 92.6-31.3 185-62.6 277.3-93.9z"/>
			</g>
			<g id="&lt;Group&gt;">
				<path id="&lt;Path&gt;" class="s10" d="m750 351c-40.9-28-126.3-47.2-225.1-47.2-98.7 0-184.1 19.2-225 47.2h-26.1v37.4h0.4c0 46.8 112.3 84.7 250.7 84.7 138.5 0 250.8-37.9 250.8-84.7v-37.4z"/>
				<path id="&lt;Path&gt;" class="s11" d="m775.7 351.4c0 46.8-112.3 84.7-250.8 84.7-138.4 0-250.7-37.9-250.7-84.7 0-46.7 112.3-84.6 250.7-84.6 138.5 0 250.8 37.9 250.8 84.6z"/>
				<g id="&lt;Group&gt;">
					<path id="&lt;Path&gt;" class="s12" d="m733.3 351.4c0 38.9-93.3 70.4-208.4 70.4-115 0-208.3-31.5-208.3-70.4 0-38.8 93.3-70.3 208.3-70.3 115.1 0 208.4 31.5 208.4 70.3z"/>
					<path id="&lt;Path&gt;" class="s13" d="m354.1 413.4c118-39.9 235.9-79.9 354.3-119.7-8.7-3.1-18.1-6-28.1-8.7q-176.5 59.3-352.4 118.8c8 3.4 16.7 6.6 26.2 9.6z"/>
					<path id="&lt;Path&gt;" class="s13" d="m744.3 310.4c-7.7-4.7-16.7-9.1-26.8-13.2-118 39.7-235.6 79.5-353.2 119.2 12.4 3.5 25.7 6.6 39.9 9.2 113.5-38.3 226.9-76.7 340.1-115.2z"/>
					<path id="&lt;Path&gt;" class="s12" d="m733.3 351.4c0 38.9-93.3 70.4-208.4 70.4-115 0-208.3-31.5-208.3-70.4 0-38.8 93.3-70.3 208.3-70.3 115.1 0 208.4 31.5 208.4 70.3z"/>
					<path id="&lt;Path&gt;" class="s12" d="m638.6 292.5c-32.7-7.2-71.7-11.4-113.7-11.4-115 0-208.3 31.5-208.3 70.3 0 14.2 12.4 27.3 33.6 38.3q144-48.7 288.4-97.2z"/>
					<path id="&lt;Path&gt;" class="s12" d="m449.1 416.9c23.5 3.1 49.1 4.9 75.8 4.9 115.1 0 208.4-31.5 208.4-70.4 0-9.1-5.2-17.8-14.5-25.8-89.8 30.5-179.7 60.9-269.7 91.3z"/>
					<path id="&lt;Path&gt;" class="s14" d="m325.6 356.2c0-38.8 93.3-70.3 208.3-70.3 71 0 133.5 12 171.2 30.2-36.1-20.9-103.2-35-180.2-35-115 0-208.3 31.5-208.3 70.3 0 14.9 13.8 28.8 37.2 40.1-17.9-10.4-28.2-22.4-28.2-35.3z"/>
				</g>
				<g id="&lt;Group&gt;">
					<path id="&lt;Compound Path&gt;" fill-rule="evenodd" class="s11" d="m517.8 302h28.4v8q34.4 1.1 59.5 8.8l-31.3 13.2q-17.1-4.9-28.7-6.1v16.7q65.2 6.7 65.2 24.8 0 9.2-16.6 15.4-16.6 6.2-49 8.2v10h-27.8v-9.9h-4.7q-15.7 0-36.7-3-21.1-3-32.7-7.7l29.9-12.6q19 6.6 44.2 8.3v-19.4q-31.2-2.7-47.5-9.3-16.3-6.5-16.3-15.2 0-9.2 15.8-15.5 15.8-6.3 48.3-6.9zm-0.3 37.6v-14.2q-15.9 1.9-15.9 6.9 0 5.4 15.9 7.3zm28.2 20.5v15q17.6-1.5 17.6-7.4 0-5.5-17.6-7.6z"/>
				</g>
				<g id="&lt;Group&gt;">
					<path id="&lt;Compound Path&gt;" fill-rule="evenodd" class="s10" d="m510.9 302h28.4v8q34.4 1.1 59.6 8.8l-31.3 13.2q-17.1-4.9-28.8-6.1v16.7q65.2 6.7 65.2 24.8 0 9.2-16.6 15.4-16.6 6.2-48.9 8.2v10h-27.9v-9.9h-4.6q-15.8 0-36.8-3-21-3-32.7-7.7l30-12.6q19 6.6 44.1 8.3v-19.4q-31.1-2.7-47.5-9.3-16.3-6.5-16.3-15.2 0-9.2 15.8-15.5 15.8-6.3 48.3-6.9zm-0.3 37.6v-14.2q-15.9 1.9-15.9 6.9 0 5.4 15.9 7.3zm28.2 20.5v15q17.7-1.5 17.7-7.4 0-5.5-17.7-7.6z"/>
				</g>
				<g id="&lt;Group&gt;">
					<path id="&lt;Compound Path&gt;" fill-rule="evenodd" class="s11" d="m517.8 302h28.4v8q34.4 1.1 59.5 8.8l-31.3 13.2q-17.1-4.9-28.7-6.1v16.7q65.2 6.7 65.2 24.8 0 9.2-16.6 15.4-16.6 6.2-49 8.2v10h-27.8v-9.9h-4.7q-15.7 0-36.7-3-21.1-3-32.7-7.7l29.9-12.6q19 6.6 44.2 8.3v-19.4q-31.2-2.7-47.5-9.3-16.3-6.5-16.3-15.2 0-9.2 15.8-15.5 15.8-6.3 48.3-6.9zm-0.3 37.6v-14.2q-15.9 1.9-15.9 6.9 0 5.4 15.9 7.3zm28.2 20.5v15q17.6-1.5 17.6-7.4 0-5.5-17.6-7.6z"/>
				</g>
				<path id="&lt;Path&gt;" class="s15" d="m384.1 403.2c98-33.1 196-66.3 294.2-99.3-8.6-3.2-18.1-6.1-28.3-8.7q-146.2 49.1-291.9 98.4c7.8 3.5 16.5 6.7 26 9.6z"/>
				<path id="&lt;Path&gt;" class="s15" d="m712.9 321.1c-7-4.9-15.6-9.5-25.6-13.7-97.8 32.9-195.3 65.9-292.8 98.9 12.6 3.4 26.4 6.3 41.1 8.7 92.6-31.3 185-62.6 277.3-93.9z"/>
			</g>
			<g id="&lt;Group&gt;">
				<path id="&lt;Path&gt;" class="s10" d="m750 295.9c-40.9-28-126.3-47.3-225.1-47.3-98.7 0-184.1 19.3-225 47.3h-26.1v37.4h0.4c0 46.8 112.3 84.7 250.7 84.7 138.5 0 250.8-37.9 250.8-84.7v-37.4z"/>
				<path id="&lt;Path&gt;" class="s11" d="m775.7 296.3c0 46.8-112.3 84.7-250.8 84.7-138.4 0-250.7-37.9-250.7-84.7 0-46.7 112.3-84.6 250.7-84.6 138.5 0 250.8 37.9 250.8 84.6z"/>
				<g id="&lt;Group&gt;">
					<path id="&lt;Path&gt;" class="s12" d="m733.3 296.3c0 38.9-93.3 70.4-208.4 70.4-115 0-208.3-31.5-208.3-70.4 0-38.8 93.3-70.3 208.3-70.3 115.1 0 208.4 31.5 208.4 70.3z"/>
					<path id="&lt;Path&gt;" class="s13" d="m354.1 358.3c118-39.9 235.9-79.9 354.3-119.7-8.7-3.1-18.1-6-28.1-8.7q-176.5 59.3-352.4 118.8c8 3.4 16.7 6.6 26.2 9.6z"/>
					<path id="&lt;Path&gt;" class="s13" d="m744.3 255.3c-7.7-4.7-16.7-9.1-26.8-13.2-118 39.6-235.6 79.4-353.2 119.2 12.4 3.5 25.7 6.6 39.9 9.2 113.5-38.3 226.9-76.7 340.1-115.2z"/>
					<path id="&lt;Path&gt;" class="s12" d="m733.3 296.3c0 38.9-93.3 70.4-208.4 70.4-115 0-208.3-31.5-208.3-70.4 0-38.8 93.3-70.3 208.3-70.3 115.1 0 208.4 31.5 208.4 70.3z"/>
					<path id="&lt;Path&gt;" class="s12" d="m638.6 237.4c-32.7-7.2-71.7-11.4-113.7-11.4-115 0-208.3 31.5-208.3 70.3 0 14.1 12.4 27.3 33.6 38.3q144-48.7 288.4-97.2z"/>
					<path id="&lt;Path&gt;" class="s12" d="m449.1 361.8c23.5 3.1 49.1 4.9 75.8 4.9 115.1 0 208.4-31.5 208.4-70.4 0-9.1-5.2-17.8-14.5-25.8-89.8 30.5-179.7 60.9-269.7 91.3z"/>
					<path id="&lt;Path&gt;" class="s14" d="m325.6 301.1c0-38.8 93.3-70.3 208.3-70.3 71 0 133.5 11.9 171.2 30.2-36.1-20.9-103.2-35-180.2-35-115 0-208.3 31.5-208.3 70.3 0 14.9 13.8 28.7 37.2 40.1-17.9-10.4-28.2-22.4-28.2-35.3z"/>
				</g>
				<g id="&lt;Group&gt;">
					<path id="&lt;Compound Path&gt;" fill-rule="evenodd" class="s11" d="m517.8 246.9h28.4v7.9q34.4 1.1 59.5 8.9l-31.3 13.2q-17.1-4.9-28.7-6.1v16.7q65.2 6.7 65.2 24.8 0 9.1-16.6 15.4-16.6 6.2-49 8.2v10h-27.8v-9.9h-4.7q-15.7 0-36.7-3-21.1-3-32.7-7.7l29.9-12.6q19 6.6 44.2 8.3v-19.4q-31.2-2.7-47.5-9.3-16.3-6.6-16.3-15.2 0-9.2 15.8-15.5 15.8-6.3 48.3-6.9zm-0.3 37.6v-14.2q-15.9 1.9-15.9 6.9 0 5.4 15.9 7.3zm28.2 20.5v15q17.6-1.5 17.6-7.5 0-5.4-17.6-7.5z"/>
				</g>
				<g id="&lt;Group&gt;">
					<path id="&lt;Compound Path&gt;" fill-rule="evenodd" class="s10" d="m510.9 246.9h28.4v7.9q34.4 1.1 59.6 8.9l-31.3 13.2q-17.1-4.9-28.8-6.1v16.7q65.2 6.7 65.2 24.8 0 9.1-16.6 15.4-16.6 6.2-48.9 8.2v10h-27.9v-9.9h-4.6q-15.8 0-36.8-3-21-3-32.7-7.7l30-12.6q19 6.6 44.1 8.3v-19.4q-31.1-2.7-47.5-9.3-16.3-6.6-16.3-15.2 0-9.2 15.8-15.5 15.8-6.3 48.3-6.9zm-0.3 37.6v-14.2q-15.9 1.9-15.9 6.9 0 5.4 15.9 7.3zm28.2 20.5v15q17.7-1.5 17.7-7.5 0-5.4-17.7-7.5z"/>
				</g>
				<g id="&lt;Group&gt;">
					<path id="&lt;Compound Path&gt;" fill-rule="evenodd" class="s11" d="m517.8 246.9h28.4v7.9q34.4 1.1 59.5 8.9l-31.3 13.2q-17.1-4.9-28.7-6.1v16.7q65.2 6.7 65.2 24.8 0 9.1-16.6 15.4-16.6 6.2-49 8.2v10h-27.8v-9.9h-4.7q-15.7 0-36.7-3-21.1-3-32.7-7.7l29.9-12.6q19 6.6 44.2 8.3v-19.4q-31.2-2.7-47.5-9.3-16.3-6.6-16.3-15.2 0-9.2 15.8-15.5 15.8-6.3 48.3-6.9zm-0.3 37.6v-14.2q-15.9 1.9-15.9 6.9 0 5.4 15.9 7.3zm28.2 20.5v15q17.6-1.5 17.6-7.5 0-5.4-17.6-7.5z"/>
				</g>
				<path id="&lt;Path&gt;" class="s15" d="m384.1 348.1c98-33.1 196-66.3 294.2-99.4-8.6-3.1-18.1-6-28.3-8.6q-146.2 49.1-291.9 98.4c7.8 3.4 16.5 6.7 26 9.6z"/>
				<path id="&lt;Path&gt;" class="s15" d="m712.9 266c-7-4.9-15.6-9.5-25.6-13.8-97.8 33-195.3 65.9-292.8 98.9 12.6 3.5 26.4 6.4 41.1 8.8 92.6-31.3 185-62.6 277.3-93.9z"/>
			</g>
			<g id="&lt;Group&gt;">
				<path id="&lt;Path&gt;" class="s10" d="m750 245.8c-40.9-28-126.3-47.3-225.1-47.3-98.7 0-184.1 19.3-225 47.3h-26.1v37.4h0.4c0 46.8 112.3 84.7 250.7 84.7 138.5 0 250.8-37.9 250.8-84.7v-37.4z"/>
				<path id="&lt;Path&gt;" class="s11" d="m775.7 246.2c0 46.8-112.3 84.7-250.8 84.7-138.4 0-250.7-37.9-250.7-84.7 0-46.7 112.3-84.6 250.7-84.6 138.5 0 250.8 37.9 250.8 84.6z"/>
				<g id="&lt;Group&gt;">
					<path id="&lt;Path&gt;" class="s12" d="m733.3 246.2c0 38.9-93.3 70.3-208.4 70.3-115 0-208.3-31.4-208.3-70.3 0-38.8 93.3-70.3 208.3-70.3 115.1 0 208.4 31.5 208.4 70.3z"/>
					<path id="&lt;Path&gt;" class="s13" d="m354.1 308.2c118-40 235.9-79.9 354.3-119.7-8.7-3.1-18.1-6.1-28.1-8.7q-176.5 59.3-352.4 118.8c8 3.4 16.7 6.6 26.2 9.6z"/>
					<path id="&lt;Path&gt;" class="s13" d="m744.3 205.2c-7.7-4.7-16.7-9.1-26.8-13.2-118 39.6-235.6 79.4-353.2 119.2 12.4 3.5 25.7 6.6 39.9 9.2 113.5-38.3 226.9-76.7 340.1-115.2z"/>
					<path id="&lt;Path&gt;" class="s12" d="m733.3 246.2c0 38.9-93.3 70.3-208.4 70.3-115 0-208.3-31.4-208.3-70.3 0-38.8 93.3-70.3 208.3-70.3 115.1 0 208.4 31.5 208.4 70.3z"/>
					<path id="&lt;Path&gt;" class="s12" d="m638.6 187.3c-32.7-7.2-71.7-11.4-113.7-11.4-115 0-208.3 31.5-208.3 70.3 0 14.1 12.4 27.3 33.6 38.3q144-48.7 288.4-97.2z"/>
					<path id="&lt;Path&gt;" class="s12" d="m449.1 311.7c23.5 3.1 49.1 4.8 75.8 4.8 115.1 0 208.4-31.4 208.4-70.3 0-9.1-5.2-17.8-14.5-25.8-89.8 30.5-179.7 60.9-269.7 91.3z"/>
					<path id="&lt;Path&gt;" class="s14" d="m325.6 251c0-38.8 93.3-70.3 208.3-70.3 71 0 133.5 11.9 171.2 30.2-36.1-20.9-103.2-35-180.2-35-115 0-208.3 31.5-208.3 70.3 0 14.9 13.8 28.7 37.2 40.1-17.9-10.4-28.2-22.4-28.2-35.3z"/>
				</g>
				<g id="&lt;Group&gt;">
					<path id="&lt;Compound Path&gt;" fill-rule="evenodd" class="s11" d="m517.8 196.8h28.4v7.9q34.4 1.1 59.5 8.9l-31.3 13.1q-17.1-4.8-28.7-6v16.7q65.2 6.7 65.2 24.8 0 9.1-16.6 15.4-16.6 6.2-49 8.2v10h-27.8v-9.9h-4.7q-15.7 0-36.7-3-21.1-3-32.7-7.7l29.9-12.6q19 6.6 44.2 8.3v-19.4q-31.2-2.7-47.5-9.3-16.3-6.6-16.3-15.2 0-9.2 15.8-15.5 15.8-6.4 48.3-6.9zm-0.3 37.6v-14.2q-15.9 1.9-15.9 6.9 0 5.4 15.9 7.3zm28.2 20.5v15q17.6-1.5 17.6-7.5 0-5.4-17.6-7.5z"/>
				</g>
				<g id="&lt;Group&gt;">
					<path id="&lt;Compound Path&gt;" fill-rule="evenodd" class="s10" d="m510.9 196.8h28.4v7.9q34.4 1.1 59.6 8.9l-31.3 13.1q-17.1-4.8-28.8-6v16.7q65.2 6.7 65.2 24.8 0 9.1-16.6 15.4-16.6 6.2-48.9 8.2v10h-27.9v-9.9h-4.6q-15.8 0-36.8-3-21-3-32.7-7.7l30-12.6q19 6.6 44.1 8.3v-19.4q-31.1-2.7-47.5-9.3-16.3-6.6-16.3-15.2 0-9.2 15.8-15.5 15.8-6.4 48.3-6.9zm-0.3 37.6v-14.2q-15.9 1.9-15.9 6.9 0 5.4 15.9 7.3zm28.2 20.5v15q17.7-1.5 17.7-7.5 0-5.4-17.7-7.5z"/>
				</g>
				<g id="&lt;Group&gt;">
					<path id="&lt;Compound Path&gt;" fill-rule="evenodd" class="s11" d="m517.8 196.8h28.4v7.9q34.4 1.1 59.5 8.9l-31.3 13.1q-17.1-4.8-28.7-6v16.7q65.2 6.7 65.2 24.8 0 9.1-16.6 15.4-16.6 6.2-49 8.2v10h-27.8v-9.9h-4.7q-15.7 0-36.7-3-21.1-3-32.7-7.7l29.9-12.6q19 6.6 44.2 8.3v-19.4q-31.2-2.7-47.5-9.3-16.3-6.6-16.3-15.2 0-9.2 15.8-15.5 15.8-6.4 48.3-6.9zm-0.3 37.6v-14.2q-15.9 1.9-15.9 6.9 0 5.4 15.9 7.3zm28.2 20.5v15q17.6-1.5 17.6-7.5 0-5.4-17.6-7.5z"/>
				</g>
				<path id="&lt;Path&gt;" class="s15" d="m384.1 298c98-33.1 196-66.3 294.2-99.4-8.6-3.1-18.1-6-28.3-8.6q-146.2 49.1-291.9 98.4c7.8 3.4 16.5 6.7 26 9.6z"/>
				<path id="&lt;Path&gt;" class="s15" d="m712.9 215.9c-7-4.9-15.6-9.6-25.6-13.8-97.8 33-195.3 65.9-292.8 98.9 12.6 3.5 26.4 6.4 41.1 8.8 92.6-31.3 185-62.6 277.3-93.9z"/>
			</g>
		</g>
		<g id="&lt;Group&gt;">
			<g id="&lt;Group&gt;">
				<g id="&lt;Group&gt;">
					<path id="&lt;Path&gt;" class="s11" d="m902.6 1308.7c-63.4 0-113.9-19.8-150.1-59-68.2-74-59.7-189.6-59.3-194.4 0.6-7.8 7.1-13.8 14.9-13.8h171c8.3 0 15 6.7 15 15 0 8.2-6.7 14.9-15 14.9h-156.5c0.1 31 5.4 107.6 52 158.1 30.3 32.7 73.3 49.3 128 49.3 8.3 0 15 6.7 15 15 0 8.2-6.7 14.9-15 14.9z"/>
				</g>
				<g id="&lt;Group&gt;">
					<path id="&lt;Path&gt;" class="s16" d="m868.4 1042.2c8.3 0 15 6.7 15 15 0 6.6-4.4 12.3-10.4 14.2h6.1c8.3 0 15-6.7 15-14.9 0-8.3-6.7-15-15-15h-171c-1.6 0-3.1 0.3-4.5 0.7z"/>
					<path id="&lt;Path&gt;" class="s16" d="m902.6 1278.8c-54.7 0-97.7-16.6-128-49.3-46.3-50.1-51.8-125.9-51.9-157.4h-10.7c0 31.1 5.3 107.6 51.9 158.1 30.3 32.7 73.3 49.3 128 49.3 8.3 0 15 6.7 15 15 0 6.5-4.2 12.1-10.1 14.1 2 0 3.9 0.1 5.8 0.1 8.3 0 15-6.7 15-14.9 0-8.3-6.7-15-15-15z"/>
				</g>
				<g id="&lt;Group&gt;">
					<path id="&lt;Path&gt;" class="s17" d="m893.5 1052.2c-1.9-6.2-7.6-10.7-14.4-10.7h-171c-6.7 0 185.4 10.7 185.4 10.7z"/>
				</g>
			</g>
			<g id="&lt;Group&gt;">
				<g id="&lt;Group&gt;">
					<path id="&lt;Path&gt;" class="s11" d="m1160.8 1305.9c63.5 0 114-19.9 150.1-59.1 68.3-74 59.8-189.5 59.4-194.4-0.7-7.8-7.1-13.8-14.9-13.8h-171.1c-8.2 0-14.9 6.7-14.9 15 0 8.3 6.7 15 14.9 15h156.5c-0.1 31-5.3 107.6-52 158-30.2 32.8-73.3 49.3-128 49.3-8.2 0-14.9 6.7-14.9 15 0 8.3 6.7 15 14.9 15z"/>
				</g>
				<g id="&lt;Group&gt;">
					<path id="&lt;Path&gt;" class="s16" d="m1195 1039.4c-8.2 0-14.9 6.7-14.9 14.9 0 6.7 4.3 12.3 10.4 14.3h-6.2c-8.2 0-14.9-6.7-14.9-15 0-8.3 6.7-15 14.9-15h171.1c1.5 0 3.1 0.3 4.5 0.8z"/>
					<path id="&lt;Path&gt;" class="s16" d="m1160.8 1275.9c54.7 0 97.8-16.5 128-49.3 46.3-50.1 51.9-125.9 52-157.3h10.7c-0.1 31-5.3 107.6-52 158.1-30.2 32.7-73.3 49.3-128 49.3-8.3 0-15 6.7-15 14.9 0 6.6 4.3 12.1 10.1 14.2-1.9 0-3.8 0.1-5.8 0.1-8.2 0-14.9-6.7-14.9-15 0-8.3 6.7-15 14.9-15z"/>
				</g>
				<g id="&lt;Group&gt;">
					<path id="&lt;Path&gt;" class="s17" d="m1170 1049.3c1.8-6.1 7.6-10.7 14.3-10.7h171.1c6.7 0-185.4 10.7-185.4 10.7z"/>
				</g>
			</g>
			<g id="&lt;Group&gt;">
				<path id="&lt;Path&gt;" class="s12" d="m865.2 998.7v224.7c0 86.1 69.8 155.9 155.9 155.9h26c86.1 0 155.9-69.8 155.9-155.9v-224.7z"/>
				<path id="&lt;Path&gt;" class="s11" d="m900.2 1104.6c98.6-34.7 201.3-54.3 302.8-78.1v-27.8h-337.8v118.9q17.4-6.8 35-13z"/>
				<path id="&lt;Path&gt;" class="s12" d="m1241.5 996.6c0 14.2-9.8 25.7-21.9 25.7h-370.9c-12.1 0-22-11.5-22-25.7v-15c0-14.1 9.9-25.6 22-25.6h370.9c12.1 0 21.9 11.5 21.9 25.6z"/>
				<path id="&lt;Path&gt;" class="s17" d="m1194.4 1160.1c0 52.6-7.6 95.2-17.1 95.2-9.4 0-17.1-42.6-17.1-95.2 0-52.5 7.7-95.1 17.1-95.1 9.5 0 17.1 42.6 17.1 95.1z"/>
				<g id="&lt;Group&gt;">
					<path id="&lt;Path&gt;" class="s17" d="m903 959.5c0 6 77.4 10.7 172.8 10.7 71.7 0 133.3-2.7 159.4-6.5-4-4.8-9.5-7.7-15.6-7.7h-306.7c-6.4 1.1-9.9 2.3-9.9 3.5z"/>
				</g>
			</g>
			<path id="&lt;Path&gt;" class="s11" d="m1077.9 1417.7h-87.6v-44.8h87.6z"/>
			<path id="&lt;Path&gt;" class="s12" d="m1061.9 1650.8h-55.6v-233.1h55.6z"/>
			<g id="&lt;Group&gt;">
				<path id="&lt;Path&gt;" class="s11" d="m1099.3 1586.6h-130.4l-42.7 64.2h215.9z"/>
				<path id="&lt;Path&gt;" class="s12" d="m1087.7 1586.6h-32.2c-21.9 21.3-43.6 42.6-65.2 64.2h34q31.8-32 63.4-64.2z"/>
				<path id="&lt;Path&gt;" class="s12" d="m1039.2 1586.6h-15.2q-32 32.1-63.9 64.2h14.2q32.2-32.3 64.9-64.2z"/>
			</g>
			<path id="&lt;Path&gt;" class="s18" d="m1191.2 1693.5h-314.2v-44.9h314.2z"/>
			<path id="&lt;Path&gt;" class="s11" d="m904.8 1693.5h-27.8v-44.9h27.8z"/>
		</g>
	</g>
</svg>